<?xml version="1.0" encoding="UTF-8"?><svg version="1.1" xmlns="http://www.w3.org/2000/svg" xmlns:xlink="http://www.w3.org/1999/xlink" viewBox="0 0 1200 1500" width="1200" height="1500" x="0px" y="0px">
              
              <!-- ITEM 0 -->
<g>
    <defs>
        <clipPath id="clip-path-id-crop-item-0">
          <g transform="scale(0.4702194357366771 0.47058823529411764)">
          <rect x="0.0" y="0.0" width="638.0" height="850.0"/>
          </g>
        </clipPath>
        <clipPath id="clip-path-id-viewbox-item-0">
            <rect x="0.0" y="0.0" width="300.0" height="400.0"/>
        </clipPath>
    </defs>
    <g clip-path="url(#clip-path-id-crop-item-0)" transform="translate(272.0 295.0) rotate(0.0 319.0 425.0) scale(2.1266666666666665 2.125)">
      <g clip-path="url(#clip-path-id-viewbox-item-0)" transform="translate(-0.0 -0.0)">
      
<path style="fill:#E0EBFE;" d="M258.866,362.453l-5.205-14.201c-1.877-0.091-3.724,0.113-5.516,0.714l5.625,15.354  c0.315,0.861-0.126,1.814-0.987,2.131c-0.861,0.315-1.814-0.126-2.131-0.987l-5.522-15.068c-1.673,1.048-3.11,2.43-4.288,4.066  l4.66,12.713c0.315,0.861-0.126,1.814-0.989,2.131c-0.861,0.315-1.814-0.126-2.131-0.987l-3.66-9.985  c-2.102,5.2-2.224,11.789,0.146,18.259c0.056,0.152,0.113,0.3,0.171,0.449c-1.219,0.702-2.407,1.462-3.549,2.302  c-3.202,2.352-7.331,6.343-8.812,11.999l1.605,0.42c1.357-5.185,5.2-8.888,8.188-11.082c1.03-0.756,2.105-1.449,3.213-2.093  c2.486,5.508,6.463,9.793,10.916,12.16l-3.478-9.488c-0.315-0.861,0.126-1.814,0.987-2.131c0.861-0.315,1.814,0.126,2.131,0.989  l4.48,12.226c1.954,0.483,3.939,0.591,5.877,0.27l-5.206-14.207c-0.315-0.861,0.126-1.814,0.987-2.131  c0.861-0.315,1.814,0.126,2.131,0.989l5.278,14.401c1.701-0.752,3.219-1.88,4.582-3.266l-4.766-13.003  c-0.315-0.861,0.126-1.814,0.987-2.131c0.861-0.315,1.814,0.126,2.131,0.987l4.096,11.176c1.324-1.88,2.478-3.994,3.513-6.183  l-2.571-7.016c-0.315-0.861,0.126-1.814,0.987-2.131c0.861-0.315,1.814,0.126,2.131,0.989l1.369,3.737  c2.53-6.283,4.323-12.285,6.437-14.291c-3.58-0.752-8.677-4.18-14.322-7.225l1.772,4.836c0.315,0.861-0.126,1.814-0.989,2.131  c-0.861,0.315-1.814-0.126-2.131-0.989l-2.987-8.151c-2.187-0.995-4.416-1.829-6.637-2.346l4.586,12.518  c0.315,0.861-0.126,1.814-0.987,2.131C260.136,363.757,259.181,363.315,258.866,362.453z"/>
<path style="fill:none;stroke:#23286B;stroke-linecap:round;stroke-miterlimit:10;" d="M136.137,80.734"/>
<rect x="75.945" y="77.081" style="fill:#D62929;" width="68.186" height="16.134"/>
<rect x="71.747" y="66.164" style="fill:#428DFC;" width="68.186" height="11.097"/>
<rect x="80.629" y="80.465" style="fill:#D6D7D8;" width="64.021" height="9.37"/>
<rect x="80.629" y="87.549" style="fill:#EEEEEE;" width="64.021" height="1.181"/>
<rect x="80.629" y="85.188" style="fill:#EEEEEE;" width="64.021" height="1.181"/>
<rect x="80.629" y="82.827" style="fill:#EEEEEE;" width="64.021" height="1.181"/>
<rect x="80.629" y="80.465" style="fill:#EEEEEE;" width="64.021" height="1.181"/>
<rect x="72.168" y="49.788" style="fill:#D62929;" width="80.437" height="16.134"/>
<rect x="77.693" y="53.171" style="fill:#D6D7D8;" width="75.525" height="9.37"/>
<rect x="77.693" y="60.257" style="fill:#EEEEEE;" width="75.525" height="1.181"/>
<rect x="77.693" y="57.896" style="fill:#EEEEEE;" width="75.525" height="1.181"/>
<rect x="77.693" y="55.533" style="fill:#EEEEEE;" width="75.525" height="1.181"/>
<rect x="77.693" y="53.171" style="fill:#EEEEEE;" width="75.525" height="1.181"/>
<rect x="20.849" y="377.582" style="fill:#D62929;" width="68.186" height="16.134"/>
<rect x="16.651" y="366.665" style="fill:#428DFC;" width="68.186" height="11.097"/>
<rect x="25.533" y="380.964" style="fill:#D6D7D8;" width="64.021" height="9.37"/>
<rect x="25.533" y="388.05" style="fill:#EEEEEE;" width="64.021" height="1.181"/>
<rect x="25.533" y="385.687" style="fill:#EEEEEE;" width="64.021" height="1.181"/>
<rect x="25.533" y="383.326" style="fill:#EEEEEE;" width="64.021" height="1.181"/>
<rect x="25.533" y="380.964" style="fill:#EEEEEE;" width="64.021" height="1.181"/>
<rect x="17.07" y="350.288" style="fill:#D62929;" width="80.437" height="16.134"/>
<rect x="22.596" y="353.672" style="fill:#D6D7D8;" width="75.525" height="9.37"/>
<rect x="22.596" y="360.756" style="fill:#EEEEEE;" width="75.525" height="1.181"/>
<rect x="22.596" y="358.395" style="fill:#EEEEEE;" width="75.525" height="1.181"/>
<rect x="22.596" y="356.033" style="fill:#EEEEEE;" width="75.525" height="1.181"/>
<rect x="22.596" y="353.672" style="fill:#EEEEEE;" width="75.525" height="1.181"/>
<rect x="10.875" y="93.356" style="fill:#D6D7D8;" width="241.404" height="5.039"/>
<rect x="9.352" y="394.961" style="fill:#D6D7D8;" width="241.404" height="5.039"/>
<rect x="21.897" style="fill:#D62929;" width="20.154" height="93.216"/>
<rect x="156.103" y="20.278" transform="matrix(0.9383 -0.3458 0.3458 0.9383 -9.6838 59.7083)" style="fill:#1D72D8;" width="12.791" height="73.433"/>
<rect x="169.644" y="20.279" transform="matrix(0.9383 -0.3458 0.3458 0.9383 -8.8486 64.3912)" style="fill:#428DFC;" width="12.791" height="73.433"/>
<rect x="187.605" y="21.373" transform="matrix(0.8883 -0.4592 0.4592 0.8883 -5.0101 95.5742)" style="fill:#78A9EF;" width="12.789" height="73.43"/>
<rect x="161.599" y="228.986" transform="matrix(-0.9383 -0.3458 0.3458 -0.9383 233.744 573.105)" style="fill:#1D72D8;" width="12.791" height="73.433"/>
<rect x="148.058" y="228.986" transform="matrix(-0.9383 -0.3458 0.3458 -0.9383 207.4984 568.423)" style="fill:#428DFC;" width="12.791" height="73.433"/>
<rect x="206.553" y="117.061" style="fill:#428DFC;" width="13.13" height="80.676"/>
<g>
	<rect x="219.47" y="111.471" style="fill:#23286B;" width="20.415" height="86.265"/>
	<rect x="223.749" y="110.811" style="fill:#D6D7D8;" width="11.852" height="80.998"/>
	<rect x="232.713" y="110.811" style="fill:#EEEEEE;" width="1.494" height="80.998"/>
	<rect x="229.724" y="110.811" style="fill:#EEEEEE;" width="1.494" height="80.998"/>
	<rect x="226.737" y="110.811" style="fill:#EEEEEE;" width="1.494" height="80.998"/>
	<rect x="223.749" y="110.811" style="fill:#EEEEEE;" width="1.494" height="80.998"/>
</g>
<rect x="187.177" y="102.562" style="fill:#D62929;" width="19.091" height="95.173"/>
<rect x="232.253" y="328.003" style="fill:#428DFC;" width="10.763" height="66.134"/>
<rect x="216.37" y="316.12" style="fill:#D62929;" width="15.65" height="78.02"/>
<rect x="45.201" style="fill:#D62929;" width="20.154" height="93.216"/>
<rect x="18.56" y="132.357" style="fill:#A1C3FC;" width="14.459" height="66.871"/>
<rect x="76.89" y="134.58" transform="matrix(0.9652 -0.2616 0.2616 0.9652 -40.7994 27.4025)" style="fill:#78A9EF;" width="11.277" height="64.74"/>
<rect x="78.516" y="171.454" transform="matrix(0.9652 -0.2616 0.2616 0.9652 -42.3115 28.0366)" style="fill:#D6D7D8;" width="11.277" height="2.986"/>
<rect x="18.56" y="174.832" style="fill:#428DFC;" width="14.459" height="4.375"/>
<rect x="18.56" y="183.391" style="fill:#428DFC;" width="14.459" height="4.375"/>
<rect x="36.156" y="132.357" style="fill:#A1C3FC;" width="14.459" height="66.871"/>
<rect x="36.156" y="174.832" style="fill:#428DFC;" width="14.459" height="4.375"/>
<rect x="36.156" y="183.391" style="fill:#428DFC;" width="14.459" height="4.375"/>
<rect x="53.751" y="132.357" style="fill:#A1C3FC;" width="14.459" height="66.871"/>
<rect x="53.751" y="174.832" style="fill:#428DFC;" width="14.459" height="4.375"/>
<rect x="53.751" y="183.391" style="fill:#428DFC;" width="14.459" height="4.375"/>
<rect x="100.248" y="324.932" transform="matrix(0.988 -0.1545 0.1545 0.988 -54.3622 20.9934)" style="fill:#A1C3FC;" width="15.271" height="70.626"/>
<rect x="102.081" y="369.649" transform="matrix(0.988 -0.1545 0.1545 0.988 -56.1499 21.4171)" style="fill:#428DFC;" width="15.271" height="4.62"/>
<rect x="103.479" y="378.581" transform="matrix(0.988 -0.1545 0.1545 0.988 -57.513 21.7404)" style="fill:#428DFC;" width="15.271" height="4.62"/>
<rect x="119.047" y="324.933" transform="matrix(0.988 -0.1545 0.1545 0.988 -54.1365 23.8977)" style="fill:#A1C3FC;" width="15.271" height="70.626"/>
<rect x="120.878" y="369.65" transform="matrix(0.988 -0.1545 0.1545 0.988 -55.9243 24.3213)" style="fill:#428DFC;" width="15.271" height="4.62"/>
<rect x="122.276" y="378.582" transform="matrix(0.988 -0.1545 0.1545 0.988 -57.2875 24.6445)" style="fill:#428DFC;" width="15.271" height="4.62"/>
<rect x="137.844" y="324.934" transform="matrix(0.988 -0.1545 0.1545 0.988 -53.9109 26.8019)" style="fill:#A1C3FC;" width="15.271" height="70.626"/>
<rect x="139.676" y="369.65" transform="matrix(0.988 -0.1545 0.1545 0.988 -55.6987 27.2256)" style="fill:#428DFC;" width="15.271" height="4.62"/>
<rect x="141.073" y="378.582" transform="matrix(0.988 -0.1545 0.1545 0.988 -57.0619 27.5487)" style="fill:#428DFC;" width="15.271" height="4.62"/>
<rect x="100.232" y="132.357" style="fill:#A1C3FC;" width="14.459" height="66.871"/>
<rect x="100.232" y="174.832" style="fill:#428DFC;" width="14.459" height="4.375"/>
<rect x="100.232" y="183.391" style="fill:#428DFC;" width="14.459" height="4.375"/>
<rect x="117.829" y="132.357" style="fill:#A1C3FC;" width="14.459" height="66.871"/>
<rect x="117.829" y="174.832" style="fill:#428DFC;" width="14.459" height="4.375"/>
<rect x="117.829" y="183.391" style="fill:#428DFC;" width="14.459" height="4.375"/>
<rect x="135.424" y="132.357" style="fill:#A1C3FC;" width="14.459" height="66.871"/>
<rect x="135.424" y="174.832" style="fill:#428DFC;" width="14.459" height="4.375"/>
<rect x="135.424" y="183.391" style="fill:#428DFC;" width="14.459" height="4.375"/>
<rect x="87.917" y="244.632" style="fill:#A1C3FC;" width="12.608" height="58.309"/>
<rect x="87.917" y="274.575" style="fill:#428DFC;" width="12.608" height="7.63"/>
<rect x="87.917" y="289.13" style="fill:#428DFC;" width="12.608" height="3.814"/>
<rect x="103.259" y="244.632" style="fill:#A1C3FC;" width="12.608" height="58.309"/>
<rect x="103.259" y="274.575" style="fill:#428DFC;" width="12.608" height="7.63"/>
<rect x="103.259" y="289.13" style="fill:#428DFC;" width="12.608" height="3.814"/>
<rect x="118.603" y="244.632" style="fill:#A1C3FC;" width="12.608" height="58.309"/>
<rect x="118.603" y="274.575" style="fill:#428DFC;" width="12.608" height="7.63"/>
<rect x="118.603" y="289.13" style="fill:#428DFC;" width="12.608" height="3.814"/>
<rect x="21.897" y="25.109" style="fill:#E94A47;" width="20.154" height="42.997"/>
<rect x="45.201" y="25.109" style="fill:#E94A47;" width="20.154" height="42.997"/>
<rect x="16.712" y="237.502" style="fill:#23286B;" width="14.072" height="65.081"/>
<rect x="33.006" y="237.184" transform="matrix(0.9984 -0.0573 0.0573 0.9984 -15.3889 2.7375)" style="fill:#D62929;" width="14.074" height="65.087"/>
<rect x="16.712" y="255.033" style="fill:#1D72D8;" width="14.072" height="30.02"/>
<rect x="70.565" y="237.502" style="fill:#D62929;" width="14.072" height="65.081"/>
<rect x="70.565" y="255.033" style="fill:#E94A47;" width="14.072" height="30.02"/>
<rect x="33.006" y="254.717" transform="matrix(0.9984 -0.0573 0.0573 0.9984 -15.389 2.7375)" style="fill:#E94A47;" width="14.074" height="30.023"/>
<rect x="49.842" y="236.796" transform="matrix(0.9906 -0.1368 0.1368 0.9906 -36.3105 10.313)" style="fill:#D62929;" width="14.072" height="65.081"/>
<rect x="49.842" y="254.327" transform="matrix(0.9906 -0.1368 0.1368 0.9906 -36.3106 10.313)" style="fill:#E94A47;" width="14.072" height="30.02"/>
<linearGradient id="SVGID_1_-i0" gradientUnits="userSpaceOnUse" x1="12.4912" y1="647.3708" x2="82.9441" y2="647.3708" gradientTransform="matrix(0.2134 0 0 0.2134 213.0549 128.9843)">
	<stop offset="0" style="stop-color:#81AEF2"/>
	<stop offset="1" style="stop-color:#78A9EF"/>
</linearGradient>
<rect x="215.721" y="232.385" style="fill:url(#SVGID_1_-i0);" width="15.038" height="69.55"/>
<linearGradient id="SVGID_2_-i0" gradientUnits="userSpaceOnUse" x1="81.8094" y1="647.3708" x2="152.2624" y2="647.3708" gradientTransform="matrix(0.2134 0 0 0.2134 213.0549 128.9843)">
	<stop offset="0" style="stop-color:#81AEF2"/>
	<stop offset="1" style="stop-color:#78A9EF"/>
</linearGradient>
<rect x="230.516" y="232.385" style="fill:url(#SVGID_2_-i0);" width="15.038" height="69.55"/>
<linearGradient id="SVGID_3_-i0" gradientUnits="userSpaceOnUse" x1="12.4912" y1="647.3707" x2="82.9441" y2="647.3707" gradientTransform="matrix(0.2134 0 0 0.2134 213.0549 128.9843)">
	<stop offset="0" style="stop-color:#A1C3FC"/>
	<stop offset="1" style="stop-color:#78A9EF"/>
</linearGradient>
<rect x="215.721" y="251.12" style="fill:url(#SVGID_3_-i0);" width="15.038" height="32.081"/>
<linearGradient id="SVGID_4_-i0" gradientUnits="userSpaceOnUse" x1="81.8094" y1="647.3707" x2="152.2624" y2="647.3707" gradientTransform="matrix(0.2134 0 0 0.2134 213.0549 128.9843)">
	<stop offset="0" style="stop-color:#A1C3FC"/>
	<stop offset="1" style="stop-color:#78A9EF"/>
</linearGradient>
<rect x="230.516" y="251.12" style="fill:url(#SVGID_4_-i0);" width="15.038" height="32.081"/>
<linearGradient id="SVGID_5_-i0" gradientUnits="userSpaceOnUse" x1="-124.1682" y1="647.3708" x2="-53.7152" y2="647.3708" gradientTransform="matrix(0.2134 0 0 0.2134 213.0549 128.9843)">
	<stop offset="0" style="stop-color:#81AEF2"/>
	<stop offset="1" style="stop-color:#78A9EF"/>
</linearGradient>
<rect x="186.552" y="232.385" style="fill:url(#SVGID_5_-i0);" width="15.038" height="69.55"/>
<linearGradient id="SVGID_6_-i0" gradientUnits="userSpaceOnUse" x1="-54.8502" y1="647.3708" x2="15.6028" y2="647.3708" gradientTransform="matrix(0.2134 0 0 0.2134 213.0549 128.9843)">
	<stop offset="0" style="stop-color:#81AEF2"/>
	<stop offset="1" style="stop-color:#78A9EF"/>
</linearGradient>
<rect x="201.348" y="232.385" style="fill:url(#SVGID_6_-i0);" width="15.038" height="69.55"/>
<linearGradient id="SVGID_7_-i0" gradientUnits="userSpaceOnUse" x1="-124.1682" y1="647.3707" x2="-53.7152" y2="647.3707" gradientTransform="matrix(0.2134 0 0 0.2134 213.0549 128.9843)">
	<stop offset="0" style="stop-color:#A1C3FC"/>
	<stop offset="1" style="stop-color:#78A9EF"/>
</linearGradient>
<rect x="186.552" y="251.12" style="fill:url(#SVGID_7_-i0);" width="15.038" height="32.081"/>
<linearGradient id="SVGID_8_-i0" gradientUnits="userSpaceOnUse" x1="-54.8502" y1="647.3707" x2="15.6028" y2="647.3707" gradientTransform="matrix(0.2134 0 0 0.2134 213.0549 128.9843)">
	<stop offset="0" style="stop-color:#A1C3FC"/>
	<stop offset="1" style="stop-color:#78A9EF"/>
</linearGradient>
<rect x="201.348" y="251.12" style="fill:url(#SVGID_8_-i0);" width="15.038" height="32.081"/>
<rect x="10.875" y="197.716" style="fill:#D6D7D8;" width="241.404" height="5.039"/>
<rect x="155.105" y="280.009" transform="matrix(-0.9383 -0.3458 0.3458 -0.9383 215.0643 605.0087)" style="fill:#D6D7D8;" width="12.791" height="6.623"/>
<linearGradient id="SVGID_9_-i0" gradientUnits="userSpaceOnUse" x1="-302.7126" y1="560.0397" x2="-186.8351" y2="560.0397" gradientTransform="matrix(0.2134 0 0 0.2134 213.0549 128.9843)">
	<stop offset="0" style="stop-color:#A1C3FC"/>
	<stop offset="1" style="stop-color:#78A9EF"/>
</linearGradient>
<polygon style="fill:url(#SVGID_9_-i0);" points="148.443,263.577 160.445,268.002 173.176,233.462 161.176,229.039 "/>
<rect x="10.875" y="302.074" style="fill:#D6D7D8;" width="241.404" height="5.039"/>
<g>
	<g>
		<path style="fill:#A1C3FC;" d="M213.698,394.798c-0.069,0-0.139-0.009-0.209-0.03c-0.405-0.114-0.64-0.536-0.524-0.94    c5.036-17.699,11.418-35.248,18.971-52.156c0.171-0.384,0.621-0.559,1.005-0.384c0.384,0.171,0.556,0.621,0.384,1.005    c-7.522,16.843-13.878,34.321-18.896,51.951C214.335,394.579,214.03,394.798,213.698,394.798z"/>
	</g>
	
		<ellipse transform="matrix(-0.4038 0.9149 -0.9149 -0.4038 639.3636 264.0688)" style="fill:#1C2868;" cx="233.634" cy="340.374" rx="3.525" ry="9.425"/>
	<g>
		<path style="fill:#A1C3FC;" d="M233.554,340.698c-0.105,0-0.213-0.023-0.314-0.069c-0.384-0.174-0.553-0.625-0.379-1.007    c4.311-9.505,9.062-18.955,14.122-28.089c0.206-0.369,0.667-0.498,1.036-0.297c0.367,0.204,0.501,0.667,0.297,1.036    c-5.04,9.098-9.773,18.512-14.067,27.979C234.12,340.532,233.842,340.698,233.554,340.698z"/>
	</g>
	
		<ellipse transform="matrix(-0.3128 0.9498 -0.9498 -0.3128 620.996 170.3694)" style="fill:#1C2868;" cx="248.867" cy="309.831" rx="4.247" ry="11.356"/>
	<g>
		<path style="fill:#A1C3FC;" d="M248.991,310.259c-0.128,0-0.256-0.032-0.373-0.097c-0.367-0.207-0.497-0.67-0.289-1.037    c4.245-7.536,8.786-15.007,13.496-22.206c0.23-0.353,0.705-0.452,1.053-0.221c0.352,0.228,0.451,0.702,0.221,1.053    c-4.692,7.173-9.214,14.616-13.443,22.119C249.515,310.119,249.256,310.259,248.991,310.259z"/>
	</g>
	
		<ellipse transform="matrix(-0.5895 0.8078 -0.8078 -0.5895 651.1489 239.9136)" style="fill:#1C2868;" cx="264.612" cy="285.414" rx="4.247" ry="11.356"/>
	<g>
		<path style="fill:#A1C3FC;" d="M264.433,285.111c-0.146,0-0.292-0.041-0.422-0.128c-0.349-0.233-0.445-0.707-0.212-1.056    c3.644-5.459,7.473-10.896,11.388-16.159c0.254-0.34,0.733-0.405,1.065-0.158c0.338,0.251,0.41,0.73,0.158,1.065    c-3.9,5.243-7.714,10.66-11.342,16.096C264.919,284.992,264.679,285.111,264.433,285.111z"/>
	</g>
	
		<ellipse transform="matrix(-0.5895 0.8078 -0.8078 -0.5895 656.1732 197.5242)" style="fill:#1C2868;" cx="277.896" cy="265.496" rx="5.694" ry="15.227"/>
	<g>
		<path style="fill:#A1C3FC;" d="M278.481,265.419c-0.161,0-0.324-0.05-0.462-0.157c-0.335-0.254-0.401-0.731-0.145-1.066    c2.655-3.488,5.401-6.969,8.16-10.347c0.27-0.326,0.748-0.372,1.072-0.108c0.326,0.267,0.373,0.746,0.108,1.072    c-2.749,3.365-5.485,6.832-8.131,10.306C278.936,265.315,278.709,265.419,278.481,265.419z"/>
	</g>
</g>

      </g>
    </g>
</g>

<!-- ITEM 1 -->
<g>
    <defs>
        
        <clipPath id="clip-path-id-viewbox-item-1">
            <rect x="0.0" y="0.0" width="157.0" height="200.0"/>
        </clipPath>
    </defs>
    <g transform="translate(851.0 936.0) rotate(7.693985078955487 30.5 39.0) scale(0.3885350318471338 0.39)">
      <g clip-path="url(#clip-path-id-viewbox-item-1)" transform="translate(-0.0 -0.0)">
      
<path fill="#DBECFF" d="M76.416,47.676L35.565,6.686c-6.647,2.703-12.726,6.397-17.968,11.374l44.167,44.317  c2.478,2.486,2.478,6.515,0,9.001s-6.493,2.486-8.97,0L9.45,27.887c-4.109,6.338-6.873,13.462-8.327,21.049l36.57,36.694  c2.478,2.486,2.478,6.515,0,9.001c-2.478,2.486-6.493,2.486-8.97,0L0,65.811c1.076,21.472,11.232,44.574,29.844,63.25  c0.435,0.436,0.875,0.863,1.315,1.291c-3.095,4.408-5.994,8.967-8.602,13.723C15.238,157.415,7.345,177.947,11.302,200l6.243-1.128  c-3.628-20.218,3.745-39.29,10.569-51.729c2.353-4.29,4.969-8.431,7.768-12.457c17.468,15.145,38.132,23.631,57.36,24.684  L65.95,131.986c-2.478-2.486-2.478-6.515,0-9.001c2.478-2.486,6.493-2.486,8.97,0l35.17,35.29c7.55-1.47,14.597-4.295,20.796-8.536  l-40.866-41.005c-2.478-2.486-2.478-6.515,0-9.001c2.478-2.486,6.493-2.486,8.97,0l41.426,41.567  c4.69-5.365,8.133-11.726,10.628-18.739L113.643,85.03c-2.478-2.486-2.478-6.515,0-9.001c2.478-2.486,6.493-2.486,8.97,0  l32.148,32.257c1.567-8.671,2.173-17.886,2.238-27.158l-20.182-20.252c-2.478-2.486-2.478-6.515,0-9.001s6.493-2.486,8.97,0  l10.748,10.785c-1.328-25.929-4.756-49.683-0.656-60.066c-13.615,3.15-36.779-0.543-61.233-2.034l13.912,13.959  c2.478,2.486,2.478,6.515,0,9.001c-2.478,2.486-6.493,2.486-8.97,0L76.147,0c-9.175,0.069-18.24,0.76-26.767,2.546l36.007,36.129  c2.478,2.486,2.478,6.515,0,9.001C82.909,50.161,78.893,50.161,76.416,47.676z"/>

      </g>
    </g>
</g>

<!-- ITEM 2 -->
<g>
    <defs>
        
        <clipPath id="clip-path-id-viewbox-item-2">
            <rect x="0.0" y="0.0" width="60.0" height="98.0"/>
        </clipPath>
    </defs>
    <g transform="translate(668.0 854.0) rotate(340.55546042207067 82.0 134.0) scale(2.7333333333333334 2.7346938775510203)">
      <g clip-path="url(#clip-path-id-viewbox-item-2)" transform="translate(-0.0 -0.0)">
      
<g>
	<g>
		<path fill="#C4D9F8" d="M0.506,98c-0.058,0-0.115-0.01-0.172-0.03c-0.263-0.094-0.399-0.382-0.304-0.643    c1.953-5.335,3.783-10.824,5.553-16.132c3.657-10.971,7.439-22.314,12.52-32.937C26.965,29.73,38.487,16.636,52.347,9.336    c0.244-0.13,0.553-0.037,0.684,0.208c0.132,0.245,0.037,0.549-0.21,0.678C39.159,17.419,27.785,30.36,19.018,48.688    c-5.054,10.565-8.826,21.88-12.474,32.822C4.772,86.825,2.94,92.32,0.982,97.669C0.907,97.874,0.713,98,0.506,98z"/>
	</g>
	<g>
		<path fill="#C4D9F8" d="M45.805,34.323c-0.046,0-0.092-0.006-0.139-0.019l-15.824-4.441c-0.269-0.075-0.425-0.353-0.349-0.619    c0.076-0.266,0.353-0.423,0.626-0.346l15.824,4.441c0.269,0.075,0.425,0.353,0.349,0.619    C46.229,34.179,46.027,34.323,45.805,34.323z"/>
	</g>
	<g>
		<path fill="#C4D9F8" d="M48.086,30.826c-0.046,0-0.092-0.006-0.139-0.019l-15.567-4.369c-0.269-0.075-0.425-0.353-0.349-0.619    c0.076-0.266,0.354-0.425,0.626-0.346l15.567,4.369c0.269,0.075,0.425,0.353,0.349,0.619    C48.51,30.681,48.308,30.826,48.086,30.826z"/>
	</g>
	<g>
		<path fill="#C4D9F8" d="M50.368,27.328c-0.046,0-0.092-0.006-0.139-0.019l-14.48-4.064c-0.27-0.075-0.426-0.353-0.35-0.619    c0.076-0.266,0.358-0.423,0.625-0.346l14.482,4.064c0.269,0.075,0.425,0.353,0.349,0.619    C50.792,27.183,50.59,27.328,50.368,27.328z"/>
	</g>
	<g>
		<path fill="#C4D9F8" d="M52.649,23.831c-0.046,0-0.092-0.006-0.139-0.019l-13.517-3.793c-0.269-0.075-0.425-0.353-0.349-0.619    s0.353-0.425,0.626-0.346l13.517,3.793c0.269,0.075,0.425,0.353,0.349,0.619C53.073,23.686,52.871,23.831,52.649,23.831z"/>
	</g>
	<g>
		<path fill="#C4D9F8" d="M54.931,20.333c-0.046,0-0.092-0.006-0.139-0.019l-12.369-3.471c-0.269-0.075-0.425-0.353-0.349-0.619    c0.076-0.266,0.353-0.424,0.626-0.346l12.369,3.471c0.269,0.075,0.425,0.353,0.349,0.619    C55.355,20.189,55.153,20.333,54.931,20.333z"/>
	</g>
	<g>
		<path fill="#C4D9F8" d="M57.212,16.836c-0.046,0-0.092-0.006-0.139-0.019l-10.551-2.961c-0.27-0.075-0.426-0.353-0.35-0.619    c0.076-0.266,0.358-0.423,0.625-0.346l10.553,2.961c0.269,0.075,0.425,0.353,0.349,0.619    C57.636,16.691,57.434,16.836,57.212,16.836z"/>
	</g>
	<g>
		<path fill="#C4D9F8" d="M59.494,13.338c-0.046,0-0.092-0.006-0.139-0.019l-8.335-2.339c-0.269-0.075-0.425-0.353-0.349-0.619    c0.076-0.266,0.352-0.422,0.626-0.346l8.335,2.339c0.269,0.075,0.425,0.353,0.349,0.619    C59.918,13.194,59.716,13.338,59.494,13.338z"/>
	</g>
	<g>
		<path fill="#C4D9F8" d="M29.836,29.833c-0.226,0-0.431-0.15-0.49-0.376l-4.093-15.783c-0.069-0.269,0.094-0.542,0.364-0.611    c0.268-0.07,0.546,0.093,0.616,0.361l4.093,15.783c0.069,0.269-0.094,0.542-0.364,0.611C29.92,29.828,29.877,29.833,29.836,29.833    z"/>
	</g>
	<g>
		<path fill="#C4D9F8" d="M33.009,26.071c-0.226,0-0.431-0.15-0.49-0.376l-3.682-14.196c-0.069-0.269,0.094-0.542,0.364-0.611    c0.267-0.068,0.547,0.093,0.616,0.361l3.682,14.196c0.069,0.269-0.094,0.542-0.364,0.611    C33.093,26.066,33.051,26.071,33.009,26.071z"/>
	</g>
	<g>
		<path fill="#C4D9F8" d="M36.254,22.588c-0.226,0-0.431-0.15-0.49-0.376L32.421,9.324c-0.069-0.269,0.094-0.542,0.364-0.611    c0.268-0.069,0.546,0.093,0.616,0.361l3.343,12.888c0.069,0.269-0.094,0.542-0.364,0.611    C36.338,22.584,36.296,22.588,36.254,22.588z"/>
	</g>
	<g>
		<path fill="#C4D9F8" d="M39.534,19.24c-0.226,0-0.431-0.15-0.49-0.376L36.006,7.15c-0.069-0.269,0.094-0.542,0.364-0.611    c0.268-0.067,0.547,0.093,0.616,0.361l3.038,11.714c0.069,0.269-0.094,0.542-0.363,0.611C39.618,19.235,39.576,19.24,39.534,19.24    z"/>
	</g>
	<g>
		<path fill="#C4D9F8" d="M42.937,16.366c-0.226,0-0.431-0.15-0.49-0.376L39.59,4.976c-0.069-0.269,0.094-0.542,0.364-0.611    c0.268-0.069,0.546,0.092,0.616,0.361l2.857,11.014c0.069,0.269-0.094,0.542-0.363,0.611    C43.021,16.361,42.979,16.366,42.937,16.366z"/>
	</g>
	<g>
		<path fill="#C4D9F8" d="M46.394,13.703c-0.226,0-0.431-0.15-0.49-0.376L43.175,2.801c-0.069-0.269,0.094-0.542,0.364-0.611    c0.268-0.071,0.547,0.093,0.616,0.361l2.729,10.525c0.069,0.269-0.094,0.542-0.363,0.611    C46.478,13.698,46.437,13.703,46.394,13.703z"/>
	</g>
	<g>
		<path fill="#C4D9F8" d="M50.009,11.639c-0.226,0-0.431-0.15-0.49-0.376l-2.76-10.637c-0.069-0.269,0.094-0.542,0.364-0.611    c0.266-0.068,0.547,0.093,0.616,0.361l2.76,10.637c0.069,0.269-0.094,0.542-0.363,0.611C50.093,11.634,50.05,11.639,50.009,11.639    z"/>
	</g>
</g>

      </g>
    </g>
</g>

              </svg>