<?xml version="1.0" encoding="UTF-8"?><svg xmlns="http://www.w3.org/2000/svg" viewBox="0 0 250.762 168.323" x="0px" y="0px" width="251px" height="169px" version="1.1" xmlns:xlink="http://www.w3.org/1999/xlink"><title>handshake</title><g id="Layer_2" data-name="Layer 2"><g id="handshake"><path d="M191.08,84.119s-59.3-64.2-75.4-52.1c-16,12.1-43.6,42.2-63.9,74.6l89.4,43.3c3.1-3.4,6.4-7.3,9.8-11.5h0c7.8-9.2,26.8-18.9,47.3-19.5C202.58,94.919,191.08,84.119,191.08,84.119Z" fill="#00aee0"/><path d="M184.08,121.719Z" fill="#ffb400"/><path d="M197.98,119.719a13.75,13.75,0,0,0-.5,2.1C197.48,121.619,197.98,119.919,197.98,119.719Z" fill="#ffb400"/><path d="M197.48,121.719Z" fill="#ffb400"/><path d="M198.08,113.219a14.933,14.933,0,0,0-2.9-6.7,9.958,9.958,0,0,0-1-1.1,26.808,26.808,0,0,0-.7-2.7h0a12.272,12.272,0,0,0-1.2-2.6c-10.5-20.1-45.4-54.1-65.2-71l-2.6-2.6a32.362,32.362,0,0,0-9.4-6.7h0a2.524,2.524,0,0,0-.9-.4c-12.5-5.1-22.3,4.1-32.3,14.1-12.6,12.6-35.7,18-35.7,18h0a177.984,177.984,0,0,1-29.4-1.4c-1.9-.2-2.9-.5-4.9-.8h0c-4.2-.4-9.1,14.3-11.1,33-1.9,18.1-.2,33.3,3.7,34.5,2,.3,4,.6,5.9.8,3,.4,5.2.7,8.2,1,8.6.8,14.9.3,22.1.3a200.275,200.275,0,0,0,40.8-3.8c10.4,4.5,16.1,15.8,27.3,22.8h0c.1,0,.1.1.2.1l.6.3c19,11.6,31.2,12.3,35.3,12h1.7a9.474,9.474,0,0,0,2.9-.7,10.982,10.982,0,0,0,7-8.3,14.019,14.019,0,0,0-.2-6.1c1.1.5,2.2,1,3.3,1.4a22.288,22.288,0,0,0,6.2,1.4,9.918,9.918,0,0,0,10.1-8.8,8.1,8.1,0,0,0,0-2.2,16.429,16.429,0,0,0,9.1,2.7,13.388,13.388,0,0,0,13-10,7.017,7.017,0,0,0,.3-2.9A14.523,14.523,0,0,0,198.08,113.219Z" fill="#ffb400"/><path d="M172.38,118.919a14.843,14.843,0,0,1-2.8-1.7,12.065,12.065,0,0,1-2.4-2.1,12.065,12.065,0,0,1-2.1-2.4,10.315,10.315,0,0,1-1.4-3,.486.486,0,0,1,.3-.6h.3a9.563,9.563,0,0,1,3,1.6,11.994,11.994,0,0,1,2.3,2.2,24.334,24.334,0,0,1,2,2.5,13.5,13.5,0,0,1,1.6,2.9.517.517,0,0,1-.3.7A.749.749,0,0,1,172.38,118.919Z" fill="#04294f"/><path d="M153.98,134.019a14.843,14.843,0,0,1-2.8-1.7,23.971,23.971,0,0,1-4.5-4.5,10.315,10.315,0,0,1-1.4-3,.486.486,0,0,1,.3-.6h.3a9.563,9.563,0,0,1,3,1.6,11.994,11.994,0,0,1,2.3,2.2,24.334,24.334,0,0,1,2,2.5,13.5,13.5,0,0,1,1.6,2.9.517.517,0,0,1-.3.7A1.338,1.338,0,0,0,153.98,134.019Z" fill="#04294f"/><path d="M91.88,122.519c-4-3.9-8.3-7.3-13.8-8.7Z" fill="#00aee0"/><path d="M123.48,143.319Z" fill="#00aee0"/><path d="M125.68,142.919c1-.2,2-.5,2.9-.7l-1.2-1.5C126.78,141.519,126.28,142.219,125.68,142.919Z" fill="#00aee0"/><path d="M249.98,81.419c-1.9-18.7-6.9-33.4-11.1-33h0c-2,.3-3.9.6-5.7.8a195.6,195.6,0,0,1-35,1.5c-6.6-1.9-23-7.4-32.9-17.2-10.2-10.2-20.4-19.7-33.2-13.7h0c-.1,0-.1.1-.2.1a30.644,30.644,0,0,0-7,4.7c-20.9,15.1-28.6,32.2-20.1,41.4,9,9.8,30.5-2.6,42.2-19,18,17.2,37.9,38.6,45.4,53a12.272,12.272,0,0,1,1.2,2.6h0a6.89,6.89,0,0,0,.3.8,17.772,17.772,0,0,1,2.9,6.9,4.179,4.179,0,0,1,.4,1,35.81,35.81,0,0,1,1,6.3c0,.3.1.6.1.9,3,.1,6.1.2,9.4.2,7.2,0,15.2-.3,23.8-1.1,3-.3,6-.6,9-1,2-.2,4-.5,5.9-.8C250.18,114.719,251.88,99.619,249.98,81.419Z" fill="#00aee0"/><path d="M114.48,47.519c7.8,5.6-3.5,13.9-6.5,11.7C103.78,56.219,108.88,43.519,114.48,47.519Z" fill="#f04e23"/><path d="M49.08,119.719a15.985,15.985,0,0,1,.5,2.1C49.58,121.719,49.38,121.119,49.08,119.719Z" fill="#00aee0"/><path d="M49.58,121.719Z" fill="#00aee0"/><path d="M114.38,147.819Z" fill="#00aee0"/><path d="M140.58,132.619a12.724,12.724,0,0,0-10.5-4.4,17.363,17.363,0,0,0-5.5,1.1,13.986,13.986,0,0,0-.1-5.4,11.091,11.091,0,0,0-7.2-7.8,15.767,15.767,0,0,0-8.6.3,32.51,32.51,0,0,0,2-6,15.027,15.027,0,0,0,.4-5.6,9.232,9.232,0,0,0-2.5-4.9c-2.8-2.9-6.5-3.3-10.2-2.5a35.141,35.141,0,0,0-13.3,6.5,41.494,41.494,0,0,0-7.5,7.6,11.86,11.86,0,0,0-2.6-6.1,12.947,12.947,0,0,0-10.2-4.8,16.768,16.768,0,0,0-13,5.9,14.933,14.933,0,0,0-2.9,6.7,14.523,14.523,0,0,0-.2,3.6,9.55,9.55,0,0,0,.3,2.9,13.388,13.388,0,0,0,13,10,16.755,16.755,0,0,0,9.2-2.7c0,.4-.1.9-.1,1.3a9.9,9.9,0,0,0,9.2,9.7,17.579,17.579,0,0,0,6-1,36.565,36.565,0,0,0,4.6-1.8c-.3,1.7-.7,5.2-.4,5.2a10.224,10.224,0,0,0,.7,2.9,11.375,11.375,0,0,0,8.4,6.9c4.2.8,9.1-.8,12.7-2.8a18.758,18.758,0,0,0,1.8-1.2,9.2,9.2,0,0,0,.2,1.7,12.543,12.543,0,0,0,4.9,7.4,12.764,12.764,0,0,0,8.7,2.5,16.124,16.124,0,0,0,15.4-13.5C143.98,140.219,143.38,135.919,140.58,132.619Z" fill="#00aee0"/><path d="M90.58,140.719c0,.3.1.6.1.9A2.22,2.22,0,0,1,90.58,140.719Z" fill="#00aee0"/><path d="M90.48,140.419v.3C90.58,140.619,90.48,140.519,90.48,140.419Z" fill="#00aee0"/><path d="M90.48,140.319Z" fill="#00aee0"/><path d="M90.68,142.019v0Z" fill="#00aee0"/><path d="M90.68,141.619v0Z" fill="#00aee0"/><path d="M90.68,142.219c.1.7.1.5,0,0Z" fill="#00aee0"/><path d="M90.68,141.819v0Z" fill="#00aee0"/><path d="M104.18,104.819c4.4,4.1-1.6,16-9.1,8.5C88.18,106.419,99.38,100.219,104.18,104.819Z" fill="#f04e23"/><path d="M117.68,123.119c3.7,3.5-1.3,13.6-7.7,7.2C104.18,124.419,113.58,119.219,117.68,123.119Z" fill="#f04e23"/><path d="M136.08,135.619c3.7,3.5-1.3,13.6-7.7,7.2C122.58,137.019,131.98,131.819,136.08,135.619Z" fill="#f04e23"/><path d="M61.08,118.619c6,3.6,4.7,11-3.2,6.1C49.88,119.919,55.58,115.319,61.08,118.619Z" fill="#f04e23"/><path d="M144.88,138.719a11.569,11.569,0,0,0-1.2-4.4,12.615,12.615,0,0,0-2.7-3.7,12.821,12.821,0,0,0-8.2-3.6,17.131,17.131,0,0,0-6.4.9v-1a17.329,17.329,0,0,0-.3-3.2,13.426,13.426,0,0,0-1.2-3,11.455,11.455,0,0,0-4.5-4.5,11.069,11.069,0,0,0-6.1-1.5,12.7,12.7,0,0,0-3.4.5c.5-1.2.8-2.4,1.2-3.6a20.108,20.108,0,0,0,.8-5,12.193,12.193,0,0,0-1.3-5.3,10.915,10.915,0,0,0-3.7-4,11.038,11.038,0,0,0-5.1-1.7,14.306,14.306,0,0,0-5.1.6,25.423,25.423,0,0,0-4.6,1.7,33.652,33.652,0,0,0-8.1,5.1,54.208,54.208,0,0,0-6.3,6.4,13.074,13.074,0,0,0-2.9-5.6,16.932,16.932,0,0,0-3.2-2.7,13.982,13.982,0,0,0-3.8-1.6,18.406,18.406,0,0,0-4.1-.5,18.6,18.6,0,0,0-11,3.9,14.636,14.636,0,0,0-4.6,6.4,16.533,16.533,0,0,0-.8,7.6.458.458,0,0,0,.5.4.472.472,0,0,0,.5-.5,18.383,18.383,0,0,1,1.7-6.7,13.837,13.837,0,0,1,4.3-5,14.9,14.9,0,0,1,6.1-2.5,18.413,18.413,0,0,1,3.3-.3,11.236,11.236,0,0,1,3.2.4,11.667,11.667,0,0,1,5.4,3.3,11.785,11.785,0,0,1,2.8,5.7,16.825,16.825,0,0,1-.1,6.7,18.143,18.143,0,0,1-2.8,6.4h0a.446.446,0,0,0,0,.5c.1.2.4.2.6,0a15.425,15.425,0,0,0,4.3-6.3,17.141,17.141,0,0,0,.9-7.8c0-.2-.1-.4-.1-.6.1,0,.1-.1.2-.1h0c1.1-1.1,2.2-2.2,3.4-3.2a44.726,44.726,0,0,1,3.5-2.9,39.687,39.687,0,0,1,3.9-2.3,29.968,29.968,0,0,1,4.1-1.8c1.4-.5,2.8-.9,4.3-1.3a14.887,14.887,0,0,1,4.2-.3,7.453,7.453,0,0,1,3.6,1.3,7.878,7.878,0,0,1,2.5,2.9,8.081,8.081,0,0,1,.9,3.7,21.253,21.253,0,0,1-.6,4.2,29.245,29.245,0,0,1-1.3,4.2,30.5,30.5,0,0,1-1.9,4.1,45.367,45.367,0,0,1-11.6,13.9c-.2.1-.2.3-.1.5a.481.481,0,0,0,.6.2,34.961,34.961,0,0,0,7.8-5.6,35.96,35.96,0,0,0,6-7.5c.7-1.2,1.4-2.5,2-3.8a17.828,17.828,0,0,1,4,0,10.627,10.627,0,0,1,4.7,1.7,8.825,8.825,0,0,1,3.2,3.7,8.955,8.955,0,0,1,.8,2.3,10.145,10.145,0,0,1,.2,2.5,18.246,18.246,0,0,1-.9,5.1,23.737,23.737,0,0,1-2,5,33.969,33.969,0,0,1-6.5,8.8h0a.44.44,0,0,0-.1.5.481.481,0,0,0,.6.2,21.33,21.33,0,0,0,8.6-8,25,25,0,0,0,2.5-5.5,18.728,18.728,0,0,0,.8-3.4,18.4,18.4,0,0,1,6.2.1,13.765,13.765,0,0,1,3.4,1.2,14.635,14.635,0,0,1,2.8,2.1,12.892,12.892,0,0,1,3.3,6.2,27.947,27.947,0,0,1,.3,7.7.52.52,0,0,0,.2.4c.2.1.5.1.6-.1a13.965,13.965,0,0,0,1.6-4A23.972,23.972,0,0,0,144.88,138.719Z" fill="#04294f"/><path d="M86.98,130.519a9.206,9.206,0,0,1-2.4-1.3,16.319,16.319,0,0,1-2-1.7,10.04,10.04,0,0,1-1.6-2,5.894,5.894,0,0,1-1-2.6.548.548,0,0,1,.4-.6h.2a6.352,6.352,0,0,1,2.5,1.1,15.371,15.371,0,0,1,1.9,1.7,11.6,11.6,0,0,1,1.6,2.1,8.3,8.3,0,0,1,1.2,2.5.569.569,0,0,1-.4.7C87.18,130.619,87.08,130.619,86.98,130.519Z" fill="#04294f"/><path d="M79.98,132.819a3.339,3.339,0,0,1-1.5-.3,4.129,4.129,0,0,1-1.1-.7,3.592,3.592,0,0,1-.7-1,3.9,3.9,0,0,1-.1-1.6.9.9,0,0,1,.6-.6,3.9,3.9,0,0,1,1.6.1,3.592,3.592,0,0,1,1,.7,2.384,2.384,0,0,1,.6,1.1,6.052,6.052,0,0,1,.2,1.5C80.78,132.519,80.38,132.819,79.98,132.819Z" fill="#04294f"/><path d="M100.98,145.319a3.339,3.339,0,0,1-1.5-.3,4.129,4.129,0,0,1-1.1-.7,3.592,3.592,0,0,1-.7-1,3.9,3.9,0,0,1-.1-1.6.9.9,0,0,1,.6-.6,3.9,3.9,0,0,1,1.6.1,3.592,3.592,0,0,1,1,.7,2.384,2.384,0,0,1,.6,1.1,6.052,6.052,0,0,1,.2,1.5A.606.606,0,0,1,100.98,145.319Z" fill="#04294f"/><path d="M198.98,115.919a28.855,28.855,0,0,0-.4-2.9,35,35,0,0,0-1.7-5.5c-.7-1.8-1.5-3.5-2.3-5.2l-2.7-5a133.57,133.57,0,0,0-13-18.5c-4.8-5.8-9.8-11.5-14.9-16.9-4.9-5.2-10-10.3-15.1-15.3l4.2-9.6a.523.523,0,0,0-.9-.5h0l-6.2,9.2c-.2.1-.3.3-.4.4h0a50.9,50.9,0,0,1-7.7,9.1,59.92,59.92,0,0,1-9.3,7.5,33.973,33.973,0,0,1-10.6,4.9,15.327,15.327,0,0,1-5.6.4,10.957,10.957,0,0,1-7-3.7,10.707,10.707,0,0,1-1.5-2.2,11.422,11.422,0,0,1-.9-2.6,12.65,12.65,0,0,1-.3-2.8,22.565,22.565,0,0,1,.9-5.7,29.6,29.6,0,0,1,2.4-5.5,56.363,56.363,0,0,1,7-9.8,88.325,88.325,0,0,1,8.8-8.5h0c.2-.1.2-.4.1-.6s-.4-.2-.6-.1c-1.7,1.2-3.3,2.5-4.9,3.8-1.6,1.4-3.1,2.8-4.6,4.2a56.93,56.93,0,0,0-7.8,9.8,34.582,34.582,0,0,0-2.8,5.8,22.761,22.761,0,0,0-1.3,6.4,13.433,13.433,0,0,0,.3,3.4,14.219,14.219,0,0,0,1.1,3.3,13.158,13.158,0,0,0,1.9,2.9,10.865,10.865,0,0,0,2.5,2.3,13.818,13.818,0,0,0,6.4,2.6,18.815,18.815,0,0,0,6.7-.4,36.6,36.6,0,0,0,11.7-5.3,68.627,68.627,0,0,0,9.9-7.9,55.913,55.913,0,0,0,6.8-7.8c.1-.1.2-.1.3-.2,4.9,4.7,9.7,9.5,14.4,14.3,5.2,5.4,10.3,10.8,15.1,16.5a142.066,142.066,0,0,1,13.3,17.8l2.8,4.8c.9,1.6,1.8,3.3,2.5,4.9a45.566,45.566,0,0,1,1.8,5.2,25.578,25.578,0,0,1,.5,2.7,7.561,7.561,0,0,1,0,2.6v.1a.548.548,0,0,0,.4.6c.3.1.5-.1.6-.4A10.64,10.64,0,0,0,198.98,115.919Z" fill="#04294f"/><path d="M184.08,121.719Z" fill="#04294f"/><path d="M81.68,20.819a25.7,25.7,0,0,1,6.1-7.4,29.182,29.182,0,0,1,4-2.9,30.967,30.967,0,0,1,4.5-2.1,20.316,20.316,0,0,1,4.9-1,19.457,19.457,0,0,1,13.9,4.2c.2.1.2.4.1.6-.1.1-.3.2-.4.1h0a40.5,40.5,0,0,0-8.8-1.8,24.209,24.209,0,0,0-8.5,1,27.805,27.805,0,0,0-4,1.6,29.549,29.549,0,0,0-3.8,2.3,43.049,43.049,0,0,0-6.9,5.9h0a.483.483,0,0,1-.7,0C81.58,21.319,81.58,21.019,81.68,20.819Z" fill="#04294f"/><path d="M102.88.919a18.2,18.2,0,0,1,6.6-.9,21.638,21.638,0,0,1,6.6,1.4,18.356,18.356,0,0,1,5.7,3.8,16.675,16.675,0,0,1,3.7,5.5.481.481,0,0,1-.2.6c-.1.1-.3,0-.4-.1h0c-1.7-1.3-3.3-2.6-4.9-3.8a31.969,31.969,0,0,0-5.1-2.9,28.11,28.11,0,0,0-5.6-1.8,59.743,59.743,0,0,0-6.1-.8h0a.56.56,0,0,1-.5-.6C102.58,1.219,102.68,1.019,102.88.919Z" fill="#04294f"/><path d="M164.38,18.619a35.423,35.423,0,0,0,3.5,4.2,45.864,45.864,0,0,0,3.9,3.7c.7.6,1.4,1.2,2.1,1.7l1,.9a7.632,7.632,0,0,0,1.1.8,4.44,4.44,0,0,0,1.1.8c.4.3.7.6,1.1.9.7.6,1.5,1.1,2.2,1.8h0a.375.375,0,0,1,0,.6c-.1.1-.2.1-.4.1a18.355,18.355,0,0,1-5.6-1.8,20.785,20.785,0,0,1-4.8-3.4,20.688,20.688,0,0,1-3.8-4.6,15.506,15.506,0,0,1-2.2-5.5.548.548,0,0,1,.4-.6c.1.1.3.2.4.4Z" fill="#04294f"/><path d="M94.58,152.819a61.905,61.905,0,0,0,7.9,5.5l2.1,1.2c.7.4,1.4.7,2.1,1.1,1.4.6,2.9,1.3,4.4,1.9a59.24,59.24,0,0,0,9.1,2.7c1.5.4,3.1.6,4.7.9a19.67,19.67,0,0,0,2.4.3,20.024,20.024,0,0,1,2.4.4h0a.382.382,0,0,1,.3.5.319.319,0,0,1-.3.3,31.093,31.093,0,0,1-10.1.5,27.547,27.547,0,0,1-5-.9c-.8-.2-1.6-.5-2.4-.7l-1.2-.4-1.2-.5a36.068,36.068,0,0,1-8.8-4.9,29.917,29.917,0,0,1-7.1-7.1.494.494,0,0,1,.1-.7c.1-.3.4-.2.6-.1Z" fill="#04294f"/><path d="M159.88,150.619a57.823,57.823,0,0,0,7.2-3.1c2.3-1.2,4.6-2.4,6.8-3.8a71.665,71.665,0,0,0,6.3-4.5c1.1-.7,2-1.6,3.1-2.4a17.383,17.383,0,0,0,1.5-1.3c.5-.4,1-.8,1.6-1.2h0c.2-.1.5-.1.6.1a.3.3,0,0,1,0,.4,29.029,29.029,0,0,1-4.9,6.6,35.656,35.656,0,0,1-6.5,5.1l-1.8,1-1.9.9a25.017,25.017,0,0,1-3.8,1.5,27.745,27.745,0,0,1-8.1,1.6.472.472,0,0,1-.5-.5c0-.1.2-.3.4-.4Z" fill="#04294f"/><path d="M172.48,154.619a14.544,14.544,0,0,1,1.6-1.8,21.965,21.965,0,0,1,1.8-1.4,12.81,12.81,0,0,1,2-1.1,6.175,6.175,0,0,1,2.5-.5h0a.472.472,0,0,1,.5.5v.1a7.277,7.277,0,0,1-1.3,2.3,8.961,8.961,0,0,1-1.9,1.5,14.722,14.722,0,0,1-2.2,1,6.878,6.878,0,0,1-2.5.3.645.645,0,0,1-.6-.6c0-.1.1-.2.1-.3Z" fill="#04294f"/><path d="M139.28,28.319a4.929,4.929,0,0,0,1.4,1.9l.1.1a.43.43,0,0,0,.7-.2,5.1,5.1,0,0,0,.7-2.3,5.022,5.022,0,0,0-.2-2.1,11.688,11.688,0,0,0-.6-2,10.594,10.594,0,0,0-1.2-2l-.2-.2a.63.63,0,0,0-.8.3,9.826,9.826,0,0,0-.5,2.2,7.412,7.412,0,0,0,.1,2.1A4.767,4.767,0,0,0,139.28,28.319Z" fill="#04294f"/><path d="M130.88,29.019a2.836,2.836,0,0,0,.8,1.1,2.981,2.981,0,0,0,1.6.7.67.67,0,0,0,.7-.4,3.816,3.816,0,0,0,.3-1.7,2.947,2.947,0,0,0-.5-1.3,2.836,2.836,0,0,0-.9-1,4.678,4.678,0,0,0-1.4-.8h0a.715.715,0,0,0-.9.5,2.968,2.968,0,0,0-.1,1.6A4.951,4.951,0,0,0,130.88,29.019Z" fill="#04294f"/></g></g></svg>