<?xml version="1.0" encoding="UTF-8"?><svg version="1.1" id="Layer_1" xmlns="http://www.w3.org/2000/svg" xmlns:xlink="http://www.w3.org/1999/xlink" x="0px" y="0px" viewBox="0 0 732.7 1033.4" style="enable-background:new 0 0 732.7 1033.4;" xml:space="preserve" width="733px" height="1034px">

<title>signIn</title>
<g>
	<path d="M731.8,918c-2.2,16.6-5.4,34.9-1.9,52.5c2,10.5,0.5,20.3-11.7,22.8c-11.8,2.4-10.6,14-15.9,20.7
		c-12.9,16.5-31.6,12.7-46.4,13.1c-78,2.1-156.2,2.1-234.3,1.1c-41.2-0.6-82.3,1.6-123.5,1.1c-12.3-0.1-25,1.5-37.4-3.7
		c-7.1-3-15.7,6.1-23.1,2c-18.3-10-35.5,3.8-53.7,1.1c-18.6-2.8-37.9-0.6-56.8,0.1c-13.1,0.5-26,2.1-39.3-0.3
		c-10.2-1.8-20.4-2.6-30.9,3.2c-14.7,8.1-50.5-16.5-51.3-35c-0.9-20.6-4.9-40.7-1.2-62c3.1-17.9-0.4-37-1.8-55.6
		c-0.4-4.9,0-7.8,4.1-10.4c1.6-1.1,5.7-2.8,3-5c-17.8-14.2-0.9-30.8-3.6-46c-0.1-0.4,0.8-1,0.9-1.5c1.3-11.6-1.6-23.3-1.6-34.7
		c0-12.5,3.3-26.6,0.8-37.5c-5.9-26.3-2.9-53.1-2.1-78.1c1.1-37.4,0-74.8-0.1-112.1c-0.1-25.9,0.3-51.7,1.6-77.5
		c0.3-7-2.1-12.6-5.4-18.2c6.9-20.1,1.6-41.6,6-61.2c3.9-17.5-3.5-32.4-2.6-49c1.5-26.9,4.5-53.9,3-81.1
		c-0.6-11.3-2.3-24.1,5.4-34.6c0.5,1.7,1.5,2.7,3.2,1.5c0.2-0.1-0.9-2.2-1.5-3.4c0.5-7.3-5.4-9.7-9.9-13.2
		c9.4-12.2-3.2-28.6,7.5-40.3c5.8-6.4,10.1-11-2.2-14.8c-3.8-1.2-5.6-37.7-1.8-40.1c9.5-5.8,3.4-10.1,0.2-15.7
		c-2.4-4.1-8.2-9-3.4-13.9c3.8-3.9,9.6-9,15.5-6.2c8.8,4.2,13.1-0.1,17.6-6.2c2-3.1,5.6-4.6,9.2-3.9c33.7,5.3,67.3,0.4,101.1-0.3
		c23.8-0.5,47.9-1.9,71.9-1.4c3.6,11.1,12.3,8.2,20.4,7.6c25.8-1.9,25.8-1.8,30.2,25c-15.6,1.4-31.2,1.9-46.7-0.1
		c-3.6,11.5-12.8,5.5-17.2,3c-7.6-4.3-16.1-4.3-21.9-2c-20.5,8.4-41.2-0.6-62.1,2.3c-18.7,2.6-33.6,7-47.1,19
		c-3.3-2-6.4-6.7-10.8-3.4c-4.1,3.1,0.6,6.2,1.1,9.4c0.5,3.4-0.3,7-0.1,10.5C66.1,174,62.4,202,60,230c-0.8,8.7,7,12.8,5.4,21.2
		c-5.9,31.5,0.5,63.5-2.1,95.3c-1.6,19.3,5.3,40,0.6,58.2c-5.9,23,0,45.6-2.9,68.3c-1.2,9.1,0.7,20.4-1.8,30.7
		c-2.4,10,9.5,17.3,6,27.1c-7.8,21.9,1.1,44-2.1,66.1c-4.1,28.4-1.6,57.2,0.7,85.7c3.2,38.8-2.6,77.6-0.6,116.4
		c1.7,34.2,0.8,68.6,1.6,102.9c0.5,21.9-1.3,43.8-5.2,65.4c-1.2,6.9,3.4,7.9,8.8,7.6c14.8-0.7,29.7-1.1,44.4-1.9
		c32.1-1.6,64.6,1.4,96.7,4.1c7.4,0.6,14.1,2.3,21.5,0.2c10.9-3.1,22-4.5,33,0.1c3.5,1.4,7.5,1.3,9.9-1.7c5.8-7.3,12.1-4.9,19.3-2.8
		c7.5,2.3,18.1,7.3,22.4,4.3c11.2-8,22.8-6.6,33.7-4.7c20.3,3.6,41.3,10,60.7,4.1c17.1-5.1,33.3-0.4,50.1-3.3
		c18.8-3.3,39.6-2.5,58.8-0.8c43.4,4,87.1-5.5,130,4.9c5.3,2.5,10.5,5.4,16,7.5c17,6.3,20.4,2.1,22.6-16.2c1.8-15.3-2.1-29.9-1.6-45
		c1.8-48.2,2-96.6,0.5-144.8c-0.6-20.1,0.8-40.5-0.3-60.7c-1-19,3.1-40.6,1.9-60.3c-1.9-33.5,2.9-67.1-1.7-100.1
		c-2.5-17.7,13.5-37.3-5.3-53c0.9-1,2.5-1.9,2.8-3c4.3-18.9,9.6-38.3,5-57.3c-5.3-22-5-44.6-3-65.8c3.1-33.9,0.5-67.8,2.3-101.6
		c2-38.3-0.9-77.6-1.4-116.5c0-3.4,0.2-8.5-1.8-10c-12.8-9.4-9.7-23-8-34.7c1.3-9.1-1.1-7.4-7.6-8c-34.2-3.1-68.1,3.4-102.7,0.1
		c-28.6-2.7-58,1.2-87-1.7c5.3-10.6-1.9-21.4,0.5-32c22.9,0.4,45.7,7.8,68.9,0.9c4.9-1.4,12.1-2.5,15.4,0c12.9,9.8,23.8,0.8,35.4-2
		c29.1,0.9,58.3,3.4,87.3-1.5c10-1.7,19.5,6.1,29.6,0.6c0.3-0.2,5.2,5.1,5.5,8.1c2.9,30.8,8.9,61.1,6.1,92.9
		c-1.6,18.4-2,38.3-1.9,57.5c0.1,12.8-0.4,27.4,0.6,39.3c1.5,17.7-1.5,35,0.1,52.2c2.5,26.3,0.9,52.4,0.9,78.6
		c0,25.3-5.3,50.3-1.9,75.7c3.3,23.5,3.6,47.2,1.1,70.8c-1.2,10.7-1.1,21.1,1.8,31.8c1.7,6.1,3,14.2,0.3,19.1
		c-12.1,22.3,7.2,44.2-1.9,66.2c-4.2,5.1-5.8-4.1-10.5-2.8c-0.1,0.3-1.3,1.9-0.9,2.3c18.9,24.8,10.9,53,12,80.5
		c0.8,20-0.2,40.5,3.3,60.1c1.9,10.2,1.8,20.6-0.3,30.7C724.9,863.4,735.4,890.2,731.8,918z" style="fill:#E56368;"/>
	<path d="M479.7,106.6c-1.8,18.8-11.3,36.3-9.6,55.7c-21.7,13-21.1,18.5-42.6-2.6c-1.1,25.6-18.6,22.9-35.3,21.6
		c-2.3-4-4.8-7.8-6.6-12c-1.4-3.1,3.3-9.4-3.4-9.4c-6.1,0-5,6.6-6.2,10.8c-9,8.8-19,13.8-32.5,12c-14.1-1.8-19.7-11.7-24.2-23.8
		c-17.4,24-28.2,24-42.5,1.6c-2.4-17.8-4.8-35.6-7.1-53.4c-4.4-26.8-4.4-26.9-30.2-25c-8.1,0.6-16.8,3.5-20.4-7.6
		c16-29.9,39-53.1,71.3-63.3C305.5,6.3,321,0.3,338,0.7c12.6,0.3,25.1-3.8,36.3,5.6c1.8,1.5,4.9,1.4,7.6,0.1
		c0.5-0.2,1.1-0.5,1.6-0.9l0.8-0.5c0.8-0.7,1.6-1.4,2.4-2.1c0.7-0.5,1.5-1,2.3-1.4c0.4-0.2,0.7-0.4,1.1-0.5c0.4-0.1,0.8-0.3,1.2-0.4
		c0.3-0.1,0.6-0.1,0.9-0.1c0.3,0,0.6-0.1,0.9-0.1c1.1,0,2.3,0.3,3.3,0.8c0.8,0.4,1.5,0.9,2.2,1.5c0.3,0.2,0.5,0.4,0.7,0.6
		c2,2,3.7,4.4,5.1,6.9c6-6,10.9,0.8,16.3,1.5c5.3-2.3,9.5-0.5,13.2,3.4c0.9,0.5,1.5,1.4,1.8,2.3c1,0.3,1.4,0.9,1.1,1.8
		c2,0.5,4,1,6,1.6c1.5,0.7,3,1.4,4.5,2.1c19.1,12,24.5,32.8,33.1,51.6C477.8,85.2,485,96,479.7,106.6z" style="fill:#F1BB05;"/>
	<path d="M627.7,902.8c1.6-16.2-9.3-35.4,8.5-49.2c0.6-0.4-1.7-5.3-3.4-7.6c-4.5-6.2-6.3-13.4-4.9-20.3
		c5.9-29.7-1.1-59.6,0.2-89.5c1.3-29.4,8.6-60-0.6-89.6c-0.4-1.1-0.4-2.3,0-3.4c11.4-21.1-1.5-42.8,1.8-63.7
		c3.9-24.6-8.3-50.4,6.4-74c1-1.6,1.3-5.6,0.1-6.6c-19.3-16.6-3.8-35.6-3.9-53.4c0-2.9,1.9-6.1,1.1-8.5c-9.4-30.4-4.4-62.2-4.4-92.6
		c-0.1-23.6-4.7-48.4,2.1-72.6c2.4-8.8-4.8-18.9-2.7-29.8c1.5-7.8-5.3-17.3,6.3-22.5c0.7-0.3,1.1-3.9,0.3-4.7
		c-12.1-13.1-6.6-29.2-7.6-44c-0.6-9.9-5.3-11-13.7-11.2c-28.2-0.6-56.2,3.9-84.1,3.2c-19.8-0.5-39.4-4-59.2-0.6
		c-21.7,13-21.1,18.5-42.6-2.6c-1.1,25.6-18.6,22.9-35.3,21.6c-9,2-9.5-9-16.3-10.5c-9,8.8-19,13.8-32.5,12
		c-14.1-1.8-19.7-11.7-24.2-23.8c-17.4,24-28.2,24-42.5,1.6c-43.6-0.8-87.2-0.6-130.7-1.1c-21.2-0.3-43.8-10-65.1,2
		c-5.1,2.9-6.2-2-7.8-6.3c-3.5-9.1-0.3-17.3,1.5-25.8c-3.3-2-6.4-6.7-10.8-3.4c-4.1,3.1,0.6,6.2,1.1,9.4c0.5,3.4-0.3,7-0.1,10.5
		c1.2,28.3-2.5,56.3-4.9,84.3c-0.8,8.7,7,12.8,5.4,21.2c-5.9,31.5,0.5,63.5-2.1,95.3c-1.6,19.3,5.3,40,0.6,58.2
		c-5.9,23,0,45.6-2.9,68.3c-1.2,9.1,0.7,20.4-1.8,30.7c-2.4,10,9.5,17.3,6,27.1c-7.8,21.9,1.1,44-2.1,66.1
		c-4.1,28.4-1.6,57.2,0.7,85.7c3.2,38.8-2.6,77.6-0.6,116.4c1.7,34.2,0.8,68.6,1.6,102.9c0.5,21.9-1.3,43.8-5.2,65.4
		c-1.2,6.9,3.4,7.9,8.8,7.6c14.8-0.7,29.7-1.1,44.4-1.9c32.1-1.6,64.6,1.4,96.7,4.1c7.4,0.6,14.1,2.3,21.5,0.2
		c10.9-3.1,22-4.5,33,0.1c3.5,1.4,7.5,1.3,9.9-1.7c5.8-7.3,12.1-4.9,19.3-2.8c7.5,2.3,18.1,7.3,22.4,4.3c11.2-8,22.8-6.6,33.7-4.7
		c20.3,3.6,41.3,10,60.7,4.1c17.1-5.1,33.3-0.4,50.1-3.3c18.8-3.3,39.6-2.5,58.8-0.8c43.4,4,87.1-5.5,130,4.9
		C621.8,958.5,625,929.7,627.7,902.8z M158.6,253.2c7.5-7.8,17-6.8,26.6-6.4c29.9,1,59.9,2.6,89.8,1.9c16.4-0.4,33,5.2,49.3-0.7
		c1.2-0.4,3,1,4.5,1.5c-0.8,2.1-1.4,5.9-2.3,5.9c-14,1.1-24.3,15.3-40.1,10c-41.3,2.8-83.1,1-124.8,0c-2.4-0.1-4.9,0.9-5.5-2.3
		C155.2,259.7,156.1,255.9,158.6,253.2L158.6,253.2z M201.7,624.2c21.5-4.2,43.3-2.2,65-2.4c33.7-0.3,67.4-0.8,101.1-0.9
		c6.4,0,13.1-0.9,19.2,2.3c1.5-0.3,2.9-0.6,4.4-0.9c2.7-0.6,5.5-1.2,8.2-1.6c0.4-0.1,0.8-0.1,1.2-0.2c1.2-0.2,2.5-0.3,3.8-0.3
		c10.4-0.4,16.1,3.3,15.5,15.7c-1,21.8-1.3,43.8,0.3,65.6c0.8,11.2-11.5,14-11.4,22c0.2,17.5-11.9,6.9-17,7.5
		c-55.6,6.2-111.3-0.8-167.1,2c-22,1.1-45,0.9-67.2-2c-12.3-1.6-22.2-6.1-20.5-24c2.1-23.3-0.3-47.1-1.5-70.6
		c-0.5-9.3,0.5-12.5,11.9-13.3C165.8,621.7,183.7,618.9,201.7,624.2L201.7,624.2z M176.7,591.5c19.8-3.6,40-3.7,59.8-0.3
		c13.1,2.3,25.1,1.4,37.9,0c16.9-1.8,34.1-0.4,51.9-0.4c-4.8,14.3-12.6,19-26.1,18.8c-40.7-0.9-81.4,0-122.1-0.4
		c-5.1,0-13.4,3.4-15.1-4.9C161.1,594.5,170.2,592.7,176.7,591.5L176.7,591.5z M312.1,757.6c-1.7,9.1-8.2,10.6-18.4,9.1
		c-3.6-0.8-12.3,0.4-10-9.9c3-13.3,14.8-2,21.7-6.6C308.8,748.1,313.2,752.3,312.1,757.6L312.1,757.6z M276.6,760.6
		c0,8.1-7.4,5.8-12.3,6.3c-12.9,1.4-25.8,2.4-38.7,3.6c-18.3-0.3-36.3-6-54.8-3c-3.8,0.6-7.3-1.1-7.7-5.4c-0.6-5,2.6-7.9,7.2-8.4
		c23.2-2.8,46.5-4.9,69.8-3.5c7.7,0.4,15,0.9,22.7,0C269.9,749.4,276.6,752.5,276.6,760.6L276.6,760.6z M569.8,824.7
		c0,14.2-1,28.4-0.2,42.7c1,17.3-15.5,28.4-32.5,26.9c-13-1.1-26.7,0.7-39.6,1.6c-42.5,3.1-85.4,2.7-127.3,0.8
		c-70.6-3.3-140.9,3.6-211.3-1.2c-16-1.1-21.6-9.8-21.2-27c0.6-22.4-0.5-44.9-2.1-67.3c-0.8-10.8,1.5-12.3,12.8-14.2
		c25.6-4.2,51,1,69.9-1c26.6,0,47-2,67,0.4c38.7,4.9,77.2-4.8,115.6-0.6c44.7,4.8,89.4-5.5,134.2,1.6c10.9,1.7,25.6-9.8,32.6,2.4
		C572.8,799.1,569.7,813,569.8,824.7L569.8,824.7z M568.6,710.1c-0.8,6-5.1,7-10,7.2c-0.6,1.1-1.2,2.3-1.8,3.4
		c10.4,21.1-8.6,6.6-12.5,10.3c-24.4,4.1-49,6.4-73.1,0.1c-12.3-3.1-22.1-7.3-18.5-26.7c3.9-20.8-0.4-43.2-2.4-64.9
		c-1-11.5,0.1-15.7,13.9-16.6c24.5-1.6,48.8-7.2,72.9,2.1c6.2-3.9,12.9-5,20.1-4.7c8.3,0.4,13.1,3.4,12.7,12.8
		c-0.9,21-1.5,42-2.2,63l0,0C570.1,700.5,570.4,705.6,568.6,710.1z M569.8,502c0,14.8-1.4,29.6-0.2,44.5c1,12.6-20.1,26.7-32.7,26.3
		c-13.1-0.3-26.7,0.8-39.6,1.7c-42.5,3.2-85.4,2.8-127.3,0.8c-69.4-3.3-138.6,3.7-207.8-1.2c-19.5-1.4-25-8-24.4-27.2
		c0.7-21.8-0.4-43.7-2-65.5c-0.8-10.8-0.3-14,12.9-15.8c25.6-3.6,50.9,1,69.2-0.8c26.8,0,46.6-1.9,66,0.4
		c39.3,4.6,78.3-4.6,117.4-0.6c44.7,4.5,89.5-5.6,134.2,1.6c10.7,1.8,25.2-9.7,32.4,2.7C572.7,477.6,569.9,490.9,569.8,502
		L569.8,502z M279.9,442.4c-7.4,0.6-14.7,1.3-22.1,1.9c-2.8,0.3-5.6,0.5-8.4,0.7c-1.6,0.1-3.1,0.2-4.7,0.3c-1.6,0.1-3.1,0.2-4.7,0.3
		c-2.2,0.1-4.5,0.3-6.7,0.3c-4.3,0.1-8.5,0.2-12.8,0c-3.1-0.1-6.1-0.3-9.2-0.5c-2-0.2-4.1-0.4-6.1-0.7c-1-0.1-2.1-0.3-3.1-0.5
		c-9.9-1.6-18.5,2.8-27.7,0.7c-4.6-1-11.7,2.8-11.9-6c-0.2-7.3,4.2-9.9,11.3-10.6c22.3-2.5,44.4-0.4,66.6-0.1
		c24.6,0.3,49.2-0.2,73.8,0.4c4.5,0.1,13.6-5,13.4,5.1c-0.2,8-6.6,12.3-15,11.7c-10.9-0.8-21.7-1.8-32.6-2.8l0.1-0.1L279.9,442.4z
		 M569.3,331.3c1.9,15.8-2.8,32.1,0.9,47.9c2.6,11.3-12.9,11.4-11.8,23.7c0.5,6.3-14.8,0.6-22,2c-13.6,2.6-26.9,0.4-39.8,1.6
		c-29,2.6-57.8-0.3-86.6,0.3c-61.5,1.4-123-2.6-184.7,1.2c-22.6,1.4-46.1,0-69.1-1.6c-13.9-1-19-10.9-18.5-26.1
		c0.6-21.8-0.3-43.7-1.9-65.5c-0.8-11.3-0.2-15.1,13.6-17c25.1-3.4,49.8,1.2,67.6-0.6c26.5,0,46.3-1.9,65.7,0.4
		c39.9,4.6,79.6-4.6,119.1-0.6c44.7,4.6,89.4-5.6,134.2,1.6c10.2,1.6,23.2-8.4,31.7,1.6C574.6,308.3,568.1,320.7,569.3,331.3
		L569.3,331.3z" style="fill:#FBFCFD;"/>
	<path d="M681,505.2c0.9-1,2.5-1.9,2.8-3c4.3-18.9,9.6-38.3,5-57.3c-5.3-22-5-44.6-3-65.8c3.1-33.9,0.5-67.8,2.3-101.6
		c2-38.3-0.9-77.6-1.4-116.5c0-3.4,0.2-8.5-1.8-10c-12.8-9.4-9.7-23-8-34.7c1.3-9.1-1.1-7.4-7.6-8c-34.2-3.1-68.1,3.4-102.7,0.1
		c-28.6-2.7-58,1.2-87-1.7c-1.8,18.8-11.3,36.3-9.6,55.7c19.8-3.4,39.5,0.1,59.2,0.6c28,0.8,56-3.8,84.1-3.2
		c8.4,0.2,13.1,1.3,13.7,11.2c0.9,14.8-4.5,31,7.6,44c0.8,0.8,0.4,4.4-0.3,4.7c-11.6,5.2-4.8,14.7-6.3,22.5
		c-2.1,10.9,5.1,21.1,2.7,29.8c-6.8,24.2-2.2,49-2.1,72.6c0,30.4-5,62.2,4.4,92.6c0.8,2.5-1.1,5.7-1.1,8.5
		c0.1,17.8-15.5,36.8,3.9,53.4c1.1,1,0.9,5-0.1,6.6c-14.7,23.5-2.5,49.3-6.4,74c-3.3,20.8,9.5,42.6-1.8,63.7c-0.4,1.1-0.4,2.3,0,3.4
		c9.2,29.7,1.9,60.2,0.6,89.6c-1.3,29.9,5.7,59.7-0.2,89.5c-1.4,6.9,0.4,14.1,4.9,20.3c1.6,2.3,3.9,7.1,3.4,7.6
		c-17.8,13.8-6.8,33-8.5,49.2c-2.7,26.8-5.9,55.6,21.1,74.9c5.3,2.5,10.5,5.4,16,7.5c17,6.3,20.4,2.1,22.6-16.2
		c1.8-15.3-2.1-29.9-1.6-45c1.8-48.2,2-96.6,0.5-144.8c-0.6-20.1,0.8-40.5-0.3-60.7c-1-19,3.1-40.6,1.9-60.3
		c-1.9-33.5,2.9-67.1-1.7-100.1C683.9,540.5,699.8,520.9,681,505.2z M645.5,619.6l0.1-0.9l1,0.6L645.5,619.6z" style="fill:#57B6C9;"/>
	<path d="M276.8,160.5c-43.6-0.8-87.2-0.6-130.7-1.1c-21.2-0.3-43.8-10-65.1,2c-5.1,2.9-6.2-2-7.8-6.3
		c-3.5-9.1-0.3-17.3,1.5-25.8c13.5-12,28.3-16.4,47.1-19c20.9-2.9,41.6,6,62.1-2.3c5.8-2.3,14.3-2.3,21.9,2c4.4,2.5,13.6,8.5,17.2-3
		c15.6,2,31.1,1.5,46.7,0.1C272.1,125,274.4,142.7,276.8,160.5z" style="fill:#57B6C9;"/>
	<path d="M218.3,786.2c26.6,0,47.1-2.1,67,0.4c38.7,4.8,77.2-4.8,115.6-0.6c44.7,4.8,89.4-5.5,134.2,1.6
		c10.9,1.7,25.6-9.8,32.6,2.4c5.2,9,2.1,23,2.2,34.8c0,14.2-1,28.4-0.2,42.7c1,17.3-15.5,28.4-32.5,26.9c-13-1.1-26.7,0.7-39.6,1.7
		c-42.5,3.1-85.4,2.7-127.3,0.8c-70.6-3.3-140.9,3.6-211.3-1.2c-16-1.1-21.6-9.8-21.2-27c0.6-22.4-0.5-44.9-2.1-67.3
		c-0.8-10.8,1.5-12.3,12.8-14.2C174,783,199.3,788.2,218.3,786.2z M511.8,878.8c40.2-0.4,40.3-0.4,40.5-40.5
		c0.1-7.7-1.1-15.5-0.5-23.2c0.7-9.2-2.2-11.8-11.8-12c-41.2-1.2-82.2,2.3-123.6-2.2c-35.4-3.9-71.8,2.4-107.8,1.9
		c-42.6-0.5-85.2,2.2-127.8-1.8c-10.7-1-24.7-0.4-24.3,18.9c0.3,14.7,0.8,29.6,0,44.1s5.4,17.4,16.2,15.7
		c28.2-4.3,56.5-1.5,84.3,0.2c43.6,2.6,87.1-0.3,130.6,0.9C428.8,881.9,470.4,879.6,511.8,878.8L511.8,878.8z" style="fill:#68C6D5;"/>
	<path d="M217,297.1c26.5,0,46.3-1.9,65.7,0.4c39.9,4.6,79.5-4.7,119.1-0.7c44.7,4.5,89.4-5.6,134.2,1.6
		c10.2,1.6,23.2-8.4,31.7,1.7c6.9,8.3,0.4,20.6,1.6,31.3c1.8,15.8-2.8,32.2,0.8,47.9c2.6,11.3-12.9,11.4-11.8,23.7
		c0.6,6.3-14.8,0.6-22,2.1c-13.6,2.6-26.9,0.4-39.8,1.6c-29,2.7-57.8-0.3-86.6,0.3c-61.5,1.3-123-2.6-184.7,1.2
		c-22.6,1.4-46.1,0-69.1-1.7c-13.9-1-19-10.9-18.5-26.2c0.5-21.8-0.1-43.7-1.8-65.5c-0.8-11.3-0.2-15.1,13.6-17
		C174.5,294.3,199.2,298.9,217,297.1z M510.7,389.3c8.9,0,17.8-0.5,26.6,0.1c10.7,0.8,15.1-3.2,14.7-14.2
		c-0.6-16.6-0.9-33.3-0.2-49.8c0.4-10-3.2-12.8-12.3-11c-3.3,0.7-6.8,1.8-10,1.3c-37.9-5.6-76,0.3-114.3-3.4
		c-37.7-3.7-76.5,2.9-114.8,1.6c-40.2-1.4-80.3,2.2-120.6-2.1c-9.8-1-23.2-0.3-23.3,18.1c-0.1,15.3,0.9,30.7-0.1,45.8
		c-0.9,13.5,5.7,16.8,15.3,15c27-5.1,54.3-2.1,80.7-0.2c45.4,3.3,90.6-0.4,135.9,1C428.9,392.8,469.9,390.9,510.7,389.3L510.7,389.3
		z" style="fill:#68C6D5;"/>
	<path d="M217.9,464.9c26.7,0,46.6-1.8,65.9,0.4c39.3,4.6,78.4-4.6,117.4-0.7c44.7,4.5,89.5-5.6,134.2,1.7
		c10.7,1.7,25.2-9.7,32.4,2.7c4.9,8.6,2,21.8,2,33c0,14.8-1.4,29.6-0.2,44.5c1,12.6-20.1,26.7-32.7,26.3
		c-13.1-0.3-26.7,0.8-39.6,1.7c-42.5,3.2-85.4,2.8-127.3,0.8c-69.4-3.3-138.6,3.7-207.8-1.2c-19.5-1.4-25-8-24.4-27.2
		c0.7-21.8-0.4-43.7-2-65.5c-0.8-10.8-0.3-14,12.9-15.8C174.4,462.1,199.7,466.7,217.9,464.9z M511.5,557.1c8.3,0,16.7-0.6,24.9,0.1
		c11.5,1,16.2-3.2,15.6-15c-0.7-16-1-32.1-0.2-48.1c0.6-10.9-4-11.8-13.4-12.3c-40.6-1.8-81,2-121.9-2.1
		c-35.3-3.5-71.8,2.9-107.8,1.9c-42.6-1.2-85.2,2-127.8-1.9c-10.8-1-24.8-0.8-24.5,18.6c0.2,14.7,0.8,29.6,0,44.1
		c-0.8,15.7,5.6,16.9,17.6,15.8c43.3-3.9,86.6,3.1,129.9,0.9c12.8-0.7,26.4-4.4,38.2-1.3c15.9,4.2,31.8,2.5,46.8,1.8
		C429.9,557.6,470.7,559.1,511.5,557.1z" style="fill:#68C6D5;"/>
	<path d="M387,623.3c5.8-1,11.6-2.8,17.4-3c10.4-0.4,16.1,3.3,15.5,15.7c-1.2,21.8-1.1,43.7,0.3,65.5
		c0.8,11.2-11.5,14-11.4,22c0.2,17.6-11.9,6.9-17,7.5c-55.6,6.2-111.3-0.8-167.1,2c-22,1.1-44.9,0.9-67.2-2
		c-12.3-1.6-22.2-6.1-20.5-24c2.1-23.3-0.3-47.1-1.5-70.6c-0.5-9.3,0.5-12.5,11.9-13.3c18.3-1.3,36.2-4.2,54.3,1.2
		c0,4.6,0,9.2-0.1,13.7c-5.8,1.4-11.8,1.3-17.5-0.2c-16.4-3.9-24.6,1.8-27.1,17.8c-2.4,15.3,0.1,30.8-0.9,46
		c-0.8,12.8,5.7,15.8,14.2,14.3c28.8-5.1,57.6,0.3,86.4-1c43.6-2,87.4-0.8,131.2-0.5c9.5,0.1,14.4-2.5,14.1-12.9
		c-0.5-16-1-32.2,0.1-48.1c0.8-12.1-3.7-16.1-14.9-14.7L387,623.3z" style="fill:#68C6D5;"/>
	<path d="M558.6,717.3l-1.8,3.4c-7,0-11.8,2.7-12.5,10.3c-24.4,4.1-49,6.4-73.1,0.2c-12.3-3.2-22.1-7.3-18.5-26.7
		c3.9-20.8-0.4-43.3-2.3-64.9c-1.1-11.5,0.1-15.7,13.9-16.6c24.5-1.6,48.8-7.2,72.9,2.2c0,4.5,0,9,0,13.4
		c-22.2,5.7-44.6,1.5-67.5,0.7c0,20.2,0.8,40.1-0.3,60c-0.7,12.4,4.2,15.1,15.3,14.6c15.3-0.7,31.6-3.2,45.6,1
		c17.2,5.2,21.5-0.8,22.8-15.3l14.6-3.4c2.4,4.3,2.7,9.3,0.8,13.9C563.6,710.2,558.7,710.5,558.6,717.3z" style="fill:#57B6C9;"/>
	<path d="M201.7,638c0-4.6,0-9.2,0.1-13.7c21.5-4.2,43.3-2.2,65-2.4c33.7-0.3,67.4-0.7,101.1-0.9
		c6.4,0,13.1-0.9,19.2,2.3c0.1,5.1,0.1,10.2,0.2,15.3c-47.7,0.4-95.4,2.6-143-1c-7.2-3-14.5-12.5-21.3,0.5L201.7,638z" style="fill:#57B6C9;"/>
	<path d="M326.4,590.8c-4.8,14.3-12.6,19-26.1,18.7c-40.7-0.9-81.4,0-122.1-0.4c-5.1,0-13.4,3.3-15.1-4.9
		c-2-9.9,7.2-11.6,13.7-12.8c19.8-3.6,40-3.7,59.8-0.3c13.1,2.3,25.1,1.4,37.9,0C291.4,589.5,308.6,590.8,326.4,590.8z" style="fill:#68C6D5;"/>
	<path d="M286.4,265.4c-41.3,2.8-83.1,1-124.8,0c-2.4-0.1-4.9,0.9-5.5-2.3c-0.7-3.6-0.2-7.1,2.6-9.9
		c7.5-7.8,17-6.8,26.6-6.4c29.9,1,59.9,2.7,89.8,2c16.4-0.4,33,5.2,49.4-0.7c1.2-0.4,3,1,4.5,1.5c-0.8,2.1-1.4,5.9-2.3,5.9
		C312.6,256.5,302.2,270.8,286.4,265.4z" style="fill:#68C6D5;"/>
	<path d="M280.1,442.4c-26,2-52.3,6-78,1.9c-9.9-1.6-18.5,2.8-27.7,0.7c-4.6-1.1-11.7,2.8-11.9-6
		c-0.2-7.3,4.2-9.9,11.3-10.7c22.2-2.5,44.4-0.3,66.6-0.1c24.6,0.3,49.2-0.2,73.8,0.4c4.6,0.1,13.6-5.1,13.4,5.1
		c-0.2,8-6.6,12.3-15,11.7c-10.9-0.8-21.7-1.8-32.6-2.7l-1.3-2.1c0,0.4-0.2,1.1,0,1.3C279.2,442,279.7,442.2,280.1,442.4z" style="fill:#68C6D5;"/>
	<path d="M225.7,770.5c-18.3-0.3-36.3-5.9-54.8-3c-3.8,0.6-7.3-1.1-7.7-5.4c-0.5-5,2.6-7.9,7.2-8.4
		c23.2-2.8,46.5-4.9,69.8-3.6c7.7,0.4,15,0.9,22.7,0c7-0.8,13.7,2.3,13.7,10.4s-7.4,5.8-12.2,6.3
		C251.5,768.3,238.6,769.4,225.7,770.5z" style="fill:#68C6D5;"/>
	<path d="M537.1,638.6c0-4.5,0-9,0-13.4c6.2-3.9,12.9-5,20.1-4.7c8.3,0.4,13.2,3.4,12.7,12.8c-1,21-1.5,42-2.2,63
		l-14.6,3.4c-0.4-15.7-2-31.4-1-46.9C552.8,640.3,547.6,637.5,537.1,638.6z" style="fill:#68C6D5;"/>
	<path d="M293.8,766.8c-3.7-0.8-12.3,0.4-10-9.8c3-13.4,14.8-2,21.7-6.6c3.3-2.2,7.7,2,6.7,7.3
		C310.5,766.7,304,768.2,293.8,766.8z" style="fill:#68C6D5;"/>
	<path d="M544.2,731c0.7-7.6,5.6-10.3,12.5-10.3C567.1,741.8,548.2,727.3,544.2,731z" style="fill:#68C6D5;"/>
	<path d="M558.6,717.3c0.2-6.8,5-7.1,10-7.2C567.8,716.1,563.5,717.1,558.6,717.3z" style="fill:#68C6D5;"/>
	<polygon points="646.7,619.3 645.5,619.6 645.6,618.6 	" style="fill:#FBFCFD;"/>
	<path d="M511.8,878.8c-41.4,0.8-83,3.1-124.2,2c-43.5-1.2-87,1.8-130.6-0.9c-27.8-1.7-56.2-4.4-84.3-0.2
		c-10.8,1.6-17-1.2-16.2-15.7s0.3-29.4,0-44.1c-0.4-19.3,13.6-19.8,24.3-18.9c42.6,4,85.2,1.3,127.8,1.8c36,0.4,72.4-5.8,107.8-1.9
		c41.4,4.5,82.5,0.9,123.6,2.2c9.7,0.3,12.5,2.8,11.8,12c-0.6,7.7,0.6,15.4,0.5,23.2C552.1,878.4,552,878.4,511.8,878.8z" style="fill:#FBFCFD;"/>
	<path d="M510.7,389.2c-40.8,1.7-81.8,3.5-122.3,2.3c-45.3-1.4-90.5,2.3-135.9-1c-26.3-1.9-53.7-4.9-80.7,0.2
		c-9.6,1.8-16.2-1.5-15.3-15c1-15.1,0-30.5,0.1-45.8c0.1-18.5,13.4-19.2,23.3-18.1c40.2,4.3,80.4,0.7,120.6,2.1
		c38.3,1.3,77.1-5.3,114.8-1.6c38.3,3.7,76.4-2.2,114.3,3.4c3.2,0.5,6.7-0.6,10-1.3c9.1-1.8,12.7,1,12.3,11
		c-0.8,16.6-0.4,33.2,0.2,49.8c0.4,10.9-4,14.9-14.7,14.2C528.5,388.7,519.6,389.2,510.7,389.2z" style="fill:#FBFCFD;"/>
	<path d="M511.5,557.1c-40.8,2.1-81.6,0.6-122.5,2.6c-14.9,0.7-30.9,2.4-46.8-1.8c-11.8-3.1-25.4,0.6-38.2,1.3
		c-43.3,2.2-86.6-4.8-129.9-0.9c-12,1.1-18.4-0.2-17.6-15.8c0.8-14.5,0.2-29.4,0-44.1c-0.3-19.4,13.7-19.6,24.5-18.6
		c42.6,3.9,85.2,0.7,127.8,1.9c36,1,72.5-5.4,107.8-1.9c40.9,4,81.3,0.3,121.9,2.1c9.4,0.4,14,1.4,13.4,12.3
		c-0.8,16-0.6,32.1,0.2,48.1c0.5,11.8-4.1,16.1-15.6,15C528.2,556.5,519.8,557.1,511.5,557.1z" style="fill:#FBFCFD;"/>
	<path d="M244.2,637.6c47.6,3.6,95.3,1.4,143,1c11.2-1.5,15.8,2.6,14.9,14.7c-1.1,16-0.6,32.1-0.1,48.1
		c0.3,10.4-4.6,13-14.1,12.9c-43.7-0.3-87.6-1.6-131.2,0.5c-28.8,1.3-57.6-4.1-86.4,1c-8.4,1.5-15-1.5-14.2-14.3
		c1-15.2-1.6-30.6,0.9-46c2.5-15.9,10.7-21.7,27.1-17.8c5.7,1.5,11.8,1.6,17.5,0.2l21.2,0.1L244.2,637.6z" style="fill:#FBFCFD;"/>
	<path d="M537.1,638.6c10.4-1.1,15.7,1.7,15,14.1c-1,15.6,0.6,31.3,1,46.9c-1.3,14.5-5.6,20.4-22.8,15.3
		c-14.1-4.2-30.4-1.7-45.6-1c-11.1,0.5-16-2.1-15.3-14.6c1.1-19.8,0.3-39.8,0.3-60C492.5,640.2,514.9,644.3,537.1,638.6z" style="fill:#FBFCFD;"/>
	<path d="M244.2,637.6l-21.3,0.5C229.6,625.1,237,634.5,244.2,637.6z" style="fill:#68C6D5;"/>
	<path d="M280.1,442.4c-0.5-0.2-1-0.4-1.5-0.7c-0.2-0.2,0-0.8,0-1.3l1.3,2.1L280.1,442.4z" style="fill:#FBFCFD;"/>
</g>
</svg>