<?xml version="1.0" encoding="UTF-8"?><svg version="1.1" xmlns="http://www.w3.org/2000/svg" xmlns:xlink="http://www.w3.org/1999/xlink" viewBox="0 0 1200 800" width="1200" height="800" x="0px" y="0px">
              
              <!-- ITEM 0 -->
<g>
    <defs>
        
        <clipPath id="clip-path-id-viewbox-item-0">
            <rect x="0.0" y="0.0" width="704.205" height="666.745"/>
        </clipPath>
    </defs>
    <g transform="translate(248.0 67.0) rotate(0.0 352.0 333.0) scale(0.9997088915869669 0.9988826312908233)">
      <g clip-path="url(#clip-path-id-viewbox-item-0)" transform="translate(-0.0 -0.0)">
      
<title>waiting</title>
<g>
	<path style="fill:#F59E0B;" d="M221.844,580.872c-1.27-3.753-2.852-7.392-4.73-10.88c-2-4-4.51-8.38-8.8-9.73   c-5.32-1.67-10.71,2.08-14.89,5.78c-7.726,6.834-14.908,14.26-21.48,22.21c-4.25,5.14-8.8,10.85-15.33,12.19   c-5.78,1.18-11.61-1.42-16.8-4.22c-14.037-7.575-26.946-17.077-38.35-28.23c-12.23-12-23.28-26.21-39.18-32.52   c-5.63-2.24-11.62-3.36-17.58-4.47c-2.76-0.52-35.49-2.29-34.73-7.71c-0.32,2.27-0.12,4.17-3.92,4c-2.09-0.11-6.6,2.28-6,5.4   c0.72,3.75,0.49,8.22,2.63,11.18c2.37,3.29,4.54,8,10.38,7.12c2.92-0.42,3.31,2.56,4.23,4.68c0.65,1.49-0.49,3.67,1.43,4.52   c4.48,2.006,8.528,4.862,11.92,8.41c3.39,3.44,7.9,6.31,11.44,9.68c7.23,6.89,12.61,15.52,20.06,22.42   c4.59,4.26,9.55,8.23,13.42,13.51c2.62,3.58,8,5.24,10.59,9.46c1.8,2.92,3.75,5.73,6.94,7c5.21,2.11,5.8,9.15,11.64,10.5   c1.93,0.45,3.37,1.74,4.88,3.11c2.08,1.88,4.75,4.32,7.16,4.31c3.09,0.002,6.124,0.827,8.79,2.39c4.65,2.61,10.59,3.62,13.41,8.63   c1.182,2.164,3.296,3.662,5.73,4.06c2.07,0.44,4.14,1.46,5.92,1.63c4.18,0.4,8.82,3.15,12.72-0.19s9.75-4.8,12.18-10.1   c0.3-0.66,0.66-1.14,1.44-1.09c6.84,0.41,8.39-5.35,10.34-9.76c1.1-2.49,2.69-4.95,4.45-5.55c7.79-2.67,8.18-12,14.79-15.56   c0.62-0.582,0.921-1.427,0.81-2.27c-0.51-2.77,1.51-4.24,2.92-6c5.66-6.89,10.5-13.33,12.45-22.32   C223.443,588.587,223.14,584.593,221.844,580.872z"/>
	<path style="fill:#F59E0B;" d="M452.774,334.832l-0.63,3.12c-1.109-0.077-2.211-0.227-3.3-0.45c-5.06-1.37-5.63-1-6,4.45   c-1.94,0.86-2.72,2.77-3.86,4.34c-8.37-0.92-17.52,5.52-19.36,14.45l0,0c-4.49,2.17-6.61,6.69-10,10   c-0.248,0.138-0.482,0.299-0.7,0.48c-1.49-0.29-2.11,0.32-1.86,1.81l-1.23,1c-4.34,2.57-0.38,4.15,0.71,6.08   c-1.3,2.23-3,1.76-4.7,0.62c-0.31-1.1-0.82-2.24-2.07-2.17s-1,1.33-1.14,2.22l-1.61,1c-3.5-1.53-4.88,1.16-6.09,3.4   c-1.836,3.717-4.919,6.672-8.71,8.35c-4.67,2-7.25,6-9.14,10.54c-2.22,3-3.42,6.7-7.95,7.63c-1.81,0.37-4.08,2.51-2,5.36   c0.63,0.87,0.31,2.69-0.33,2.24c-4.12-2.87-4.95,0.43-6.47,2.93c-0.6,1-1.48,0.31-2.49,0c-3.66-1.3-7.07-4-11.38-2.52   c-1.71,0.58-2.19-0.85-3-1.94c-4.17-5.65-9.52-10.17-14.71-14.82c-4.21-3.77-9.66-5.68-14.31-8.88c-3.14-2.17-4.26-5.77-7.32-7.66   c-3.77-2.33-6.35-6.68-11.55-6.68c-0.991-0.221-1.797-0.94-2.13-1.9c-0.54-5.53-5.23-7.16-8.86-9.8c-2.52-1.84-5.38-3.37-7.49-5.61   c-5.93-6.32-9.45-14.89-17.89-18.9c-1.015-0.623-1.735-1.629-2-2.79c-0.83-3.89-4.63-5.37-7.06-7c-6.12-4-12.12-7.67-14.69-15   c-0.74-2.13-2.72-2.44-4-1c-3.86,4.43-8.57,3.35-13.32,2.62c-2.25,1.18-2.45,3-2.32,5.42c0.41,7.45,5.73,11.41,10.83,15.36   c3.61,2.8,6.25,6.31,9.05,9.76c2.208,2.373,4.085,5.034,5.58,7.91c1.75,3.52,3.46,7.8,7.33,9.3c3.54,1.37,5.45,3.28,6.18,6.81   c0.27,1.29,1.52,2.06,2.22,3c2.18,3.1,5.72,4.29,8.32,6.72c0.53,1.44,1.74,2.34,2.67,3.47c2.64,3.21,6.63,4.81,9.21,7.88   c7.36,8.981,15.205,17.554,23.5,25.68c5.85,5.6,12.8,10.45,17.34,17.26c2.86,4.3,6.2,6,11,6c1.53,0,3.25,0.8,3.73,2.16   c2.76,7.95,10.59,7.46,16.48,9.39c6.93,2.28,14.29-0.25,20.39-3.56c12.22-6.63,23.93-14.2,34.19-23.77   c0.775-0.882,1.768-1.544,2.88-1.92c5.35-1,7.6-5.55,10.2-9.28c1.6-2.29,6-2.47,5.27-5.8c-0.85-3.81,0.53-4.53,3.74-5.35   c2.77-0.71,3.16-4.35,5.49-6.18c4.63-3.64,11.17-5.12,13.21-11.86c1.23-4.06,4.29-7.45,4.75-11.87c0.38-1,1.32-1.25,2.2-1.55   c-0.117,0.292,0.024,0.624,0.316,0.741c0.03,0.012,0.062,0.022,0.094,0.029v0.27h0.31c6-1,8-2.88,8.2-8.48   c0.23-3.456,0.705-6.891,1.42-10.28c1.42-2.79,0.68-5.71,0.54-8.6c0.59-2.18,0.44-4.45,0.82-6.68   C460.214,336.992,458.104,334.992,452.774,334.832z"/>
	<path style="fill:#F59E0B;" d="M571.104,276.822c-2.32-0.58-1.64-2.13-1.41-3.69s-1.09-1.32-2-1.47l-0.3,0.06   c-2.61,2.71-5.81,0.66-8.31,0.25c-2-0.32,2.43-2.31,1-4.39c-2.4,1.27-4.67,2.9-7.65,1c-0.4-0.26-3.87-1.61-4.48,0.94   c-0.56,2.34-2.7,2.7-3.69,4c-2.7,3.61-7.82,5.16-8.68,10.24l-0.25,1.08c-4.44,2.79-10.28,4.19-10.73,10.9   c-0.245,0.14-0.473,0.308-0.68,0.5c-3-0.51-5.41-3-8.82-2.26c-4.269,1.031-8.734-0.66-11.25-4.26   c-0.104-0.256-0.235-0.501-0.39-0.73c0.1-1.986-0.526-3.941-1.76-5.5c-2.52-3.19-5.46-6.09-6.92-10   c-0.825-2.705-3.302-4.568-6.13-4.61l-0.54-0.93c1.38-6.21-2.17-10.24-8.6-9.76l-0.19-0.19c0.53-8,0-8.91-6.68-12.09l0,0   c-0.47-5.12-6.79-10.78-13.67-12.26v-0.05c-0.7-2.49-2.26-3.2-4.41-1.8c-1.33,0.86-3.13,1.82-4.06,1   c-3.46-3.17-7.1-1.18-10.69-0.94c-0.218-0.16-0.461-0.282-0.72-0.36c-0.87-1.69-1.95-2-3.27-0.45l-4-0.24   c-0.93-2.54-3.13-2.48-5.26-2.55c-2.14-1-4.3-2-6.79-1.6l-1.47-0.79c0-0.587,0-1.177,0-1.77c0.7-2.35-0.81-3.33-2.59-3.05   c-3.37,0.52-6.12-0.89-9-2.08c-8.272-4.491-15.41-10.812-20.87-18.48c-4.38-6.16-9-12.1-13.64-18c-2.82-3.58-6.68-5.14-11.12-5.4   c-3.169-0.051-6.235-1.128-8.74-3.07c-1.49,0.1-3.11,0.05-4.13,1.34c-2.1,2.66-2.26,11.25,0,13.94c3.74,4.4,5.27,10,8.09,14.86   c4.49,7.81,7.72,16.48,14.17,22.91c6.8,6.77,13.44,13.57,18,22.08c2.69,5,7.45,8.14,11,12.41c1.9,2.31,5.12,4.7,7.9,4.89   c8.23,0.57,14.76,9.56,23.94,4.72c0.483-0.167,1.014-0.12,1.46,0.13c6.28,3.68,13.1-0.55,19.81,1.4c3.15,0.92,5.73,2.13,5.91,4.3   c0.59,6.91,7,9.82,9.66,15.34c2.818,5.484,5.908,10.824,9.26,16c2.308,3.679,5.179,6.973,8.51,9.76c3.26,2.79,7.94,3,11.32,5.1   c5,3.16,14,5.4,18.85,2.75c1.83-1,1.88,0.11,2.87,1.08c2.5,2.42,6,4,9.22,2.59c8.4-3.75,14.94-10.46,22.67-15.3   c6-3.73,6.31-11.25,11.13-15.68c1.334-1.652,1.713-3.88,1-5.88c-0.69-1.7-1.76-3-0.27-4.65c2.63-0.07,7.27,1.77,6-3.2   c-1-4,5.29-3.32,3.17-6.89C571.584,277.592,571.424,276.902,571.104,276.822z"/>
	<path style="fill:#F59E0B;" d="M266.604,513.772L266.604,513.772L266.604,513.772z"/>
	<path style="fill:#F59E0B;" d="M328.544,477.192c0.44-0.4-0.09-1.8-1-2c-2.19-0.53-3-1.41-2.06-3.79   c0.24-0.63-19.24-12-22.67-12.65c-6.58-1.15-11.94,5-16,10.29c-4.3,5.7-8.84,11.33-14.59,15.56c-4.51,3.32-10.28,5.76-15.66,4.19   c-3.6-1.05-6.46-3.72-9.16-6.32c-4.49-4.31-9-8.68-14.4-11.81s-11.79-4.92-17.88-3.64c-6.36,1.34-11.56,5.81-16.29,10.26   c-6.36,6-12.64,12.56-15.45,20.84c-3.08,9.08-1.23,19-9.06,25.48c-3.36,2.76-10.9,14.7-1.28,16.17c1.11,0.17,2.51,0.15,2.11-1.73   c-0.22-1-1.32-2.36,0.64-2.67c1.07-0.17,1.71,0.84,2.06,1.82c1.21,3.35,3.78,3.66,6.4,2.27c2.13-1.13,4.24-0.35,6.3-0.78   c2.63-3.36,4.72-7.44,8-9.94c6.89-5.26,14.4-9.72,21.7-14.45c1.55-1,3-0.53,4.89-0.08c4.42,1.06,4.32,6,7.71,7.63   c7.51,3.71,12.51,10.56,18.36,16.09c7.25,6.87,15.5,10.93,24.7,8.16c0.775-0.233,1.595-0.274,2.39-0.12   c11.71,2.58,15.23-8.61,22.48-13.47c0.77-0.52,0.71-2.47,0.79-3.77c0.38-5.88,3.26-9.13,8.94-9.95c2.07-0.3,3.88-0.94,4.7-3.12   c0.54-1.44,1.32-2.84,2.82-3.32c3.52-1.13,4.2-4.16,3.41-6.77c-1.36-4.53,0-9.26-1.7-13.7c-0.74-1.9-0.06-3.59,2.41-4   c1.12-0.17,2.16-0.8,3.28-1C332.364,485.512,325.634,479.872,328.544,477.192z M277.424,517.512   c-0.073,0.675-0.68,1.164-1.355,1.091c-0.002,0-0.003,0-0.005-0.001c-1.36-0.16-1.77-1.36-2.15-2.39   c-0.174-0.764-0.238-1.548-0.19-2.33c0.79,0.021,1.573,0.145,2.33,0.37C277.474,514.852,277.724,516.112,277.424,517.512z"/>
	<path style="fill:#F59E0B;" d="M431.544,120.202c-2.23,4.38,1.5,6.75,3.12,10c3,5.93,7,11.33,9.16,17.71   c1.92,5.59,2.9,11.59,7,16.34c2.37,2.77,2.12,11.56,0.25,11.29c-5.77-0.82-5.38,4.33-7.68,6.83c1.106,1.473,2.728,2.473,4.54,2.8   c4.42,0.56,5.42,2.49,3.94,6.68c-1,2.7,0.35,4.35,3.72,3.84c2.56-0.39,5.4-2.86,7.81,0.73c0.56,0.83,1.88,0.07,2.14-1.11   c0.57-2.64,2.67-2.31,4.62-2.74c4.1-0.91,8.23-1.72,9.71-6.86c1.73-6,0.8-12.53,3.39-18.39c0.159-0.641,0.073-1.318-0.24-1.9   c-4.6-9.84-7.9-20.2-11.92-30.27c-0.34-3.62-1.14-7-4.2-9.42l-1.17-1.85c-0.88-2-1.3-4.39-3.92-5.07   c-0.68-2.25-2.74-3.28-4.23-4.81c-0.18-2.19-2-2.33-3.25-1.89c-5.17,1.79-7.45-5.23-12.37-3.86l-0.25-2.32   c-3.2,1.2-1.08,4.73-2.84,6.56l-3.11-0.75c-6,1.29-6,1.38-4.35,7.58C431.464,119.592,431.664,119.992,431.544,120.202z"/>
	<path style="fill:#F59E0B;" d="M126.484,430.342c4.28,3.64,4.44,10,9.31,12.77s6.83,9.79,13.92,8.92c0.26,0,0.91,0.64,0.87,0.91   c-0.85,6,3.82,4.29,6.81,4.88c1.46,0,3-0.39,4.27,0.79c3.91-1.5,5.72-6.84,10.92-6c1.15-4.24,4.66-2.2,7.22-2.71l1.76-1.33   c0.034-0.944,0.826-1.682,1.77-1.648c0.185,0.007,0.367,0.043,0.54,0.108l0.13-0.04c2.94-2.15,0.08-3.52-0.72-5.12   c-3.779-7.152-8.983-13.455-15.29-18.52c-4.12-3.43-3.71-11.77-11.59-10.94c-0.24,0-0.65-1-0.88-1.63c-0.65-1.65-2-2-3.58-2.15l0,0   c-0.31-4.8-2.68-7.49-7.68-7.5c-0.486-0.061-0.963-0.182-1.42-0.36l-2.37-2.78c-0.22-4.17-2.2-4.79-5.45-2.66   c-1.945,1.265-4.22,1.93-6.54,1.91l-2.18-1.79c-4-1.49-8.09,0.36-12.19-0.38c-2.207-0.291-4.35,0.877-5.3,2.89   c-1.46,3.23,1.79,15.54,4.41,18.28C117.684,420.912,121.594,426.192,126.484,430.342z"/>
	<path style="fill:#F59E0B;" d="M284.104,293.632h0.91H284.104c1.26,5,4.69,7,10.64,6.15c0.211,0.153,0.439,0.28,0.68,0.38   c0.166,1.003,1.114,1.68,2.116,1.514c0.1-0.017,0.198-0.041,0.294-0.074l1.49,0.76c0.63,1.5,1.9,1.55,3.24,1.43l0.22-1.2   c1.39-1.52,3.17-2.82,4.12-4.58c3.73-6.88,10.19-10.73,16.27-14.94c4.74-3.29,8.76-7.42,13.4-10.86c4-3,6.54-8.14,9.57-12.46   c3.25-4.63,5.15-10.36,10.07-13.8c3.77-2.64,3-6,0.84-9.06c-2.36-3.29-4.35-6.58-4.74-10.71c-0.1-1.52-0.888-2.912-2.14-3.78   c-7.932,3.071-14.566,8.777-18.79,16.16c-0.969,0.138-1.773,0.818-2.07,1.75c-0.304,0.06-0.6,0.157-0.88,0.29   c-2.9,1.2-3.57,2.61-0.42,4.39l-2.11,2.1c-4.49-1.9-6-0.54-6.83,6l-0.16,0.17c-2.12-0.32-4.4-1.06-5.6,1.64   c-1,2.34-2.37,4.26-4.94,5.28c-1.63,0.64-1.65,2.34-1.32,3.91l-0.21,0.18c-2.28-0.54-4.39-0.61-5.57,2   c-0.298,0.092-0.581,0.226-0.84,0.4c-1.57,0.2-2.4,1.3-3.1,2.56c-2.92,0.25-4.07,1.83-3.56,4.69c-8.35,3-12.14,8.81-10.35,16   L284.104,293.632z"/>
	<path style="fill:#F59E0B;" d="M395.604,307.272c1.21-0.93,2.52-2.59,1.58-4.29c-0.849-1.71-2.759-2.616-4.62-2.19   c-2.21,0.51-3.61,0.27-4.59-2.23c-1.5-3.83-4.45-4.6-8.07-2.6l-0.31,2.79c-3.5,2.8-7.87,4.68-9.74,9.2   c-0.173,0.203-0.3,0.442-0.37,0.7c-7,3-12.41,7.66-14.56,15.33l-1,1.19c-4.87,0.38-6.16,4.3-7.79,7.89l-1.72,4.51   c-1.47,1.9-4.92,1.55-5.34,4.58c-0.34,2.46-1.5,6.45-0.49,7.15c3.28,2.27,5.08,7.17,10.19,6.52l2.85,3.16   c1.13,2.17,2.39,3.7,4.5,0.89c0.88-1.18,2.23-1.14,3.5-1.34l-0.51-1c1.246-1.067,2.292-2.347,3.09-3.78   c2.59-3.71,4.25-7.9,7.69-11.26c5.27-5.16,11.4-9.13,16.88-13.91c3.78-3.3,6.65-7.71,5.87-13   C392.004,311.932,392.734,309.502,395.604,307.272z"/>
	<path style="fill:#F59E0B;" d="M682.004,233.632c-3.33-2.53-4.65-1.26-5,1.43c-0.4,3.52-2,2.43-4,2   c-4.24-0.91-8.72,2.88-12.93-0.51c-0.447,0.43-0.84,0.914-1.17,1.44c-0.8,1.32-1.93,1-3.08,0.77c-1.63-0.7-3.28-1.37-4.9-2.11   c-2.79-1.29-7.13-2-8-4.07c-2.11-5-7.65-7.4-7.45-14.68c0.083-6.794-1.093-13.545-3.47-19.91c-4-2.46-8.54-1.66-12.48-0.72   c-2.92,0.7-1.69,4.71-2,7.33c0,0.3-0.47,0.6-0.44,0.87c0.61,5.88-4.9,11.33-1.26,17.42l-0.18,5c-1.32,1.53-0.75,2.47,1,3h-0.09   c1.71,9.5,5.08,18.45,13.25,23.94c3.53,2.37,4.81,8.67,10.9,7.1c0.23-0.06,0.84,0.53,0.94,0.91c1.09,4.11,3.33,2.39,5.56,1.2   c0.944-0.702,2.165-0.914,3.29-0.57c3.89,1.57,7.67,2.19,11.43-0.56c1-0.74,2.21,0,2.87,1.2c0.42,0.73,1.24,1.81,1.81,1.32   c4-3.46,10.6-2,13.64-6.05s7.38-7.11,10.14-11.45l1.35-3C688.434,241.272,686.194,236.822,682.004,233.632z"/>
	<path style="fill:#F59E0B;" d="M625.754,186.732c1.76,0,4.53,0.72,5.12-0.12c2.66-3.71,6.61-3.92,10.37-4.83   c1.16,0.22,2.36-1.08,3.49,0c0-0.7,0.32-0.87,0.71-0.87c-0.39,0-0.69,0.17-0.71,0.87l0,0c0,0.06,0,0.11,0,0.17l0,0   c1,0.22,1.5-0.49,2.08-1c0.068-0.039,0.127-0.094,0.17-0.16c1.22,0.19,2.45,0.4,3.43-0.68c2.84-3.65,5.08-7.5,4.34-12.4   c1.904-2.146,4.207-3.902,6.78-5.17c-0.009-0.499,0.065-0.996,0.22-1.47c3.05-5.6,8.34-10.89,2-17.63c-0.56-0.59,0-2.25,0-3.41   c0.07-1.55,0.07-3.24-1.67-3.76c-1.94-0.58-3.17,0.46-3.51,2.46l-0.78,1.27c-1.9,0.9-5.52-3.42-6,2c-0.32,1.83-1.51,2.1-3.19,2.25   c-1.48,0.13-2.59,1.38-0.54,2.37s1.17,2,0.47,3.06c-0.94,1.44-2,1.28-3.27,0.23c-2.24-1.91-4-1.21-5.86,0.86   c-1.16,1.29-2.92,2-4.41,3l0,0c-1.55-1.07-2.44,0.17-3.4,1s-2.42,1.84-3.54,0.81c-2.65-2.45-6.09-3.8-8.66-6.13   c-2.61-2.597-6.333-3.738-9.95-3.05c-1.23-0.54-2.61-0.87-3.16-2.33c2.14-4.1-1.83-8.38,0.76-12.57c-4.22,1-6.41,0.25-4.91-4.31   c0.84-2.56,0.23-4.4-2.38-5.69c-2-1-2.71-3.14-3.68-5.1c-1.58-3.19,2.1-3.16,3.13-5.07c-4.87,0.9-4.86,0.9-4-3.22   c0.31-1.48-0.31-2.72-1.72-1.56c-2.77,2.27-3.42,1.19-2.52-1.49c1.53-4.56-1-8.81-0.53-13.25c0.1-0.88-0.62-1.86-1.52-1.38   c-5.65,3-2.93-2-3.4-3.63c-0.78-2.72,1.74-6.54-2.75-8l-4.22-4.85c1.82-4.09,2-7.89-1.94-11l-1.6-2.8   c-0.24-2.82,0.61-6.12-3.27-7.31l-1.12-0.92l-0.83-1.13c0.039-0.3-0.061-0.602-0.27-0.82c-2.57-8.29-7.17-11.61-13.87-10l0,0   l-1.06-3.68c-1.25,0.93-0.77,2.3-0.87,3.52c-5.23,7.81-2.7,15.87-0.18,23.59c2,6.17,1.89,12.71,4.67,18.88   c1.24,2.75,1.51,7.29,2,11c0.9,7.11,3.33,14.08,5.59,21c2.18,6.63,1.85,13.76,5,20.24c5.07,10.35,10.33,20.61,17.38,29.7   c2.42,3.12,2.59,7.29,5.07,9.63c2.92,2.74,4.75,6.43,7.8,8.71c4,3,8.28,6.39,14,4C618.504,189.252,622.104,188.662,625.754,186.732   z"/>
	<path style="fill:#F59E0B;" d="M441.674,105.842v0.05l0,0V105.842z"/>
	<polygon style="fill:#F59E0B;" points="441.674,105.842 441.714,105.882 441.944,105.582  "/>
	<path style="fill:#173948;" d="M126.304,395.452c-3.9-7.94-0.89-15.65,1.36-23.14c0.898-2.516,2.905-4.478,5.44-5.32   c1.9-0.56,2.83-2.49,3.81-4.28c4.54-8.27,9.59-16.4,18.54-20.38c6.08-2.7,12.26-4.62,19.63-4c9.74,0.85,17.64,4.94,25.54,9.59   c2.71,1.59,4.94,4.27,6.87,6.84c2.71,3.61,5.39,6.93,10.25,7.62c0.99,0.161,1.849,0.77,2.33,1.65c2,7.55,9.81,8.66,14.67,12.9   c2.69,2.35,4.08,6.81,8.62,7.25c0.79,0.08,0.9,2.06,0.54,3.2s0,2.27,1,2.4c5,0.65,6.31,5.49,8,8.6s2.73,5.67,6.65,5.75   c0.26,0,0.72,0.39,0.73,0.61c0.14,6.29,7.07,6,9.58,9.9c3,4.63,7.08,8.31,10.29,12.7c0.924,1.554,2.501,2.609,4.29,2.87   c0.506,0.031,0.981,0.252,1.33,0.62c3,5.25,8.26,8,12.59,11.84c3.28,2.89,5.66,6.84,9.24,9.53c1.65,1.24,2.59,2.78,2.05,4.69   c-0.63,2.24,1,2.85,2.17,3.92c-0.5,1.68,1.56,3.91-0.34,5s-3.37-0.54-4.74-2.26c-1-1.21-2.62-0.06-3.87,1   c-1.85,1.55-2.38,4.9-4,5.41c-4.82,1.52-4.1,4.74-3.65,8.18l-1.39,3.25c-1.64,3-5.09,3.89-7.42,6.09c-1.62,1.78-1.87,4-1.87,6.22   c-3.47-0.93-4.54,1.82-6,3.93l-2.6,1.71c-2.652-0.901-5.353-1.652-8.09-2.25c-2.17-0.44-4.83-3-7.21-0.13l-1.94,0.29   c-0.462-0.631-1.33-0.805-2-0.4c-8.6,0.89-15.43-1.19-18.19-10.5c-0.387-1.323-1.485-2.317-2.84-2.57   c-1.39-1.27-3.26-0.45-4.79-1.11c-0.116-0.238-0.268-0.458-0.45-0.65c2.22-6.07,2.22-6-4.19-6c-1.37,0-2.71,0.22-3.83-1.47   c-2-3-3-0.95-3.77,1.17c-1.2,0.72-0.71,2-1.1,3.05c-2.808,0.345-5.154,2.301-6,5l0,0c-2.219,1.477-3.927,3.604-4.89,6.09l0,0   c-3.77,2.2-5.54-4.15-9.87-2.09c4.18,1.63,3.06,3.92,1.32,6.2c-1.18,1.55-3,2.83-1.7,5.18c-3.59,5.55-8.12,10.34-12.34,15.38   c-4.72,5.63-12.83,7.8-15.42,15.64c-0.93,2.81,1.49,9.14,4.42,9.59c1.11,0.17,2.51,0.15,2.11-1.73c-0.22-1-1.32-2.36,0.64-2.67   c1.07-0.17,1.71,0.84,2.06,1.82c1.21,3.35,3.78,3.66,6.4,2.27c2.13-1.13,4.24-0.35,6.3-0.78c3.18,0,5.7,0.82,5.41,4.69   c-0.32,4.36,4.28,4.8,6.16,5.89c5.78,3.34,8.8,8.37,11.86,13.68c-1.49,1-4,3-4.29,2.74c-3.31-3.38-5.19-0.84-8.15,0.85   c-4,2.29-6.66,5.05-7.88,9.37l0,0c-0.95,0.24-2.73,0.51-2.72,0.7c0.23,5-4.06,6.59-6.55,9.71c-3.66,4.58-6,10.22-11.13,13.76   c-0.94,0.65-1.81,1.51-1.46,2.9l-0.09,1.9c-3.29,1.9-7.94,0.82-10.33,4.73c-2.62,4.29-6.25,5.46-10.88,3.44   c-0.201-0.199-0.454-0.338-0.73-0.4c-0.77-1.88-2.24-1.2-3.73-1.27c-3.64-0.17-7.38,2-10.9-0.33c-1.948-1.213-4.177-1.902-6.47-2   c-6.46-0.58-12.26-6.9-11.82-12.41l-5.48,1.78l-1.49-0.83c-0.91-1.72-2.57-2.24-4.29-2.65l-1-2c-3.19-7.55-10.6-10.14-16.74-14.23   l-0.05-2.81c0.8-0.8,0.48-1.45-0.44-1.61c-1.16-0.2-1.61,0.61-1.66,1.68c-1.158,1.098-2.972,1.098-4.13,0   c-0.37-2,0.33-4.53-1.82-5.9c-5.53-3.52-10.91-7.15-15.28-12.18c-1.1-1.27-2.69-3-5-2.64c-0.251-0.147-0.52-0.261-0.8-0.34   c-0.29-1.34-1-1.87-2.31-1.15l-4.5-3.06c-0.29-1.6-1.62-1.77-2.85-2.08c-4-5.75-9.6-9.92-14.9-14.37   c-3.29-2.76-6.42-6.28-10.87-6.26c-5.17,0-9.61-0.92-13.32-4.6c1.19-2.08,4.16-3.66,1.88-6.71c-1.46-2.89-4-5.92,1.11-7.93   c0.404-0.286,0.637-0.756,0.62-1.25c-1.14-6.47,6.37-8.29,7.32-13.63c0.17-0.445,0.541-0.783,1-0.91   c7.42-1.22,9.65-8.38,14.47-12.56c1.83-1.59,0.72-4.31,2.5-5.79c2.31-1.93,3.57-5.92,7.85-4.14c3.81-4.68,10.76-4.53,14.32-10.54   c2.47-4.16,8.71-5.61,14.18-4.77c2.6,0.4,6.32-1,7.35,3.3c0.267,0.363,0.7,0.567,1.15,0.54c4.87-2.69,7.15,1.3,9.86,3.9   c0.716,0.901,1.864,1.345,3,1.16c3.21-0.68,4.52-0.23,4.79,3.83c0.14,2,4.64,3.18,7.49,3.92c4.68,1.22,7.91,3.73,9.17,8.58   c0.61,2.35,2.94,3.11,4.77,3.1c1.39,0,2.81,0,3.71,0.7c4.47,3.58,6.44,1.4,9.29-2.59c3.51-4.91,6.82-10.29,12.6-13.32   c2.02-1.212,3.555-3.089,4.34-5.31c0.89-2.2,2.31-4,5-4.25c1.29,0,2.59,1.79,3.88,0c3.91-1.5,5.72-6.84,10.92-6   c2.71-0.09,6.09,1.61,7.22-2.7l1.76-1.33c0.93,0.301,1.928-0.208,2.23-1.138c0.042-0.13,0.069-0.265,0.08-0.402l0.2-0.14   c2.94-2.15,0.08-3.52-0.72-5.12c-3.779-7.152-8.983-13.455-15.29-18.52c-4.12-3.43-3.71-11.77-11.59-10.94   c-0.24,0-0.65-1-0.88-1.63c-0.65-1.65-2-2-3.57-2.15l0,0c-0.31-4.8-2.68-7.49-7.68-7.5c-0.486-0.061-0.963-0.182-1.42-0.36   l-2.38-2.78c-0.22-4.17-2.2-4.79-5.45-2.66c-1.945,1.265-4.22,1.929-6.54,1.91L126.304,395.452z M195.414,489.852l-0.18-0.37   l-0.07,0.7L195.414,489.852z"/>
	<path style="fill:#173948;" d="M214.174,320.252c0.39-4.84,1.1-9.71-1.68-14.2c-0.25-0.4,0-1.63,0.25-1.75   c6.46-2.56,2.68-9.65,6.13-13.66s4.74-9.37,5.61-14.61c0.64-3.85,4.71-4.91,6.14-8.5c2.42-6.07,6.49-11.25,13.28-13.63   c2.11-0.74,3.9-4.33,3.82-5.32c-0.41-5,5.21-5.6,6.08-9.37c0.267-0.604,0.805-1.046,1.45-1.19c7.38-1.06,9.35-6.61,10.53-12.7   c0.74-3.82,4.12-5.22,6.72-6.56c6.23-3.22,11.91-6.28,16-12.66c4.43-6.92,11.4-12.18,21.51-9.28c2.09,0.6,3.63-1.39,5.78-0.68   c3.25,1.08,7,0.09,9.43,4.17c1.09,1.8,5.88,2.64,7.94,2.44c5.51-0.53,8.64,2.42,12.18,5.3c0.25,0.21,0.8,0.43,0.77,0.54   c-1.34,5.4,5.09,8.52,4.06,13.81c-7.932,3.071-14.566,8.777-18.79,16.16c-0.969,0.135-1.776,0.81-2.08,1.74   c-0.304,0.061-0.599,0.159-0.88,0.29c-2.9,1.2-3.57,2.61-0.42,4.39l-2.12,2.1c-4.49-1.9-6-0.54-6.83,6l-0.16,0.17   c-2.12-0.32-4.4-1.06-5.6,1.64c-1,2.34-2.37,4.26-4.94,5.28c-1.63,0.64-1.65,2.34-1.32,3.91l-0.21,0.18   c-2.28-0.54-4.39-0.61-5.57,2c-0.298,0.096-0.581,0.234-0.84,0.41c-1.57,0.2-2.4,1.3-3.1,2.56c-2.92,0.25-4.07,1.84-3.56,4.69   c-8.35,3-12.14,8.81-10.35,16l0.68,3.79c1.26,5,4.69,7,10.64,6.15c0.211,0.153,0.439,0.28,0.68,0.38   c0.166,1.003,1.114,1.68,2.116,1.514c0.1-0.017,0.198-0.041,0.294-0.074l1.49,0.76c0.63,1.51,1.9,1.55,3.24,1.43   c1.28,2.79,5.69,1.92,6.4,5.54c0.15,0.79,1.18,0.18,1.53-0.32c3.22-4.59,7.94-7.3,12.59-10.1c0.39-0.23,0.92-0.73,0.89-1.07   c-0.41-6.22,4.81-7.51,8.66-10c2.48-1.63,4.52-3.3,8.1-2.18c3,0.94,5.38-2.73,8.54-3.14c5.1-0.66,9.44-1.17,14.87,1.73   c4.82,2.58,7.27,8.29,13.16,9c1,0.11,1.73,1.81,2.59,2.78l-0.31,2.79c-3.5,2.8-7.87,4.68-9.74,9.2c-0.174,0.203-0.3,0.442-0.37,0.7   c-7,3-12.41,7.66-14.56,15.33l-1,1.19c-4.87,0.38-6.16,4.3-7.79,7.89l-1.73,4.51c-1.47,1.9-4.92,1.55-5.34,4.58   c-0.34,2.46-1.5,6.45-0.49,7.15c3.28,2.27,5.08,7.17,10.19,6.52l2.85,3.16c1.13,2.17,2.39,3.7,4.5,0.89   c0.88-1.18,2.23-1.14,3.49-1.35c1.66,0.12,2.19,1.12,2.28,2.66c-0.087,2.054,0.868,4.013,2.54,5.21c-0.36-6,5.07-6.78,8.16-9.06   c8.096-6.149,15.816-12.778,23.12-19.85c0.778-0.638,1.374-1.469,1.73-2.41c1.08-4.08,2.32-7.6,7.68-4.73   c1.2,0.64,1.12-0.52,1.41-1.26c1.336-3.537,4.43-6.114,8.15-6.79c0.49-0.11,1.11-0.08,1.43-0.38c4.89-4.54,9.79-4.39,16.27-2.55   c5.57,1.58,10.18,3.58,12.87,8.19c0.991,2.063,2.723,3.677,4.85,4.52c1.1,0.44,1.83,1.81,2.73,2.76l-0.63,3.12   c-1.109-0.076-2.211-0.227-3.3-0.45c-5.06-1.37-5.63-1-6,4.45c-1.94,0.86-2.72,2.77-3.86,4.34c-8.37-0.93-17.52,5.52-19.36,14.45   l0,0c-4.49,2.17-6.61,6.69-10,10c-0.248,0.138-0.482,0.299-0.7,0.48c-1.49-0.29-2.11,0.32-1.86,1.82l-1.23,1   c-4.34,2.57-0.38,4.15,0.72,6.08c-1.3,2.23-3,1.75-4.7,0.62c-0.31-1.1-0.82-2.24-2.07-2.17s-1,1.33-1.14,2.22l-1.61,1   c-3.5-1.53-4.88,1.16-6.09,3.4c-1.836,3.717-4.919,6.672-8.71,8.35c-4.67,2-7.25,6-9.14,10.54c-2.22,3-3.42,6.7-7.95,7.63   c-1.81,0.37-4.08,2.51-2,5.36c0.63,0.87,0.31,2.69-0.33,2.24c-4.12-2.87-4.95,0.43-6.47,2.93c-0.61,1-1.48,0.31-2.49,0   c-3.66-1.3-7.07-4-11.38-2.52c-1.71,0.58-2.19-0.85-3-1.94c-4.17-5.65-9.52-10.17-14.71-14.82c-4.21-3.77-9.66-5.68-14.31-8.88   c-3.14-2.17-4.26-5.77-7.32-7.66c-3.77-2.33-6.35-6.68-11.55-6.68c-0.991-0.221-1.797-0.94-2.13-1.9c-0.54-5.53-5.23-7.16-8.86-9.8   c-2.52-1.84-5.38-3.37-7.49-5.61c-5.93-6.32-9.45-14.89-17.89-18.9c-1.015-0.623-1.735-1.629-2-2.79c-0.83-3.89-4.63-5.37-7.06-7   c-6.12-4-12.12-7.67-14.69-15c-0.74-2.13-2.72-2.44-4-1C223.624,322.052,218.914,320.992,214.174,320.252z"/>
	<path style="fill:#173948;" d="M352.274,173.992c-1.541-5.713-0.303-11.818,3.34-16.48c1.7-2.09,3-7.88,8.68-6   c2,0.68,2.35-1.51,2.45-3.33c0.38-6.71,4.22-11.1,10.75-12.15c1.18-0.19,2.17-0.73,3.24-0.92c2.66-0.45,4.45-4.12,7.11-2.92   c5.33,2.41,11.31,3.73,15.43,8.51c5.3,6.15,10.67,12.19,12.53,20.45c0.14,0.62,1.09,1.24,1.79,1.54c6.1,2.56,9.53,6.89,11.58,13.38   c0.91,2.88,5.53,5,9.66,4.87c1.74-0.07,3.3,0.06,4.55,1.41c1.106,1.473,2.728,2.473,4.54,2.8c4.42,0.56,5.42,2.49,3.94,6.68   c-1,2.7,0.35,4.35,3.72,3.84c2.56-0.39,5.4-2.86,7.81,0.73c0.56,0.83,1.88,0.07,2.14-1.11c0.57-2.64,2.67-2.31,4.62-2.74   c4.1-0.91,8.23-1.72,9.71-6.86c1.73-6,0.8-12.53,3.39-18.39c0.159-0.641,0.073-1.318-0.24-1.9c-4.6-9.84-7.9-20.2-11.92-30.27   c-0.34-3.62-1.14-7-4.2-9.42l-1.17-1.85c-0.88-2-1.3-4.39-3.92-5.07c-0.68-2.25-2.74-3.28-4.24-4.81c-0.18-2.19-2-2.33-3.25-1.89   c-5.17,1.79-7.45-5.23-12.37-3.86l-0.25-2.37l0.27-0.25l-0.24,0.29c-3.25,1.19-1.11,4.74-2.87,6.58l-3.11-0.76   c-1.68-3.24,0.24-6.44,0.22-9.68c0-3.72,3.42-4.64,6.42-5.85c1.9-0.77,1.06-4.61,4.21-4.65c-0.86-4.92,4.84-5.25,6.14-8.75   c0.53-1.42,1.47-3,3.59-2.92c4,0.23,7-2.59,10.49-3.66c3-0.92,6.39-2.4,9.74-0.84c2.16,1,4.38-0.38,6.76,0.77   c2.88,1.39,6.65,1.17,6.54,5.82c0,0.29,1,0.66,1.53,0.88c5.374,1.984,10.041,5.516,13.41,10.15c4.19,5.92,7.25,12.89,14.53,16.3   c1.63,0.76,2.59,3.74,3.14,5.88c0.966,4.05,2.866,7.817,5.55,11c1.07,1.26,1.28,3.45,0.39,4.17c-3.42,2.79-1.05,4.78,0.47,7   c0.47,0.69,1.33,1.43,1.28,2.09c-0.487,4.179,1.346,8.29,4.78,10.72c0.47,0.36,0.71,2,0.43,2.24c-5.41,3.88-0.38,9.65-2.6,13.69   c-0.82,1.5-1.73,2.12-1.24,4.1c0.89,3.54-0.19,7.35,1.15,10.94c0.456,1.139,0.12,2.443-0.83,3.22c-2.37,1.67-1.78,3.72-1.42,6.11   c0.42,2.78,0.87,5.54-1.38,8.38c-1.5,1.9-3.13,4.65-1.62,8.05c1.32,3-1.45,3.87-4.32,4.64c5.93,1.77,6.07,8.57,10.65,11.42   c2.12,1.32,0.64,3.62,2.2,5.54c2.57,3.16,6.54,4.53,8.63,8c1.016,1.748,1.928,3.554,2.73,5.41c2.228,5.237,6.599,9.265,12,11.06   c3.78,1.21,7.28,5.63,5.36,8.31c-2.47,3.45-1.11,5.45,1.4,7.5c0.951,0.685,1.554,1.752,1.65,2.92l-0.3,0.06   c-2.61,2.71-5.81,0.66-8.31,0.25c-2-0.32,2.43-2.31,1-4.39c-2.4,1.27-4.67,2.9-7.65,1c-0.4-0.26-3.87-1.61-4.48,0.94   c-0.56,2.34-2.7,2.7-3.69,4c-2.7,3.61-7.82,5.16-8.68,10.24l-0.25,1.09c-4.44,2.79-10.28,4.19-10.73,10.9   c-0.245,0.14-0.473,0.308-0.68,0.5c-3-0.51-5.41-3-8.82-2.26c-4.269,1.031-8.734-0.66-11.25-4.26   c-0.104-0.256-0.235-0.501-0.39-0.73c0.1-1.986-0.526-3.941-1.76-5.5c-2.52-3.19-5.46-6.09-6.92-10   c-0.825-2.705-3.302-4.568-6.13-4.61l-0.54-0.93c1.38-6.21-2.17-10.24-8.6-9.76l-0.19-0.19c0.53-8,0-8.91-6.68-12.09l0,0   c-0.47-5.12-6.79-10.78-13.67-12.26v-0.05c-0.7-2.49-2.26-3.2-4.41-1.8c-1.33,0.86-3.13,1.82-4.06,1   c-3.46-3.17-7.1-1.18-10.69-0.94c-0.218-0.16-0.461-0.282-0.72-0.36c-0.87-1.69-1.95-2-3.27-0.45l-4-0.24   c-0.93-2.54-3.13-2.48-5.26-2.55c-2.14-1-4.3-2-6.79-1.6l-1.47-0.79v-1.77c0.7-2.35-0.81-3.33-2.59-3.05   c-3.37,0.52-6.12-0.89-9-2.08c-8.272-4.492-15.41-10.812-20.87-18.48c-4.38-6.16-9-12.1-13.64-18c-2.82-3.58-6.68-5.14-11.12-5.4   C357.905,177.074,354.799,175.975,352.274,173.992z"/>
	<path style="fill:#173948;" d="M554.554,36.262c0.6-2.4-0.2-5.58,3.54-6.25c0.76-0.14,1-0.9,0.9-1.59c-0.47-4.09,1-6.05,5.38-5.34   c2.2,0.36,1.82-1.67,1.94-2.72c0.37-3.38,2.38-5.08,5.21-6.65c8.064-4.36,16.417-8.162,25-11.38c7.16-2.77,15.41-3.43,22.34,0   c3.91,1.94,8.87,3.25,11.44,8.93c1.48,3.27,4.64,6.62,6.2,10.5c0.25,0.62,0.89,1.24,0.82,1.8c-1,7.78,4.71,13.34,6.88,20.07   c2,6.09,3.49,12.95,6.51,18c4.23,7.06,6.92,14.82,9.53,22.06c2.9,8,8.53,15.38,8.49,24.5c0,3.58,1.86,6.77,3.59,9.68   c3.14,5.29,4.79,10.77,4.27,16.88c-0.027,1.473,0.125,2.943,0.45,4.38c0.6,4,2.05,8.46-3.33,10.67c-1,0.39-1,1.29-0.94,2.1   c0.26,6.53-3.12,8.14-11.23,10.61c-0.009-0.499,0.065-0.996,0.22-1.47c3.05-5.6,8.34-10.89,2-17.63c-0.56-0.59,0-2.25,0-3.41   c0.07-1.55,0.07-3.24-1.67-3.76c-1.94-0.58-3.17,0.46-3.51,2.46l-0.77,1.27c-1.9,0.9-5.52-3.42-6,2c-0.32,1.83-1.51,2.1-3.19,2.25   c-1.48,0.13-2.59,1.38-0.54,2.37s1.17,2,0.47,3.06c-0.94,1.44-2,1.28-3.27,0.23c-2.24-1.91-4-1.21-5.86,0.86   c-1.16,1.29-2.92,2-4.41,3c-1.55-1.07-2.44,0.17-3.4,1s-2.42,1.84-3.54,0.81c-2.65-2.45-6.1-3.8-8.66-6.13   c-2.619-2.579-6.342-3.701-9.95-3c-1.23-0.54-2.61-0.87-3.16-2.33c2.14-4.1-1.83-8.38,0.76-12.57c-4.22,1-6.41,0.25-4.91-4.31   c0.84-2.56,0.23-4.4-2.38-5.69c-2-1-2.71-3.14-3.68-5.1c-1.58-3.19,2.1-3.16,3.13-5.07c-4.87,0.9-4.86,0.9-4-3.22   c0.31-1.48-0.31-2.72-1.72-1.56c-2.77,2.27-3.42,1.19-2.52-1.49c1.53-4.56-1-8.81-0.53-13.25c0.1-0.88-0.62-1.86-1.52-1.38   c-5.65,3-2.93-2-3.4-3.63c-0.78-2.72,1.74-6.54-2.75-8l-4.22-4.85c1.82-4.09,2-7.89-1.94-11l-1.62-2.82   c-0.24-2.82,0.61-6.12-3.27-7.31l-1.12-0.92l-0.83-1.13c0.039-0.3-0.061-0.602-0.27-0.82c-2.57-8.29-7.17-11.61-13.87-10l0,0   L554.554,36.262z"/>
	<path style="fill:#173948;" d="M647.004,180.742c1.22,0.19,2.45,0.4,3.43-0.68c6.55-5.5,14.67-3,21-1.47   c6.334,1.463,12.287,4.247,17.47,8.17c3.56,2.81,6.91,5.82,10.34,8.76c0.58,0.49,1.37,1.56,1.19,2c-1.87,4.32,2.48,6.67,3,9.9   c0.89,5.43,1.23,11.39-0.2,16.57c-0.79,2.86-2.85,5.43-2.15,8.77c0.31,1.46-0.17,3.07-1.26,3.54c-4.08,1.73-5.58,5.65-8.06,8.74   c-3.27-3.74-5.51-8.19-9.7-11.38c-3.33-2.53-4.65-1.26-5,1.43c-0.4,3.52-2,2.43-4,2c-4.24-0.91-8.72,2.88-12.93-0.51   c-0.466,0.418-0.88,0.891-1.23,1.41c-0.8,1.32-1.93,1-3.08,0.77c-1.63-0.7-3.28-1.37-4.9-2.11c-2.79-1.29-7.13-2-8-4.07   c-2.11-5-7.65-7.4-7.45-14.68c0.083-6.794-1.093-13.545-3.47-19.91c2.64-5.31,5.74-10.2,11-13.34c0.85-0.51,1.21-1.85,1.8-2.81   l-0.11,0.07C645.824,182.182,646.314,181.302,647.004,180.742z"/>
</g>

      </g>
    </g>
</g>

              </svg>