<?xml version="1.0" encoding="UTF-8"?><svg version="1.1" xmlns="http://www.w3.org/2000/svg" xmlns:xlink="http://www.w3.org/1999/xlink" viewBox="0 0 1200 800" width="1200" height="800" x="0px" y="0px">
              
              <!-- ITEM 0 -->
<g>
    <defs>
        
        <clipPath id="clip-path-id-viewbox-item-0">
            <rect x="0.0" y="0.0" width="800.0" height="536.311"/>
        </clipPath>
    </defs>
    <g transform="translate(200.0 132.0) rotate(0.0 400.0 268.0) scale(1.0 0.9994201125839298)">
      <g clip-path="url(#clip-path-id-viewbox-item-0)" transform="translate(-0.0 -0.0)">
      <g><g><path d="M165.626 474.643c-.431-1.99-.383-3.506.205-5.323s.694-4.072.191-5.994-.311-3.539.17-5.36c.481-1.82.62-3.969.186-5.853s-.344-3.611.175-5.501c.519-1.889.19-3.771.288-5.744.098-1.973-.286-2.092-1.393-2.797-.727-.447-.615-.655-.003-1.024 2.169-1.625 2.229-3.494.129-5.184-.688-.551-.542-.723.106-1.126 1.044-.637 1.461-1.542 1.526-2.493.066-.951-2.175-2.646-1.733-3.232.774-1.034 1.968-1.949 1.943-3.397.011-.353.025-.776.075-1.233l.03-.952c.01-.317.021-.67-.038-1.025-.062-1.378-.512-2.769-1.148-3.848l-.505-.757-.236-.36-.271-.362-.506-.722-.543-.688c-.338-.47-.712-.905-1.014-1.409l-.507-.722c-.168-.253-.302-.504-.505-.757-.883.007-2.106-.385-3.828-.616-.416-.225-.717-.764-1.121-1.377-.442-.543-1.023-1.127-1.901-1.26-.21-.042-.456-.085-.737-.129l-.95-.101c-.07-.002-.176-.006-.246-.043l-.247-.008c-.141-.004-.282-.009-.387-.048l-.845-.062c-1.162-.072-2.433-.077-3.463.137-2.061.429-3.223.356-4.901-.156s-4.25-.664-6.311-.201c-2.025.43-3.329.353-5.043-.125-1.75-.479-4.318-.737-6.135-.195-1.853.541-3.574.275-5.358-.206-1.785-.48-3.828-.616-5.678-.145s-3.82.267-5.817-.22-3.663-.258-5.534-.247c-.107.032-.953.005-1.306-.006-.705-.022-1.449.06-2.192.107-.71.119-1.455.236-2.132.462-.712.189-1.357.486-1.967.82-.612.369-1.188.739-1.628 1.254-1.861 1.917-3.036 3.362-4.686 5.287-.439.48-.704 1.037-.967 1.558-.23.557-.388 1.117-.512 1.678-.088.562-.178 1.159-.196 1.723l-.028.882c-.008.247-.016.494-.059.739-.125 1.725.288 3.15 2.231 4.201-2.339 1.408-3.281 3.284-1.948 4.668 1.333 1.384 1.279 1.947-.102 3.209-1.38 1.227-.621 2.875 1.468 4.882-1.258.701-2.237 1.517-2.245 2.893-.044 1.375-.487 4.22-.091 6.209.431 1.99.321 3.222-.158 4.972-.479 1.75-.594 4.252-.165 6.313s.429 3.155-.156 4.901c-.62 1.745-.177 3.347-.337 5.036s.212 3.324 2.19 4.376c-3.246 2.191-3.276 4.237-.236 6.31-3.377 1.869-2.977 4.811-.168 6.383-.704-.058-1.433.66-2.184 2.084-.133 3.067-1.291 6.206.45 9.156.202.324.054.531-.132.808-1.412 2.214-1.264 3.136.862 5.075-.63-.161-1.295.771-1.957 2.726-.032 2.117-.136 4.266-.202 6.347.014.671.306 1.492.925 2.006.619.514.613.69.067 1.237-1.751 1.78-1.659 3.336.267 4.915.69.516.611.761-.071 1.127-.54.336-.905.713-1.13 1.129-.074.103-.113.208-.151.313l-.12.455c-.045.316-.091.632-.067.986.049.672.692 1.54 1.413 2.198.343.328.687.587.926.841.24.219.374.436.334.611-.084.421-.168.842-.217 1.264s-.062.845-.005 1.271c.022.424.149.852.313 1.245.099.215.198.43.298.61.135.181.27.397.476.58.682.763 1.568 1.744 2.672 2.556 1.068.811 2.39 1.417 3.586 1.561 1.197.109 2.357.251 3.482.393l.844.097.631.126c.421.084.841.203 1.295.359 1.539.437 2.25-1.94 3.043-1.35 1.035.739 1.962 1.58 3.232 1.585 1.835.023 3.705.047 5.572.142.53-.018 1.308-.064 1.818-.577.511-.513.963-.322 1.695-.017 3.097 1.404 6.315 1.189 9.478.513.539-.3.866-.608.947-.923.408-.622.618-.58 1.024-.003 1.698 2.101 3.001 2.178 4.963.44.364-.341.546-.512.99-.039 2.123 2.044 3.256 1.939 5.48-.285-.195.594.738 1.223 2.765 1.853 1.268.076 2.051-1.241 2.974-1.388s1.717 1.502 2.983 1.648c.669.057 1.142-.387 1.933-.856.684-.437 1.228-.879 1.855-.612 1.57.579 3.227.632 4.844-.27 1.617-.902 3.176-2.193 4.349-3.568.219-.24.402-.446.551-.688l.447-.727c.262-.486.42-1.01.471-1.503.086-.491-.004-.988-.166-1.452-.098-.25-.197-.465-.331-.681-.134-.216-.339-.434-.544-.653.465-.197.93-.394 1.292-.665s.688-.543.946-.888c.257-.309.409-.658.561-1.006.076-.174.117-.349.158-.524.04-.14.044-.281.048-.387.068-1.021-.674-2.104-2.155-3.28 3.106-2.231 3.155-3.747.17-6.454.701.163 1.394-.556 2.115-2.121.061-3.034 1.216-6.067-.454-9.05-.133-.251-.231-.501-.012-.742 1.756-1.956 1.177-3.704-.82-5.285 1.151-.669 1.953-1.491 1.99-2.655.037-1.164.595-4.287.096-6.35-.499-2.063-.279-3.433.2-5.182.479-1.787.588-4.078.157-6.068z" fill="#382D16"/><path d="M158.463 509.005c.512-1.678.612-3.722.175-5.501-.473-1.78-.285-3.256.157-4.936.442-1.68.574-3.617.17-5.36-.403-1.742-.319-3.293.16-5.042.478-1.714.18-3.453.237-5.251.092-1.797-.292-1.915-1.294-2.582-.658-.409-.58-.619-.006-.918 1.989-1.49 2.044-3.217.116-4.761-.619-.514-.508-.687.103-1.02.971-.569 1.315-1.405 1.414-2.285.099-.879-2.005-2.429-1.601-2.945.701-.966 1.786-1.779 1.793-3.12.007-1.341.427-3.445.056-5.081s-.533-3.229.223-4.793c-.479-.474-.947-1.301-1.368-2.479.091-.632 1.527-1.399 1.529-2.563.001-1.129.443-3.939.044-5.822s-.33-2.94.142-4.478c.472-1.538.618-3.898.184-5.783-.399-1.883-.327-3.046.113-4.655.438-1.574.69-3.931.179-5.642-.222-.784-.303-1.563-.279-2.338.012-.388.06-.775.143-1.16l.044-.281.002-.071.003-.106.044-.281.142-1.125.05-.457c.061-.81-.02-1.589-.279-2.338-.259-.749-.695-1.469-1.277-2.017-.581-.583-1.31-.995-2.042-1.265-.769-.236-1.578-.332-2.393-.217-.425.057-.814.08-1.203.103l-.141-.004-.07-.002-.177.03-.318.025c-.46.021-.884.043-1.341-.007-.458-.015-.916-.064-1.372-.149-.35-.082-1.159-.178-1.793-.233-1.056-.104-2.334.138-3.552.699-.608.263-1.184.598-1.725.969-.541.371-1.049.814-1.486 1.223-.509.478-.914.995-.914.995l-.256.274-.182.171-.363.306-.757.505c-.504.302-1.007.603-1.444 1.013-.472.409-.973.64-1.504.693-.248.027-.53.018-.775-.06l-.526-.123c-.21-.042-.385-.118-.594-.195-1.642-.546-3.066-.133-4.58-.251-1.514-.119-2.903.261-3.842 2.066-1.309-2.124-3.01-3.025-4.284-1.795-.62.616-1.087.883-1.51.87-.212-.007-.456-.085-.627-.267-.171-.182-.34-.399-.506-.722-.332-.646-.644-.832-1.178-.708-.533.124-1.288.559-2.432 1.017.055-.633.109-1.197.088-1.656-.021-.459-.114-.851-.388-1.107-.068-.073-.137-.145-.204-.254l-.271-.362c-.203-.289-.71-.976-1.222-1.521-.547-.547-1.166-1.061-1.824-1.47-.658-.409-1.39-.679-2.056-.842-1.367-.291-2.388-.394-3.408-.497l-.387-.048-.316-.045c-.176-.006-.351-.047-.527-.087-.351-.047-.736-.165-1.122-.247-.385-.118-.841-.203-1.298-.253l-.351-.046-.176-.006-.106-.003-.176-.006c-.494-.016-.986-.067-1.481-.047-.988.004-1.913.221-2.74.689-.826.433-1.482 1.082-1.963 1.808-.447.727-.716 1.424-.843 2.091-.126.631-.181 1.265-.2 1.864-.01.317-.019.599-.064.916l-.007.212-.003.106-.002.071-.043.246c-.082.35-.163.701-.318 1.119-.545 1.606-.168 3.065-.288 4.615-.155 1.548.221 3.042 2.027 3.982-2.994 2.023-3.018 3.892-.219 5.781-3.09 1.702-2.717 4.431-.151 5.854-.669-.057-1.325.593-2.002 1.913-.125 2.82-1.17 5.716.403 8.413.203.289.055.496-.095.774-1.299 2.006-1.15 2.858.805 4.649-.56-.159-1.187.704-1.774 2.52l-.185 5.818c.015.636.275 1.35.859 1.863.584.513.579.654.07 1.132-1.604 1.608-1.509 3.058.246 4.49.62.478.543.688-.068 1.021-.972.604-1.351 1.404-1.414 2.285s2.002 2.534 1.599 2.98c-.916 1.065-1.824 1.848-1.834 3.295.025 1.448-.499 3.478-.019 5.047.478 1.603.323 3.152-.221 4.723-.397 1.399 1.77 2.068 1.252 2.793-.666.967-1.469 1.789-1.47 2.953-.017 1.658-.072 3.386-.127 5.114.02.495.068 1.202.512 1.675.444.473.289.892.021 1.554-1.291 2.853-1.102 5.789-.488 8.703.266.503.575.795.855.874.553.371.547.547.004.988-1.92 1.563-1.994 2.76-.428 4.575l.202.324c.067.108.099.215.096.321.029.213-.049.422-.273.803-.975 1.804-.675 3.473.282 4.456s2.604 1.353 4.399.422c-.219.24-.053.563.643.867.174.076.383.153.628.232l.385.118.243.114c.348.152.733.27 1.222.427 1.162.072 1.907-1.139 2.724-1.29l2.741 1.499c1.16.143 2.14-1.803 3.001-1.14 1.033.809 2.006 1.299 3.206 1.302 1.235.004 2.575.047 3.773.12 1.62.122 2.972-.223 3.878-2.065 1.916 3.026 3.679 3.082 5.848.362 2.062 2.854 3.437 2.898 5.89.152-.126.631.524 1.287 1.949 1.968 2.787.053 5.576 1.13 8.272-.408.216-.134.431-.233.671-.014 1.784 1.61 3.424 1.097 4.86-.763.673 1.045 1.355 1.773 2.449 1.807l.494.016.669.057c.846.027 1.935.203 2.895-.014.959-.181 1.962-.644 2.723-1.29.762-.646 1.283-1.512 1.521-2.317.237-.804.296-1.544.321-2.319l-.001-1.094.017-.529.009-.282c.059-.739.188-1.477.425-2.281.441-1.645.541-3.689.141-5.537-.409-1.852-.508-3.16.003-4.803z" fill="#fff"/></g><g><path d="M588.673 257.134c.118-4.981-.548-9.096-3.427-11.947 2.099-2.721 3.618-6.196 3.562-9.682-.051-3.168-2.391-5.623-2.385-8.741.006-2.982 2.292-5.32 2.387-8.333.113-3.608-1.593-7.173-3.306-10.243 4.681-5.582 3.493-15.036 3.286-21.88-.132-4.358-.902-8.653-.795-13.024.108-4.434.846-8.814.929-13.254.163-8.729-1.545-17.084-.418-25.801.621-4.807.122-9.685.181-14.516.049-4.06-.256-8.879-3.379-11.88 4.605-6.631 4.557-12.591.054-18.264 2.683-3.214 4.091-7.866 2.743-11.944-1.361-4.117-6.081-8.085-10.609-6.239.706-1.782-6.031-3.198-6.866-3.396-8.511-.063-17.003-1.315-25.383.752-3.395.837-6.278-.972-9.723-1.043-3.053-.062-5.755 1.194-8.336 2.71.431-.913-2.315-1.823-8.113-2.69-3.687.003-7.374.006-11.061.01-3.396.003-7.064-.408-10.394.386-3.055.728-3.706 2.174-6.81.964-2.848-1.11-5.7-1.819-8.758-1.217-2.14.421-4.878 2.959-6.914 2.731-1.061-.119-2.271-1.45-3.256-1.863-1.343-.564-2.808-.846-4.258-.941-2.391-.157-4.36.743-6.533 1.632-2.362.966-3.186 1.219-5.547.268-11.414-4.597-23.768-.405-35.561-1.388-2.733-.228-5.307-.945-7.95.075-1.696.654-2.897 1.827-4.796 1.537-2.695-.411-5.105-1.864-7.899-2.101-3.774-.32-7.68-.009-11.467-.004-3.427.005-7.351-.503-10.677.566-3.349 1.077-5.787.296-9.258-.201-7.917-1.133-15.967-.674-23.873.315-1.528.458-2.412.92-2.645 1.384-2.258 1.76-6.022-1.726-8.626-2.112-1.543-.229-3.113-.121-4.628.237-1.734.41-3.422 1.661-5.137 1.906-2.624.375-5.788-2.069-8.606-2.24-3.235-.195-6.245 1.13-9.034 2.633.537-.869-2.241-1.736-8.186-2.553-3.053-.027-5.521 1.939-8.467 2.151-2.9.209-5.453-1.946-8.325-2.178-3.021-.244-5.213 1.797-8.07 2.049-2.347.207-4.83-1.241-7.156-1.657-6.878-.738-12.719 5.074-13.548 11.634-.691 5.468-1.258 14.078 3.279 18.114-4.655 6.344-4.672 11.897-.254 18.45-4.387 6.762-4.37 11.149.043 18.64-1.004-.398-2.006 1.725-2.984 6.319.03 7.948-1.265 16.03.488 23.885.348 1.561.896 2.788.622 4.368-.309 1.78-1.191 3.37-1.356 5.231-.316 3.578.77 7.041 2.779 9.987-3.126 3.932-2.765 8.701-2.909 13.44-.171 5.638.308 11.051.694 16.656.402 5.841-.72 11.541-.882 17.361-.188 6.747 1.179 13.38 1.023 20.108-.152 6.561-1.429 12.912-.991 19.517.375 5.652 1.378 11.312 3.965 16.401 2.784 5.478 7.165 10.06 13.061 12.105 6.055 2.1 12.093.38 18.304.386 3.866.004 7.657.641 11.508.808 3.95.172 7.904-.115 11.854-.151 2.23-.02 4.899.306 7.011-.607 1.838-.795 3.057-3.297 5.154-1.604 2.967 1.869 6.499 2.714 9.967 2.052 3.016-.576 5.489-3.561 8.297-1.997 2.711 1.509 5.796 2.647 8.954 1.871 2.294-.564 4.729-2.621 7.133-2.497 2.742.142 5.452 2.269 8.281 2.625 3.203.404 6.612.202 9.84.251 7.848.121 15.753-1.902 23.533-.213 1.41-.771 4.043-1.536 7.874-2.287 1.793.066 3.43 1.257 5.104 1.781 1.828.573 3.655.496 5.544.532 4.597.088 9.207.31 13.8-.019 4.708-.338 9.228-.936 13.955-.457 4.909.498 9.716.94 14.663.757 4.982-.184 9.896-1.115 14.895-.96 4.837.15 9.606.987 14.457 1.039 5.623.061 11.115-1.173 16.726-1.082 5.716.093 11.346 1.15 17.076 1.068 6.607-.095 13.01-1.277 19.653-.852 6.862.439 13.511.572 20.388.497.34-.073.856-.144 1.538-.211 0 0 6.302-.468 7.411-.786 2.395-.688 4.716-1.736 6.789-3.123 4.319-2.89 7.003-7.085 8.542-11.987 2.831-9.027 1.988-18.739 2.209-28.024z" fill="#4F73B6"/><path d="M620.792 7.809c1.453-8.022-8.636-7.685-13.607-7.767-7.515-.124-14.752.653-22.276.083-7.705-.584-15.333 1.265-22.98.434-4.495-.488-8.849-.461-13.369-.418-3.472.033-7.506.036-10.111 2.745-5.405-3.753-10.263-3.715-14.888-.044-4.668-3.897-11.574-3.312-15.07.051.074-.839-1.637-1.677-5.104-2.498-7.147-.053-13.708-.366-20.792.656-2.659.384-4.701-.741-7.381-.857-2.708-.117-4.925.814-7.239 2.173.351-.745-1.887-1.486-6.614-2.193-6.669.006-13.272-.446-19.682 1.172-3.11.785-5.63-1.411-8.993-1.245-2.576.127-4.967 2.649-7.298 2.366-.906-.11-2.035-1.318-2.992-1.665-1.309-.474-2.903-.718-4.287-.563-2.229.249-4.295 2.131-6.5 2.184-2.588.063-5.559-2.015-8.309-2.213-3.094-.223-6.337-.243-9.441-.181-3.221.064-6.377.731-9.598.765-3.419.036-6.992-1.128-10.286-.029-2.133.711-2.685 1.323-5.016.777-3.497-.82-6.085-1.342-9.75-1.315-3.283.024-6.595-.128-9.875.011-2.951.125-5.307 1.207-8.269.813-7.599-1.01-14.726-1.205-22.367-.25-1.246.373-1.966.75-2.156 1.128-1.862 1.451-5.268-1.572-7.526-1.783-2.754-.257-4.646 1.494-7.176 1.676-2.395.173-4.618-1.506-7.11-1.686-2.716-.196-5.219.876-7.56 2.138.438-.709-1.826-1.415-6.673-2.081-2.187-.019-3.796 1.184-5.857 1.544-2.198.383-3.464-.411-5.506-1.027-4.089-1.234-7.077 1.472-10.994.784-4.895-.859-9.168-1.261-14.199-1.3-4.226-.033-9.807-.774-12.96 2.769-3.258-2.391-6.908-3.506-10.438-.867-3.345 2.501-4.508 7.99-1.228 11.085-.068.536-.008 1.047.034 1.583-.069 5.716 2.796 9.21 7.645 11.964-.871.127-.717 2.035.459 5.678 3.529 6.082 6.333 12 10.815 17.463 1.728 2.105 1.63 4.494 2.911 6.894 1.267 2.375 3.316 4.167 5.727 5.333-.822 5.447 3.298 11.826 7.902 14.487 5.432 3.139 11.337 1.024 17.206 1.291 5.657.258 11.024.826 16.643.504l-.011.044c-.214.447-.41.929-.497 1.419-.285 3.514-.13 7.035-.14 10.557 4.544.053 12.099 1.824 14.396-3.342 3.129 4.592 5.867 4.608 9.099.25 3.335 4.327 5.498 4.311 9.193-.043-.196.99.851 1.979 3.117 2.943 4.528-.035 7.999.631 12.386-.796 1.976-.643 2.363.895 4.419 1.058 2.003.158 3.518-1.239 4.633-2.761 3.622 5.758 12.345 1.642 17.665 2.124 3.593.326 6.639 1.281 10.308.645 2.183-.378 4.15-.906 6.388-.631 1.984.244 3.814.929 5.837 1.002 4.172.152 7.74-1.472 11.977-.677 4.225.793 7.509-.02 11.685-.323 2.165-.157 4.084.413 6.199.687 2.127.276 4.295-.025 6.427-.08 1.271-.033 2.587.122 3.612-.749.767-.652 1.32-3.16 2.385-1.44 1.301 1.639 3.159 2.839 5.243 1.889 1.271-.579 2.084-2.825 3.388-2.383.531.18 1.064 1.485 1.662 1.885.684.458 1.704.855 2.539.717 1.405-.231 2.004-1.778 3.221-2.277 1.417-.581 1.779.325 3.019 1.177 1.783 1.226 3.349 1.117 5.43 1.203 4.192.173 9.022-1.868 12.981-.15.696-.761 1.994-1.515 3.883-2.255 1.146.084 1.949 1.596 2.989 2.005 1.039.409 2.312.286 3.421.332 3.327.139 6.29-.559 9.555-.75 3.012-.176 5.883 1.062 8.921 1.02 3.27-.044 6.359-1.339 9.645-.891 3.008.41 5.786 1.254 8.866.762 1.883-.301 3.552-.958 5.498-.902 1.816.052 3.531.577 5.315.846 3.728.562 7.021-.865 10.689-.802 1.858.032 3.615.518 5.445.74 2.242.272 4.475-.039 6.72-.089.168-.072.422-.142.759-.208l5.768-.017-.201-5.672c.566-.193.386-4.415.411-5.375l.02-1.239c1.201-.05 2.405-.076 3.614-.033 6.169.218 19.174.929 20.089.37 2.26 2.189 9.682-3.453 10.963-4.921 2.794-3.203 4.08-7.414 6.113-11.08 2.335-4.21 5.623-7.739 8.027-11.916 2.388-4.149 6.537-9.152 5.253-14.275 3.279-1.269 6.458-3.78 7.433-7.289.853-3.071.483-4.826 3.119-6.994 3.818-3.132 7.616-9.16 3.259-13.884z" fill="#F0C418"/><path d="M615.548 11.802c-.17-.372-.295-.56-.311-.873-1.047-7.277-10.258-5.529-15.067-2.935.419-.678-1.747-1.353-6.383-1.99-2.088-.018-3.647 1.136-5.603 1.477-1.859.324-2.912-.201-4.695-.761-4.393-1.382-7.535 1.377-11.732.307-4.361-1.112-8.459-.988-12.937-1.022-4.057-.031-9.378-.744-12.396 2.649-4.947-3.63-9.277-3.643-14.386-.198-5.272-3.421-8.693-3.408-14.533.034.31-.783-1.345-1.565-4.927-2.327-6.685.026-12.893-.436-19.519.615-2.552.405-4.28-.666-6.848-.827-2.703-.169-5.305.671-7.527 2.187-3.602-2.864-8.92-2.285-13.272-2.331-5.37-.056-10.669.968-16.034.562-5.858-.443-11.373-.765-17.248-.163-5.815.596-11.308-.458-17.094-.56-6.045-.107-11.903 1.131-17.969.634-6.894-.566-13.353.077-20.219.197-6.126.107-12.225-.609-18.379-.514-2.065.032-4.491-.306-6.422.595-1.373.641-2.156 2.441-3.771 1.138-2.649-1.669-5.859-2.234-8.877-1.33-2.44.731-3.044 1.855-5.363 1.287-2.812-.689-4.459-2.074-7.541-1.291-1.676.426-3.245 1.781-5.02 1.745-2.123-.043-4.374-1.746-6.572-2.029-2.443-.315-5.077-.151-7.542-.178-6.112-.066-12.291 1.479-18.347.165-1.099.601-3.152 1.198-6.14 1.783-2.41-.089-4.653-1.626-7.187-1.786-2.771-.175-5.618-.164-8.392-.129-5.926.075-11.449.704-17.384.123-6.626-.649-13.288.105-19.903.514-6.281.388-8.022 4.488-5.343 9.91 1.835 3.713 3.999 7.288 6.457 10.612 4.22 5.709 6.322 12.392 10.121 18.339 1.88 2.943 4.105 5.614 5.833 8.66 1.907 3.361 3.266 6.986 5.166 10.35 1.845 3.268 3.712 6.666 7.637 7.733.526.082 1.329.207 2.383.161l.003-4.346h.155l.152 4.4c.948 1.385 11.392.345 13.176.216 4.278-.31 8.271-.741 12.564-.26 4.127.463 8.177.326 12.323.252 3.307-.059 6.824-.157 9.315-2.672 2.041 1.575 4.7 2.775 7.323 2.777 2.56.002 4.542-1.887 7.043-1.869 2.389.017 4.269 1.815 6.707 1.873 2.713.064 5.485-1.302 7.776-2.581 4.438 3.722 12.666 2.813 18.092 2.523 6.535-.35 12.693-.008 19.212.14 6.716.152 13.201-1.118 19.909-.385 5.449.596 16.782 1.995 21.036-2.432 5.17 3.59 9.817 3.553 14.241.042 4.465 3.727 11.07 3.168 14.415-.049-.07.803 1.566 1.604 4.882 2.389 6.811.051 13.079.46 19.824-.612 2.519-.401 4.428.644 6.952.805 2.635.167 4.86-.765 7.096-2.079-.336.712 1.805 1.422 6.326 2.097 4.741-.004 9.618.328 14.345-.013 1.638-.118 2.963-.857 4.48-1.108 2.088-.345 2.086-.203 4.322.501 1.849.582 3.7.897 5.631.533 1.669-.315 3.317-2.004 4.858-2.14 1.406-.124 2.845 1.392 4.199 1.8 1.688.509 3.312.49 4.982.045 3.649-.973 4.158-2.006 7.867-.695 3.562 1.259 7.211 1.108 10.943 1.186 4.092.086 8.05-.658 12.12-.701 4.081-.043 7.621 1.216 11.396-.761 3.434-1.053 5.155-.769 7.686-3.618 3.078-2.896 4.924-7.174 7.091-10.75 1.78-2.937 2.607-6.302 4.319-9.113 1.817-2.982 4.671-5.46 6.582-8.465 2.194-3.449 4.027-7.118 5.693-10.847.312-1.204.36-1.98.145-2.323-.267-2.262 4.011-3.749 5.339-5.484 1.564-2.044 4.143-6.148 2.766-8.809z" fill="#fff"/><path d="M474.467 275.589c-.185-7.156-.766-14.276-.654-21.441.1-6.473.276-13.056-.177-19.517.388-6.575.391-13.284.203-19.867-.184-6.452-3.707-11.516-10.546-11.93-4.205-.255-8.489-.314-12.696-.3-6.312.021-13.593-.949-19.682 1.072-3.172-.732-6.474-1.141-9.732-1.099-3.008.039-5.939.833-8.95.775-2.651-.051-5.24-.677-7.899-.684-3.349-.008-6.697.469-9.986 1.062-4.315-1.099-8.726-.936-13.14-.942-2.246-.003-4.667-.232-6.874.177-7.784 1.442-8.502 8.423-8.355 14.881.414 18.267-.197 36.569-.04 54.839.042 4.833.46 9.526 5.291 12.029 2.811 1.457 6.454 1.34 9.437.391 6.38 1.467 12.013 1.486 18.136.124 5.698 1.438 12.529 1.85 18.227.171 7.281 2.133 15.87 1.502 23.411 1.525 4.159.012 8.332-.454 12.468-.015 3.293.349 8.042.469 10.425.108 5.647.061 11.939-5.269 11.133-11.359z" fill="#F0C418"/><g fill="#F0C418"><path d="M527.702 104.258c.024 4.308-.274 8.704.016 13.007.724-.043 1.358-.117 1.848-.238 1.336.306 2.78.477 4.104.035 1.025.388 2.394.502 3.421.048 2.066.909 6.352.817 8.585.498l2.016.015-.02-1.948c.039-2.935.048-6.121-.251-9.039.105-2.295.001-4.581.019-6.876-2.142-.018-5.878-.777-7.865.212-1.801-.624-5.032-.48-6.864.015-1.54-.589-3.522-.266-5.102-.267.004 1.514.049 3.025.093 4.538zM501.87 104.258c.024 4.308-.274 8.704.016 13.007.724-.043 1.358-.117 1.848-.238 1.336.306 2.78.477 4.104.035 1.025.388 2.394.502 3.421.048 2.066.909 6.352.817 8.585.498l2.016.015-.02-1.948c.039-2.935.048-6.121-.251-9.039.105-2.295.001-4.581.019-6.876-2.142-.018-5.878-.777-7.865.212-1.801-.624-5.032-.48-6.864.015-1.54-.589-3.522-.266-5.102-.267.004 1.514.049 3.025.093 4.538zM476.039 104.258c.024 4.308-.274 8.704.016 13.007.724-.043 1.358-.117 1.848-.238 1.336.306 2.78.477 4.104.035 1.025.388 2.394.502 3.421.048 2.066.909 6.352.817 8.585.498l2.016.015-.02-1.948c.039-2.935.048-6.121-.251-9.039.105-2.295.001-4.581.019-6.876-2.142-.018-5.878-.777-7.865.212-1.801-.624-5.032-.48-6.864.015-1.54-.589-3.522-.266-5.102-.267.003 1.514.048 3.025.093 4.538zM450.207 104.258c.024 4.308-.274 8.704.016 13.007.724-.043 1.358-.117 1.848-.238 1.336.306 2.78.477 4.104.035 1.025.388 2.394.502 3.421.048 2.066.909 6.352.817 8.585.498l2.016.015-.02-1.948c.039-2.935.048-6.121-.251-9.039.105-2.295.001-4.581.019-6.876-2.142-.018-5.878-.777-7.865.212-1.801-.624-5.032-.48-6.864.015-1.54-.589-3.522-.266-5.102-.267.004 1.514.049 3.025.093 4.538zM424.375 104.258c.024 4.308-.274 8.704.016 13.007.724-.043 1.358-.117 1.848-.238 1.336.306 2.78.477 4.104.035 1.025.388 2.394.502 3.421.048 2.066.909 6.352.817 8.585.498l2.016.015-.02-1.948c.039-2.935.048-6.121-.251-9.039.105-2.295.001-4.581.019-6.876-2.142-.018-5.878-.777-7.865.212-1.801-.624-5.032-.48-6.864.015-1.54-.589-3.522-.266-5.102-.267.004 1.514.049 3.025.093 4.538zM398.543 104.258c.024 4.308-.274 8.704.016 13.007.724-.043 1.358-.117 1.848-.238 1.336.306 2.78.477 4.104.035 1.025.388 2.394.502 3.421.048 2.066.909 6.352.817 8.585.498l2.016.015-.02-1.948c.039-2.935.048-6.121-.251-9.039.105-2.295.001-4.581.019-6.876-2.142-.018-5.878-.777-7.865.212-1.801-.624-5.032-.48-6.864.015-1.54-.589-3.522-.266-5.102-.267.004 1.514.049 3.025.093 4.538zM372.712 104.258c.024 4.308-.274 8.704.016 13.007.724-.043 1.358-.117 1.848-.238 1.336.306 2.78.477 4.104.035 1.025.388 2.394.502 3.421.048 2.066.909 6.352.817 8.585.498l2.016.015-.02-1.948c.039-2.935.048-6.121-.251-9.039.105-2.295.001-4.581.019-6.876-2.142-.018-5.878-.777-7.865.212-1.801-.624-5.032-.48-6.864.015-1.54-.589-3.522-.266-5.102-.267.003 1.514.048 3.025.093 4.538zM346.88 104.258c.024 4.308-.274 8.704.016 13.007.724-.043 1.358-.117 1.848-.238 1.336.306 2.78.477 4.104.035 1.025.388 2.394.502 3.421.048 2.066.909 6.352.817 8.585.498l2.016.015-.02-1.948c.039-2.935.048-6.121-.251-9.039.105-2.295.001-4.581.019-6.876-2.142-.018-5.878-.777-7.865.212-1.801-.624-5.032-.48-6.864.015-1.54-.589-3.522-.266-5.102-.267.003 1.514.049 3.025.093 4.538zM321.048 104.258c.024 4.308-.274 8.704.016 13.007.724-.043 1.358-.117 1.848-.238 1.336.306 2.78.477 4.104.035 1.025.388 2.394.502 3.421.048 2.066.909 6.352.817 8.585.498l2.016.015-.02-1.948c.039-2.935.048-6.121-.251-9.039.105-2.295.001-4.581.019-6.876-2.142-.018-5.878-.777-7.865.212-1.801-.624-5.032-.48-6.864.015-1.54-.589-3.522-.266-5.102-.267.004 1.514.049 3.025.093 4.538zM295.216 104.258c.024 4.308-.274 8.704.016 13.007.724-.043 1.358-.117 1.848-.238 1.336.306 2.78.477 4.104.035 1.025.388 2.394.502 3.421.048 2.066.909 6.352.817 8.585.498l2.016.015-.02-1.948c.039-2.935.048-6.121-.251-9.039.105-2.295.001-4.581.019-6.876-2.142-.018-5.878-.777-7.865.212-1.801-.624-5.032-.48-6.864.015-1.54-.589-3.522-.266-5.102-.267.004 1.514.049 3.025.093 4.538zM295.012 128.898c.024 4.301-.054 8.596-.029 12.898.824.004 3.996.419 4.681-.315 1.346.464 2.535.47 3.827.039 1.152.436 2.691.565 3.846.054 1.463.643 3.404.489 4.982.483 1.493-.006 3.204.286 4.67.076l2.268.03-.023-2.203c.044-3.298.059-6.884-.283-10.161.094-1.995.116-4.005.064-6.001-2.99.101-7.966-1.058-10.655.28-2.025-.701-5.656-.539-7.716.017-1.734-.662-3.935-.299-5.735-.3.002 1.703.053 3.403.103 5.103zM327.679 128.898c.024 4.301-.054 8.596-.029 12.898.824.004 3.996.419 4.681-.315 1.346.464 2.535.47 3.827.039 1.152.436 2.691.565 3.846.054 1.463.643 3.404.489 4.982.483 1.493-.006 3.204.286 4.67.076l2.268.03-.023-2.203c.044-3.298.059-6.884-.283-10.161.094-1.995.116-4.005.064-6.001-2.99.101-7.966-1.058-10.655.28-2.025-.701-5.656-.539-7.716.017-1.734-.662-3.935-.299-5.735-.3.003 1.703.054 3.403.103 5.103zM360.347 128.898c.024 4.301-.054 8.596-.029 12.898.824.004 3.996.419 4.681-.315 1.346.464 2.535.47 3.827.039 1.152.436 2.691.565 3.846.054 1.463.643 3.403.489 4.982.483 1.493-.006 3.204.286 4.67.076l2.268.03-.023-2.203c.044-3.298.059-6.884-.283-10.161.094-1.995.116-4.005.064-6.001-2.99.101-7.966-1.058-10.655.28-2.025-.701-5.656-.539-7.716.017-1.734-.662-3.935-.299-5.735-.3.003 1.703.053 3.403.103 5.103zM393.015 128.898c.024 4.301-.054 8.596-.029 12.898.824.004 3.996.419 4.681-.315 1.346.464 2.535.47 3.827.039 1.152.436 2.691.565 3.846.054 1.463.643 3.403.489 4.981.483 1.493-.006 3.204.286 4.67.076l2.268.03-.023-2.203c.044-3.298.059-6.884-.283-10.161.094-1.995.116-4.005.064-6.001-2.99.101-7.966-1.058-10.655.28-2.025-.701-5.656-.539-7.716.017-1.734-.662-3.935-.299-5.735-.3.003 1.703.054 3.403.104 5.103zM425.682 128.898c.024 4.301-.054 8.596-.029 12.898.824.004 3.996.419 4.681-.315 1.346.464 2.535.47 3.827.039 1.152.436 2.691.565 3.846.054 1.463.643 3.404.489 4.982.483 1.493-.006 3.204.286 4.67.076l2.268.03-.023-2.203c.044-3.298.059-6.884-.283-10.161.094-1.995.116-4.005.064-6.001-2.99.101-7.966-1.058-10.655.28-2.025-.701-5.656-.539-7.716.017-1.734-.662-3.935-.299-5.735-.3.003 1.703.054 3.403.103 5.103zM458.35 128.898c.024 4.301-.054 8.596-.029 12.898.824.004 3.996.419 4.681-.315 1.346.464 2.535.47 3.827.039 1.152.436 2.691.565 3.846.054 1.463.643 3.404.489 4.982.483 1.493-.006 3.204.286 4.67.076l2.268.03-.023-2.203c.044-3.298.059-6.884-.283-10.161.094-1.995.116-4.005.064-6.001-2.99.101-7.966-1.058-10.655.28-2.025-.701-5.656-.539-7.716.017-1.734-.662-3.935-.299-5.735-.3.003 1.703.053 3.403.103 5.103zM342.369 153.186c.024 4.301-.054 8.596-.029 12.898.824.004 3.996.419 4.681-.315 1.346.464 2.535.47 3.827.039 1.152.436 2.691.565 3.846.054 1.463.643 3.404.489 4.982.483 1.493-.006 3.204.286 4.67.076l2.268.03-.023-2.203c.044-3.298.059-6.884-.283-10.161.094-1.995.116-4.005.064-6.001-2.99.101-7.966-1.058-10.655.28-2.025-.701-5.656-.539-7.716.017-1.734-.662-3.935-.299-5.735-.3.002 1.703.053 3.402.103 5.103zM344.748 177.473c.024 4.301-.054 8.596-.029 12.898.824.004 3.996.419 4.681-.315 1.346.464 2.535.47 3.827.039 1.152.436 2.691.565 3.846.054 1.463.643 3.404.489 4.982.483 1.493-.006 3.204.286 4.67.076l2.268.03-.023-2.203c.044-3.298.059-6.884-.283-10.161.094-1.995.116-4.005.064-6.001-2.99.101-7.966-1.058-10.655.28-2.025-.701-5.656-.539-7.716.017-1.734-.662-3.935-.299-5.735-.3.003 1.703.053 3.403.103 5.103zM375.036 153.186c.024 4.301-.054 8.596-.029 12.898.824.004 3.996.419 4.681-.315 1.346.464 2.535.47 3.827.039 1.152.436 2.691.565 3.846.054 1.463.643 3.403.489 4.982.483 1.493-.006 3.204.286 4.67.076l2.268.03-.023-2.203c.044-3.298.059-6.884-.283-10.161.094-1.995.116-4.005.064-6.001-2.99.101-7.966-1.058-10.655.28-2.025-.701-5.656-.539-7.716.017-1.734-.662-3.935-.299-5.735-.3.003 1.703.054 3.402.103 5.103zM407.704 153.186c.024 4.301-.054 8.596-.029 12.898.824.004 3.996.419 4.681-.315 1.346.464 2.535.47 3.827.039 1.152.436 2.691.565 3.846.054 1.463.643 3.403.489 4.982.483 1.493-.006 3.204.286 4.67.076l2.268.03-.023-2.203c.044-3.298.059-6.884-.283-10.161.094-1.995.116-4.005.064-6.001-2.99.101-7.966-1.058-10.655.28-2.025-.701-5.656-.539-7.716.017-1.734-.662-3.935-.299-5.735-.3.003 1.703.053 3.402.103 5.103zM440.971 153.186c.024 4.301-.054 8.596-.029 12.898.824.004 3.996.419 4.681-.315 1.346.464 2.535.47 3.827.039 1.152.436 2.691.565 3.846.054 1.463.643 3.404.489 4.982.483 1.493-.006 3.204.286 4.67.076l2.268.03-.023-2.203c.044-3.298.059-6.884-.283-10.161.094-1.995.116-4.005.064-6.001-2.99.101-7.966-1.058-10.655.28-2.025-.701-5.656-.539-7.716.017-1.734-.662-3.935-.299-5.735-.3.003 1.703.053 3.402.103 5.103zM474.85 153.275c.024 4.301-.054 8.596-.029 12.898.824.004 3.996.419 4.681-.315 1.346.464 2.535.47 3.827.039 1.152.436 2.691.565 3.846.054 1.463.643 3.404.489 4.982.483 1.493-.006 3.204.286 4.67.076l2.268.03-.023-2.203c.044-3.298.059-6.884-.283-10.161.094-1.995.116-4.005.064-6.001-2.99.101-7.966-1.058-10.655.28-2.025-.701-5.656-.539-7.716.017-1.734-.662-3.935-.299-5.735-.3.003 1.703.054 3.402.103 5.103zM474.85 178.347c.024 4.301-.054 8.596-.029 12.898.824.004 3.996.419 4.681-.315 1.346.464 2.535.47 3.827.039 1.152.436 2.691.565 3.846.054 1.463.643 3.404.489 4.982.483 1.493-.006 3.204.286 4.67.076l2.268.03-.023-2.203c.044-3.298.059-6.884-.283-10.161.094-1.995.116-4.005.064-6.001-2.99.101-7.966-1.058-10.655.28-2.025-.701-5.656-.539-7.716.017-1.734-.662-3.935-.299-5.735-.3.003 1.703.054 3.402.103 5.103zM491.018 128.898c.024 4.301-.054 8.596-.029 12.898.824.004 3.996.419 4.681-.315 1.346.464 2.535.47 3.827.039 1.152.436 2.691.565 3.846.054 1.463.643 3.404.489 4.982.483 1.493-.006 3.204.286 4.67.076l2.268.03-.023-2.203c.044-3.298.059-6.884-.283-10.161.094-1.995.116-4.005.064-6.001-2.99.101-7.966-1.058-10.655.28-2.025-.701-5.656-.539-7.716.017-1.734-.662-3.935-.299-5.735-.3.002 1.703.053 3.403.103 5.103zM523.685 128.898c.024 4.301-.054 8.596-.029 12.898.824.004 3.996.419 4.681-.315 1.346.464 2.535.47 3.827.039 1.152.436 2.691.565 3.846.054 1.463.643 3.404.489 4.982.483 1.493-.006 3.204.286 4.67.076l2.268.03-.023-2.203c.044-3.298.059-6.884-.283-10.161.095-1.995.116-4.005.064-6.001-2.99.101-7.966-1.058-10.655.28-2.025-.701-5.656-.539-7.716.017-1.734-.662-3.935-.299-5.735-.3.003 1.703.053 3.403.103 5.103zM517.525 147.767c-2.387-.912-5.453-.414-7.937-.415.012 6.445.259 12.894.203 19.338 3.393.03 8.727 1.153 11.851-.336 1.863.643 3.508.651 5.296.054 1.59.601 3.734.777 5.323.075 1.935.85 4.497.648 6.577.666 2.169.019 4.65.413 6.779.108l3.125.115-.019-3.123c.072-5.411-.064-11.041-.391-16.452l.013-.367c-3.255-.068-6.496-.047-9.748-.02-3.057.026-7.549-1.083-10.393.332-2.013-.697-3.719-.088-5.728-.16-1.825-.064-3.109-.313-4.951.185zM517.525 172.257c-2.387-.912-5.453-.414-7.937-.415.012 6.445.259 12.894.203 19.338 3.393.03 8.727 1.153 11.851-.336 1.863.643 3.508.651 5.296.054 1.59.601 3.734.777 5.323.075 1.935.85 4.497.648 6.577.666 2.169.019 4.65.413 6.779.108l3.125.115-.019-3.123c.072-5.411-.064-11.041-.391-16.452l.013-.367c-3.255-.068-6.496-.047-9.748-.02-3.057.026-7.549-1.083-10.393.332-2.013-.697-3.719-.088-5.728-.16-1.825-.063-3.109-.312-4.951.185zM302.104 172.257c-2.387-.912-5.453-.414-7.937-.415.012 6.445.259 12.894.203 19.338 3.393.03 8.727 1.153 11.851-.336 1.863.643 3.508.651 5.296.054 1.59.601 3.734.777 5.323.075 1.935.85 4.497.648 6.577.666 2.169.019 4.65.413 6.779.108l3.125.115-.019-3.123c.072-5.411-.064-11.041-.391-16.452l.013-.367c-3.255-.068-6.496-.047-9.748-.02-3.057.026-7.549-1.083-10.393.332-2.013-.697-3.719-.088-5.728-.16-1.825-.063-3.109-.312-4.951.185zM302.104 147.677c-2.387-.912-5.453-.414-7.937-.415.012 6.445.259 12.894.203 19.338 3.393.03 8.727 1.153 11.851-.336 1.863.643 3.508.651 5.296.054 1.59.601 3.734.777 5.323.075 1.935.85 4.497.648 6.577.666 2.169.019 4.65.413 6.779.108l3.125.115-.019-3.123c.072-5.411-.064-11.041-.391-16.452l.013-.367c-3.255-.068-6.496-.047-9.748-.02-3.057.026-7.549-1.083-10.393.332-2.013-.697-3.719-.088-5.728-.16-1.825-.063-3.109-.312-4.951.185zM464.898 180.734c-.309-3.206-.302-6.455-.304-9.669-5.766.003-11.704-.407-17.456.111-5.808-.44-11.631.138-17.436-.108-2.895-.123-5.761-.143-8.66-.15-2.507-.006-5.366-.247-7.692.748-3.679-1.095-6.468-.242-10.116-.228-1.405.005-2.744-.42-4.142-.485-2.025-.095-4.104.303-6.043.752-4.525-1.484-10.378-.677-15.09-.678.015 6.939.267 13.846.101 20.787 6.2.081 12.42-.392 18.605-.227 3.042.081 6.054.149 9.099.146 2.565-.003 5.558.271 7.958-.711 3.542 1.049 6.669 1.063 10.068.089 3.03.985 7.086 1.274 10.119.122 3.932 1.484 9.48 1.119 13.71 1.087 2.063-.016 4.058-.25 6.101-.026 1.903.209 3.661.439 5.582.202l5.913.277-.007-5.188c.036-2.288-.068-4.579-.31-6.851z"/></g></g><g><path d="M635.545 498.502c-.093-3.386-.69-6.731-.722-10.122-.037-3.966.827-7.822.934-11.771.159-5.837 1.439-15.384-3.129-19.978 1.94-2.475 3.404-5.727 3.304-8.937-.088-2.804-2.131-5.03-2.09-7.805.039-2.664 2.037-4.737 2.205-7.414.208-3.314-1.386-6.668-2.93-9.482 4.773-5.605 3.495-16.562 2.943-23.421-.639-7.936-4.543-14.265-12.935-15.423-8.688-1.199-17.295 1.171-25.922.295-4.891-.497-9.54-.67-14.457-.689-4.345-.018-9.622-.476-12.956 2.941-5.997-4.232-11.416-4.23-16.605-.175-5.174-4.386-12.881-3.792-16.809-.07.089-.936-1.812-1.884-5.671-2.829-8.005-.12-15.32-.552-23.261.571-2.969.42-5.367-.932-8.343-1.062-2.912-.127-5.421.954-7.911 2.391.398-.827-2.092-1.674-7.358-2.501-7.445-.05-14.789-.583-21.962 1.141-3.307.795-5.814-1.398-9.307-1.469-1.977-.04-3.737.467-5.518 1.28-1.124.513-2.034 1.56-3.355 1.3-1.517-.298-2.993-1.864-4.662-2.259-1.238-.292-2.569-.424-3.835-.261-2.379.306-4.569 2.343-6.953 2.363-2.681.023-5.647-2.241-8.491-2.53-3.569-.363-7.359-.308-10.946-.295-3.724.013-7.369.764-11.092.76-3.389-.004-7.227-1.297-10.513-.401-2.355.642-3.281 1.702-5.751 1.354-3.721-.524-6.717-1.792-10.643-1.79-4.15.003-8.36-.257-12.504-.053-2.854.141-5.125 1.327-7.983.947-8.759-1.165-16.771-1.632-25.61-.595-1.392.405-2.199.82-2.415 1.24-1.981 1.52-5.52-1.627-7.829-1.98-3.204-.489-5.412 1.31-8.377 1.696-2.616.341-4.942-1.515-7.624-1.845-3.209-.395-6.139.787-8.932 2.267.495-.787-2.025-1.593-7.425-2.377-3.071-.05-5.697 2.115-8.729 1.864-2.425-.2-4.47-1.993-6.982-2.05-4.327-.097-10.283 3.34-13.208 6.144-3.739 3.584-3.268 8.396-3.288 13.107-.022 5.491-1.674 13.696 2.947 17.871-4.276 5.736-4.33 10.785-.358 16.773-4.035 6.117-4.05 10.106-.089 16.947-.91-.369-1.836 1.555-2.757 5.725-.029 7.843-.663 15.12.575 22.904.499 3.135-1.093 5.599-1.093 8.796.001 3.022 1.183 5.388 2.544 7.982-3.507 6.565 3.843 12.053 9.602 12.773 6.442.805 12.846-.545 19.268-.524 7.246.024 14.216 1.406 21.513.793 7.249-.609 13.735.128 20.944.479 7.17.35 14.199-1.202 21.369-.622 7.425.6 14.316.638 21.744.161 7.611-.489 15.243.779 22.883.673 2.705-.038 6.084.544 8.638-.503 1.695-.694 2.84-3.015 4.75-1.449 2.864 1.835 6.313 2.602 9.653 1.814 2.901-.684 4.183-2.534 6.952-1.639 2.883.931 4.709 2.413 8.027 1.779 2.132-.407 4.166-2.186 6.365-2.233 2.206-.048 4.538 1.804 6.723 2.257 3.15.652 6.762.414 9.971.479 7.129.144 14.343-1.62 21.398-.033 1.287-.692 3.686-1.369 7.175-2.025 2.114.094 4.021 1.661 6.106 2.036 2.181.392 4.603.18 6.815.244 5.834.168 11.547-.593 17.353-.606 5.458-.012 10.827 1.121 16.307 1.076 6.088-.05 12.032-1.155 18.13-.584 5.688.533 11.281 1.185 17.003.573 7.001-.748 13.412.059 20.389.403 6.742.333 13.372-1.007 20.116-.648 6.672.355 13.145.699 19.837.677.31-.064.779-.125 1.4-.181l.04-5.067.179-.008c.084 1.707.206 3.414.366 5.12 2.844 2.112 9.354-3.783 10.656-5.694 1.745-2.548 2.332-5.557 2.206-8.596z" fill="#4F73B6"/><g fill="#F0C418"><path d="M513.458 406.311c-.009 4.308-.34 8.702-.083 13.007.724-.037 1.359-.107 1.849-.224 1.334.316 2.776.498 4.103.066 1.022.396 2.39.521 3.421.074 2.059.924 6.346.865 8.581.563l2.016.03-.005-1.948c.061-2.935.094-6.12-.183-9.04.123-2.294.035-4.581.072-6.876-2.142-.034-5.872-.821-7.866.153-1.796-.637-5.028-.518-6.863-.037-1.536-.601-3.52-.293-5.099-.306-.009 1.513.025 3.025.057 4.538zM540.196 406.514c-.009 4.308-.34 8.702-.083 13.007.724-.037 1.359-.107 1.849-.224 1.334.316 2.776.498 4.104.066 1.022.396 2.39.521 3.421.074 2.059.924 6.346.865 8.581.563l2.016.03-.005-1.948c.061-2.935.094-6.12-.183-9.04.123-2.294.035-4.581.071-6.876-2.141-.034-5.872-.821-7.866.153-1.796-.637-5.028-.518-6.863-.037-1.536-.601-3.52-.293-5.099-.306-.01 1.513.024 3.025.057 4.538zM566.933 406.716c-.009 4.308-.34 8.702-.083 13.007.724-.037 1.359-.107 1.849-.224 1.334.316 2.776.498 4.104.066 1.022.396 2.39.521 3.421.074 2.059.924 6.346.865 8.581.563l2.016.03-.005-1.948c.061-2.935.094-6.12-.183-9.04.123-2.294.035-4.581.071-6.876-2.141-.034-5.872-.821-7.866.153-1.796-.637-5.028-.518-6.863-.037-1.536-.601-3.52-.293-5.099-.306-.009 1.513.024 3.025.057 4.538zM593.67 406.919c-.009 4.308-.34 8.702-.083 13.007.724-.037 1.359-.107 1.849-.224 1.334.316 2.776.498 4.103.066 1.022.396 2.39.521 3.421.074 2.059.924 6.346.865 8.581.563l2.016.03-.005-1.948c.061-2.935.094-6.12-.183-9.04.123-2.294.035-4.581.071-6.876-2.142-.034-5.872-.821-7.866.153-1.796-.637-5.028-.518-6.863-.037-1.536-.601-3.52-.293-5.099-.306-.008 1.513.026 3.025.058 4.538zM486.721 406.109c-.009 4.308-.34 8.702-.083 13.007.724-.037 1.359-.107 1.849-.224 1.334.316 2.776.498 4.103.066 1.022.396 2.39.521 3.421.074 2.059.924 6.346.865 8.581.563l2.016.03-.005-1.948c.061-2.935.094-6.12-.183-9.04.123-2.294.035-4.581.072-6.876-2.142-.034-5.872-.821-7.866.153-1.796-.637-5.028-.518-6.863-.037-1.536-.601-3.52-.293-5.099-.306-.009 1.513.024 3.025.057 4.538zM459.984 405.906c-.009 4.308-.34 8.702-.083 13.007.724-.037 1.359-.107 1.849-.224 1.334.316 2.776.498 4.103.066 1.022.396 2.39.521 3.421.074 2.059.924 6.346.865 8.581.563l2.016.03-.005-1.948c.061-2.935.094-6.12-.183-9.04.123-2.294.035-4.581.072-6.876-2.142-.034-5.872-.821-7.866.153-1.796-.637-5.028-.518-6.863-.037-1.536-.601-3.52-.293-5.099-.306-.01 1.513.024 3.025.057 4.538zM433.247 405.704c-.009 4.308-.34 8.702-.083 13.007.724-.037 1.359-.107 1.849-.224 1.334.316 2.776.498 4.103.066 1.022.396 2.39.521 3.421.074 2.059.924 6.346.865 8.581.563l2.016.03-.005-1.948c.061-2.935.094-6.12-.183-9.04.123-2.294.035-4.581.071-6.876-2.142-.034-5.872-.821-7.866.153-1.796-.637-5.028-.518-6.863-.037-1.536-.601-3.52-.293-5.099-.306-.009 1.513.025 3.025.058 4.538zM406.509 405.501c-.009 4.308-.34 8.702-.083 13.007.724-.037 1.359-.107 1.849-.224 1.334.316 2.776.498 4.103.066 1.022.396 2.39.521 3.421.074 2.059.924 6.346.865 8.581.563l2.016.03-.005-1.948c.061-2.935.094-6.12-.183-9.04.123-2.294.035-4.581.072-6.876-2.142-.034-5.872-.821-7.866.153-1.796-.637-5.028-.518-6.863-.037-1.536-.601-3.52-.293-5.099-.306-.009 1.513.025 3.025.057 4.538zM379.772 405.299c-.009 4.308-.34 8.702-.083 13.007.724-.037 1.359-.107 1.849-.224 1.334.316 2.776.498 4.103.066 1.022.396 2.39.521 3.421.074 2.059.924 6.346.865 8.581.563l2.016.03-.005-1.948c.061-2.935.094-6.12-.183-9.04.123-2.294.035-4.581.072-6.876-2.142-.034-5.872-.821-7.866.153-1.796-.637-5.028-.518-6.863-.037-1.536-.601-3.52-.293-5.099-.306-.009 1.513.024 3.025.057 4.538zM353.035 405.096c-.009 4.308-.34 8.702-.083 13.007.724-.037 1.359-.107 1.849-.224 1.334.316 2.776.498 4.103.066 1.022.396 2.39.521 3.421.074 2.059.924 6.346.865 8.581.563l2.016.03-.005-1.948c.061-2.935.094-6.12-.183-9.04.123-2.294.035-4.581.071-6.876-2.142-.034-5.872-.821-7.866.153-1.796-.637-5.028-.518-6.863-.037-1.536-.601-3.52-.293-5.099-.306-.009 1.513.025 3.025.058 4.538zM326.297 404.894c-.009 4.308-.34 8.702-.083 13.007.724-.037 1.359-.107 1.849-.224 1.334.316 2.776.498 4.103.066 1.022.396 2.39.521 3.421.074 2.059.924 6.346.865 8.581.563l2.016.03-.005-1.948c.061-2.935.094-6.12-.183-9.04.123-2.294.035-4.581.072-6.876-2.142-.034-5.872-.821-7.866.153-1.796-.637-5.028-.518-6.863-.037-1.536-.601-3.52-.293-5.099-.306-.009 1.513.025 3.025.057 4.538zM299.56 404.691c-.009 4.308-.34 8.702-.083 13.007.724-.037 1.359-.107 1.849-.224 1.334.316 2.776.498 4.103.066 1.022.396 2.39.521 3.421.074 2.059.924 6.346.865 8.581.563l2.016.03-.005-1.948c.061-2.935.094-6.12-.183-9.04.123-2.294.035-4.581.071-6.876-2.142-.034-5.872-.821-7.866.153-1.796-.637-5.028-.518-6.863-.037-1.536-.601-3.52-.293-5.099-.306-.008 1.513.025 3.025.058 4.538zM272.823 404.489c-.009 4.308-.34 8.702-.083 13.007.724-.037 1.359-.107 1.849-.224 1.334.316 2.776.498 4.103.066 1.022.396 2.39.521 3.421.074 2.059.924 6.346.865 8.581.563l2.016.03-.005-1.948c.061-2.935.094-6.12-.183-9.04.123-2.294.035-4.581.071-6.876-2.142-.034-5.872-.821-7.866.153-1.796-.637-5.028-.518-6.863-.037-1.536-.601-3.52-.293-5.099-.306-.009 1.513.025 3.025.058 4.538zM272.432 429.127c-.009 4.301-.119 8.595-.126 12.898.824.01 3.993.449 4.683-.279 1.343.475 2.531.49 3.826.068 1.149.445 2.687.585 3.846.083 1.458.654 3.4.515 4.978.521 1.493.005 3.202.31 4.669.112l2.267.047-.006-2.203c.069-3.297.112-6.884-.206-10.163.11-1.994.146-4.004.109-6.001-2.991.078-7.957-1.119-10.656.2-2.019-.716-5.652-.582-7.716-.041-1.729-.675-3.933-.329-5.733-.344-.01 1.701.028 3.401.065 5.102zM304.982 429.373c-.009 4.301-.119 8.595-.126 12.898.824.01 3.993.449 4.683-.279 1.343.475 2.531.49 3.826.068 1.149.445 2.687.585 3.846.083 1.458.654 3.4.515 4.978.521 1.493.005 3.202.31 4.669.112l2.267.047-.006-2.203c.069-3.297.112-6.884-.206-10.163.11-1.994.146-4.004.109-6.001-2.991.078-7.957-1.119-10.656.2-2.019-.716-5.652-.582-7.716-.041-1.729-.675-3.933-.329-5.733-.344-.009 1.702.028 3.402.065 5.102zM337.533 429.62c-.009 4.301-.119 8.595-.126 12.898.824.01 3.993.449 4.683-.279 1.343.475 2.531.49 3.826.068 1.149.445 2.687.585 3.846.083 1.458.654 3.4.515 4.978.521 1.493.005 3.202.31 4.669.112l2.267.047-.006-2.203c.069-3.297.112-6.884-.206-10.163.11-1.994.146-4.004.109-6.001-2.991.078-7.957-1.119-10.656.2-2.019-.716-5.652-.582-7.716-.041-1.729-.675-3.933-.329-5.733-.344-.01 1.701.028 3.401.065 5.102zM370.083 429.866c-.009 4.301-.119 8.595-.126 12.898.824.01 3.993.449 4.683-.279 1.343.475 2.531.49 3.826.068 1.149.445 2.687.585 3.846.083 1.458.654 3.4.515 4.978.521 1.493.005 3.202.31 4.669.112l2.267.047-.006-2.203c.069-3.297.112-6.884-.206-10.163.11-1.994.146-4.004.109-6.001-2.991.078-7.957-1.119-10.656.2-2.019-.716-5.652-.582-7.716-.041-1.729-.675-3.933-.329-5.733-.344-.009 1.702.028 3.402.065 5.102zM402.634 430.113c-.009 4.301-.119 8.595-.126 12.898.824.01 3.993.449 4.683-.279 1.343.475 2.531.49 3.826.068 1.149.445 2.687.585 3.846.083 1.458.654 3.4.515 4.978.521 1.493.005 3.202.31 4.669.112l2.267.047-.006-2.203c.069-3.297.112-6.884-.206-10.163.11-1.994.146-4.004.109-6.001-2.991.078-7.957-1.119-10.656.2-2.019-.716-5.652-.582-7.716-.041-1.729-.675-3.933-.329-5.733-.344-.01 1.701.028 3.401.065 5.102zM435.185 430.359c-.009 4.301-.119 8.595-.126 12.898.824.01 3.993.449 4.683-.279 1.343.475 2.531.49 3.826.068 1.149.445 2.687.585 3.846.083 1.458.654 3.4.515 4.978.521 1.493.005 3.202.31 4.669.112l2.267.047-.006-2.203c.069-3.297.112-6.884-.206-10.163.11-1.994.146-4.004.109-6.001-2.991.078-7.957-1.119-10.656.2-2.019-.716-5.652-.582-7.716-.041-1.729-.675-3.933-.329-5.733-.344-.01 1.702.028 3.402.065 5.102zM318.235 453.762c-.009 4.301-.119 8.595-.126 12.898.824.01 3.993.449 4.683-.279 1.343.475 2.531.49 3.826.068 1.149.445 2.687.585 3.846.083 1.458.654 3.4.515 4.978.521 1.493.005 3.202.31 4.669.112l2.267.047-.006-2.203c.069-3.297.112-6.884-.206-10.163.11-1.994.146-4.004.109-6.001-2.991.078-7.957-1.119-10.656.2-2.019-.716-5.652-.582-7.716-.041-1.729-.675-3.933-.329-5.733-.344-.01 1.701.028 3.401.065 5.102zM318.207 478.05c-.009 4.301-.119 8.595-.126 12.898.824.01 3.993.449 4.683-.279 1.343.475 2.531.49 3.826.068 1.149.445 2.687.585 3.846.083 1.458.654 3.4.515 4.978.521 1.493.005 3.202.31 4.669.112l2.267.047-.006-2.203c.069-3.297.112-6.884-.206-10.163.11-1.994.146-4.004.109-6.001-2.991.078-7.957-1.119-10.656.2-2.019-.716-5.652-.582-7.716-.041-1.729-.675-3.933-.329-5.733-.344-.009 1.701.029 3.401.065 5.102zM350.158 454.004c-.009 4.301-.119 8.595-.126 12.898.824.01 3.993.449 4.683-.279 1.343.475 2.531.49 3.826.068 1.149.445 2.687.585 3.846.083 1.458.654 3.4.515 4.978.521 1.493.005 3.202.31 4.669.112l2.267.047-.006-2.203c.069-3.297.112-6.884-.206-10.163.11-1.994.146-4.004.109-6.001-2.991.078-7.957-1.119-10.656.2-2.019-.716-5.652-.582-7.716-.041-1.729-.675-3.933-.329-5.733-.344-.01 1.701.028 3.401.065 5.102zM382.08 454.245c-.009 4.301-.119 8.595-.126 12.898.824.01 3.993.449 4.683-.279 1.343.475 2.531.49 3.826.068 1.149.445 2.687.585 3.846.083 1.458.654 3.4.515 4.978.521 1.493.005 3.202.31 4.669.112l2.267.047-.006-2.203c.069-3.297.112-6.884-.206-10.163.11-1.994.146-4.004.109-6.001-2.991.078-7.957-1.119-10.656.2-2.019-.716-5.652-.582-7.716-.041-1.729-.675-3.933-.329-5.733-.344-.009 1.702.029 3.402.065 5.102zM414.003 454.487c-.009 4.301-.119 8.595-.126 12.898.824.01 3.993.449 4.683-.279 1.343.475 2.531.49 3.826.068 1.149.445 2.687.585 3.846.083 1.458.654 3.4.515 4.978.521 1.493.005 3.202.31 4.669.112l2.267.047-.006-2.203c.069-3.297.112-6.884-.206-10.163.11-1.994.146-4.004.109-6.001-2.991.078-7.957-1.119-10.656.2-2.019-.716-5.652-.582-7.716-.041-1.729-.675-3.933-.329-5.733-.344-.009 1.701.028 3.401.065 5.102zM445.925 454.818c-.009 4.301-.119 8.595-.126 12.898.824.01 3.993.449 4.683-.279 1.343.475 2.531.49 3.826.068 1.149.445 2.687.585 3.846.083 1.458.654 3.4.515 4.978.521 1.493.005 3.202.31 4.669.112l2.267.047-.006-2.203c.069-3.297.112-6.884-.206-10.163.11-1.994.146-4.004.109-6.001-2.991.078-7.957-1.119-10.656.2-2.019-.716-5.652-.582-7.716-.041-1.729-.675-3.933-.329-5.733-.344-.009 1.701.029 3.401.065 5.102zM477.848 455.06c-.009 4.301-.119 8.595-.126 12.898.824.01 3.993.449 4.683-.279 1.343.475 2.531.49 3.826.068 1.149.445 2.687.585 3.846.083 1.458.654 3.4.515 4.978.521 1.493.005 3.202.31 4.669.112l2.267.047-.006-2.203c.069-3.297.112-6.884-.206-10.163.11-1.994.146-4.004.109-6.001-2.991.078-7.957-1.119-10.656.2-2.019-.716-5.652-.582-7.716-.041-1.729-.675-3.933-.329-5.733-.344-.009 1.701.028 3.401.065 5.102zM445.266 479.886c-.009 4.301-.119 8.595-.126 12.898.824.01 3.993.449 4.683-.279 1.343.475 2.531.49 3.826.068 1.149.445 2.687.585 3.846.083 1.458.654 3.4.515 4.978.521 1.493.005 3.202.31 4.669.112l2.267.047-.006-2.203c.069-3.297.112-6.884-.206-10.163.11-1.994.146-4.004.109-6.001-2.991.078-7.957-1.119-10.656.2-2.019-.716-5.652-.582-7.716-.041-1.729-.675-3.933-.329-5.733-.344-.009 1.701.028 3.401.065 5.102zM556.309 480.727c-.009 4.301-.119 8.595-.126 12.898.824.01 3.993.449 4.683-.279 1.343.475 2.531.49 3.826.068 1.149.445 2.687.585 3.846.083 1.458.654 3.4.515 4.978.521 1.493.005 3.202.31 4.669.112l2.267.047-.006-2.203c.069-3.297.112-6.884-.206-10.163.11-1.994.146-4.004.109-6.001-2.991.078-7.957-1.119-10.656.2-2.019-.716-5.652-.582-7.716-.041-1.729-.675-3.933-.329-5.733-.344-.009 1.701.029 3.401.065 5.102zM556.499 455.656c-.009 4.301-.119 8.595-.126 12.898.824.01 3.993.449 4.683-.279 1.343.475 2.531.49 3.826.068 1.149.445 2.687.585 3.846.083 1.458.654 3.4.515 4.978.521 1.493.005 3.202.31 4.669.112l2.267.047-.006-2.203c.069-3.297.112-6.884-.206-10.163.11-1.994.146-4.004.109-6.001-2.991.078-7.957-1.119-10.656.2-2.019-.716-5.652-.582-7.716-.041-1.729-.675-3.933-.329-5.733-.344-.009 1.701.029 3.401.065 5.102zM588.579 455.899c-.009 4.301-.119 8.595-.126 12.898.824.01 3.993.449 4.683-.279 1.343.475 2.531.49 3.826.068 1.149.445 2.687.585 3.846.083 1.458.654 3.4.515 4.978.521 1.493.005 3.202.31 4.669.112l2.267.047-.006-2.203c.069-3.297.112-6.884-.206-10.163.11-1.994.146-4.004.109-6.001-2.991.078-7.957-1.119-10.656.2-2.019-.716-5.652-.582-7.716-.041-1.729-.675-3.933-.329-5.733-.344-.01 1.701.028 3.401.065 5.102zM588.763 431.523c-.009 4.301-.119 8.595-.126 12.898.824.01 3.993.449 4.683-.279 1.343.475 2.531.49 3.826.068 1.149.445 2.687.585 3.846.083 1.458.654 3.4.515 4.978.521 1.492.005 3.202.31 4.669.112l2.267.047-.006-2.203c.069-3.297.112-6.884-.206-10.163.11-1.994.146-4.004.109-6.001-2.991.078-7.957-1.119-10.656.2-2.019-.716-5.652-.582-7.716-.041-1.729-.675-3.933-.329-5.733-.344-.009 1.701.028 3.401.065 5.102zM588.389 480.97c-.009 4.301-.119 8.595-.126 12.898.824.01 3.993.449 4.683-.279 1.343.475 2.531.49 3.826.068 1.149.445 2.687.585 3.846.083 1.458.654 3.4.515 4.978.521 1.493.005 3.202.31 4.669.112l2.267.047-.006-2.203c.069-3.297.112-6.884-.206-10.163.11-1.994.146-4.004.109-6.001-2.991.078-7.957-1.119-10.656.2-2.019-.716-5.652-.582-7.716-.041-1.729-.675-3.933-.329-5.733-.344-.01 1.701.028 3.401.065 5.102zM524.23 480.484c-.009 4.301-.119 8.595-.126 12.898.824.01 3.993.449 4.683-.279 1.343.475 2.531.49 3.826.068 1.149.445 2.687.585 3.846.083 1.458.654 3.4.515 4.978.521 1.493.005 3.202.31 4.669.112l2.267.047-.006-2.203c.069-3.297.112-6.884-.206-10.163.11-1.994.146-4.004.109-6.001-2.991.078-7.957-1.119-10.656.2-2.019-.716-5.652-.582-7.716-.041-1.729-.675-3.933-.329-5.733-.344-.009 1.701.028 3.401.065 5.102zM467.735 430.606c-.009 4.301-.119 8.595-.126 12.898.824.01 3.993.449 4.683-.279 1.343.475 2.531.49 3.826.068 1.149.445 2.687.585 3.846.083 1.458.654 3.4.515 4.978.521 1.493.005 3.202.31 4.669.112l2.267.047-.006-2.203c.069-3.297.112-6.884-.206-10.163.11-1.994.146-4.004.109-6.001-2.991.078-7.957-1.119-10.656.2-2.019-.716-5.652-.582-7.716-.041-1.729-.675-3.933-.329-5.733-.344-.009 1.701.028 3.401.065 5.102zM500.286 430.852c-.009 4.301-.119 8.595-.126 12.898.824.01 3.993.449 4.683-.279 1.343.475 2.531.49 3.826.068 1.149.445 2.687.585 3.846.083 1.458.654 3.4.515 4.978.521 1.492.005 3.202.31 4.669.112l2.267.047-.006-2.203c.069-3.297.112-6.884-.206-10.163.11-1.994.146-4.004.109-6.001-2.991.078-7.957-1.119-10.656.2-2.019-.716-5.652-.582-7.716-.041-1.729-.675-3.933-.329-5.733-.344-.01 1.702.028 3.402.065 5.102zM517.646 449.853c-2.38-.93-5.45-.456-7.934-.476-.037 6.445.162 12.896.056 19.339 3.393.056 8.718 1.219 11.853-.246 1.858.657 3.503.678 5.295.095 1.585.613 3.729.805 5.322.115 1.928.865 4.492.682 6.571.716 2.169.036 4.647.448 6.778.159l3.124.139.005-3.123c.113-5.41.02-11.042-.266-16.454l.016-.367c-3.255-.093-6.495-.097-9.748-.094-3.057.003-7.54-1.141-10.395.254-2.008-.712-3.718-.116-5.726-.203-1.823-.079-3.105-.338-4.951.146zM542.539 426.449c-2.932-.934-6.709-.465-9.767-.489-.034 6.445.222 12.896.103 19.339 4.177.062 10.734 1.234 14.59-.225 2.288.66 4.313.684 6.518.104 1.952.616 4.591.812 6.551.125 2.375.868 5.53.69 8.09.727 2.67.039 5.721.456 8.344.171l3.846.145.001-3.123c.129-5.41.005-11.042-.357-16.455l.019-.367c-4.006-.099-7.995-.108-11.999-.111-3.763-.003-9.283-1.154-12.795.236-2.473-.716-4.577-.123-7.049-.213-2.246-.084-3.824-.345-6.095.136zM485.225 474.099c-2.38-.93-5.45-.456-7.934-.476-.037 6.445.162 12.896.056 19.339 3.393.056 8.718 1.219 11.853-.246 1.858.657 3.503.678 5.295.095 1.585.613 3.728.805 5.322.115 1.928.865 4.492.682 6.571.716 2.169.036 4.647.448 6.778.159l3.124.139.005-3.123c.113-5.41.02-11.042-.266-16.454l.016-.367c-3.255-.093-6.495-.097-9.748-.094-3.057.003-7.54-1.141-10.395.254-2.008-.712-3.718-.116-5.726-.203-1.823-.079-3.105-.338-4.951.146zM279.196 472.538c-2.38-.93-5.45-.456-7.934-.476-.037 6.445.162 12.896.056 19.339 3.393.056 8.718 1.219 11.853-.246 1.858.657 3.503.678 5.295.095 1.585.613 3.728.805 5.322.115 1.928.865 4.492.682 6.571.716 2.169.036 4.647.448 6.778.159l3.124.139.005-3.123c.113-5.41.02-11.042-.266-16.454l.016-.367c-3.255-.093-6.495-.097-9.748-.094-3.057.003-7.54-1.141-10.395.254-2.008-.712-3.718-.116-5.726-.203-1.824-.079-3.106-.337-4.951.146zM279.382 447.959c-2.38-.93-5.45-.456-7.934-.476-.037 6.445.162 12.896.056 19.339 3.393.056 8.718 1.219 11.853-.246 1.858.657 3.503.678 5.295.095 1.585.613 3.728.805 5.322.115 1.928.865 4.492.682 6.571.716 2.169.036 4.647.448 6.778.159l3.124.139.005-3.123c.113-5.41.02-11.042-.266-16.454l.016-.367c-3.255-.093-6.495-.097-9.748-.094-3.057.003-7.54-1.141-10.395.254-2.008-.712-3.718-.116-5.726-.203-1.823-.079-3.106-.337-4.951.146zM437.095 482.211c-.285-3.208-.253-6.458-.231-9.671-5.766-.04-11.7-.496-17.457-.021-5.804-.484-11.632.05-17.434-.24-2.894-.145-5.76-.187-8.659-.216-2.507-.025-5.364-.288-7.697.689-3.671-1.122-6.466-.291-10.114-.305-1.405-.005-2.741-.44-4.138-.517-2.024-.11-4.106.271-6.048.707-4.514-1.518-10.373-.755-15.085-.793-.038 6.939.162 13.848-.056 20.787 6.199.128 12.422-.298 18.606-.086 3.041.104 6.052.195 9.097.215 2.565.016 5.556.314 7.964-.65 3.534 1.076 6.661 1.114 10.067.165 3.022 1.008 7.076 1.327 10.118.199 3.921 1.513 9.471 1.191 13.701 1.191 2.063 0 4.06-.219 6.101.021 1.902.223 3.658.466 5.58.245l5.911.322.033-5.188c.053-2.288-.034-4.581-.259-6.854z"/></g></g><path d="M759.743 445.515c-.158-1.164-.689-2.213-2.179-2.586 1.842-2 1.532-3.395-.855-4.292 1.968-1.805 1.223-3.724-.921-4.333.488-.078.869-.67 1.137-1.765-.409-2.155-1.347-4.153-1.782-6.112-.421-1.897.789-2.621-1.449-3.851.45.013.744-.719.872-2.164-.286-1.378-.399-2.991-.895-4.317-.219-.587-1.284-1.103-1.365-1.553-.171-.947.664-1.761.343-2.904-.288-1.025-1.115-.839-1.265-1.623-.041-.214.342-1.908.304-2.445-.033-.452-1.201-.801-1.373-1.381-.147-.496.74-2.578.61-3.587-.181-1.413-.787-2.413-1.276-3.689-.423-1.103-.789-2.399-1.309-3.439-.349-.699-1.226-.457-1.609-1.026-1.067-1.583-.78-3.391-2.414-5.021-1.026-1.023-2.056-1.379-3.065-2.217-2.284-1.896-2.866-3.628-6.169-4.275-.457.028-.752.134-.896.312-.873.541-.675-.849-1.166-1.172-1.127-.741-1.517-.295-2.522-.63-.076-.025-1.587-.402-1.68-.418-1.614-.286-1.776-1.447-3.571.214.167-.401-.506-.876-2.09-1.309-1.03.032-1.824.912-2.854 1.003-.51.045-1.104-.719-1.724-.61-.825.145-1.097 1.086-1.838 1.32-2.127.672-8.559-.023-7.949 4.269-2.329-.961-3.93.281-3.701 2.782-2.466-.328-3.644 1.049-3.094 3.515-.323-.365-1.035-.233-2.125.508-1.056 1.903-1.904 3.443-2.604 5.46-.593 1.711-2.038 3.646-.355 5.406-3.4 1.552-1.218 7.012-.968 9.689.341 3.65.98 7.824 1.894 11.391.916 3.571 1.919 7.112 2.678 10.733.384 1.83.01 4.088.904 5.826.316.614 1.869 2.069 1.566 2.356-2.014 2.404.83 2.254 1.154 3.876.126.635-1.16 1.333-.94 2.336.128.582 1.162.812 1.243 1.262.207 1.151-.284 2.349-.216 3.825.106 2.281 1.912 4.461 1.445 6.745.454.288.983.876 1.575 1.724.211 1.479-.438 2.296.2 3.953.663 1.721 1.837 2.839 2.835 4.323 2.227 3.311 4.454 5.358 7.619 7.849 5.234 4.12 14.099 5.308 20.501 4.026.082-.048.211-.103.383-.162l-.537-2.616.051-.012.594 2.635c.118.186 2.693-.49 2.701-.492 2.713-.869 11.396-4.307 10.222-8.128 3.336.723 2.267-1.616 3.426-3.21 1.375-1.892 3.418-.826 1.988-4.292 3.892-.485 3.494-7.01 3.901-9.867.557-3.901-.862-7.958-1.39-11.84z" fill="#4F73B6"/><g><path d="M101.975 124.648c-.328 1.934.405 3.494.685 5.38.318 2.144-.856 3.565-.822 5.32.486.96.957 1.6 1.399 1.936-.712 2.106.665 7.049.91 9.432-.665.801-1.448 1.389-2.113 1.729-3.992 1.173.361.206-1.72 2.159.203-.19-2.748 2.244-2.343 1.675-.852 1.2-.133 3.711-3.127 3.664.413.057-2.561 4.924-3.311 5.732-2.083 2.246-3.666 4.548-5.651 6.896-.621.043-1.243.072-1.852.087-.27-.003-.568-.003-.879.011l-.459-.055c-5.201-.634-11.378 1.478-16.648 1.669-2.922.106-9.715 2.245-11.789-.421-1.57 2.569-2.403.867-4.534 1.184-2.252.335-4.438.952-6.848 1.188-1.272-.399-1.882-.859-1.818-1.395-1.774 2.479-2.941 2.601-4.939.482-1.52 2.456-2.986 2.577-4.898.311-1.233 2.972-5.472 2.261-8.13 2.534-.203-2.209-.344-4.218.079-6.397.64-1.26-.733-1.27-.753-2.409-.011-.641.637-1.667.548-2.291-.115-.803-1.071-1.771-1.137-2.64.294-1.59.693-2.352 1.156-2.255-2.639-1.997-.357-2.055-.652-4.285-.246-1.855-2.508-2.087-.336-4.302.42-.373.407-.512-.099-.772-.245-.033-.52-.245-.796-.624-.799-2.232-.433-4.049-.672-6.238-.138-1.267-.43-2.223-.592-3.495-.153-1.867.388-4.562.173-6.148-.079-.583-1.071-2.263-.981-2.791.636-2.904-.618-6.485-.496-9.522l.886-1.369c-.217-.597-.598-1.078-1.145-1.445.045-1.14-1.087-1.616.453-2.831.603-.442-2.19-2.631-.713-4.511.008-.01-1.629-8.449-1.713-9.358.058-.605.112-1.099.193-1.455 2.06.173 2.924.457 3.056.807 1.754-3.12 4.123-.049 5.497-1.203 2.083-1.587 4.605-1.023 6.959-1.212 1.175.422 1.773.911 1.795 1.453.942-2.263 3.148-2.829 4.896-.492 1.291-2.477 2.866-2.649 4.846-.418 1.191-3.13 9.341-2.574 12.375-3.009 2.345-.336 4.667-.113 7.015-.435 2.388-.328 5.489-1.394 7.168.903 2.374-3.158 2.283-.711 4.875-.926 2.381-.198 2.484-2.902 4.936.163 1.044-2.651 4.571-2.25 6.897-2.35 2.926-.126 5.75-.659 8.713-.829.198-.004.315.027.331.053l3.17-.571.154 3.223c.045.177.1.312.15.391.594 5.3.584 10.65 1.217 15.891.284 2.355.362 4.518.53 6.876.176 2.483 1.363 4.753.904 7.305z" fill="#F2C617"/><path d="M104.144 146.688l.003.028c-.665.801-1.448 1.389-2.113 1.729-3.992 1.173.361.206-1.72 2.159.203-.19-2.748 2.244-2.343 1.675-.852 1.2-.133 3.711-3.127 3.664.019.003-1.837 4.241-2.778 5.236-2.144 2.266-4.146 5.054-6.183 7.392-.561-1.645-.483-5.258.812-6.604-.53-.356-.838-.928-.881-1.551-.071-.621.168-1.257.693-1.878-1.539-.866-1.17-4.167-.393-5.349-.917-1.359-1.152-3.199-1.207-4.786 6.395-.478 12.88-.897 19.237-1.715z" fill="#382D16"/><path d="M37.423 111.774c-.342-1.062-1.021-1.855-2.018-2.38-.278-.159-.636-.248-.968-.299-.355-.069-.672-.033-.853.079-.447-.131-.881-.021-1.2.289-.479.035-.827.261-1.044.676-.907.313-.91 1.339-1.211 2.048-.11.338-.064.835-.01 1.081l.01-.001c.174.946.88 1.913 1.689 2.426l.089.044.114.076c.831.491 3.311.962 3.894-.261.329-.073.641-.318.761-.566.363-.409.579-.887.646-1.434.305-.558.339-1.15.101-1.778zm-1.357 1.152c-.081.876-.849 1.823-1.783 1.914-.659.032-1.12-.014-1.663-.369-.461-.346-.809-.792-.929-1.37l-.041-.15-.016-.058-.01.001-.108-.254c.014-.103-.018-.208-.038-.352.082-.103.156-.207.192-.32.108-.241.326-.819.607-.958.266-.118 1.159-.423 1.336-.624.296.141.484.157.804.07.237.225.374.273.746.325.024.108.079.183.145.245.282.241.453.566.66.859l.033.08c-.015.228.05.421.169.628-.056.111-.106.219-.104.333zM41.761 158.68c-.342-1.062-1.021-1.855-2.018-2.38-.278-.159-.636-.248-.968-.299-.355-.069-.672-.033-.853.079-.447-.131-.881-.021-1.2.289-.479.035-.827.261-1.044.676-.907.313-.91 1.339-1.211 2.048-.11.338-.064.835-.01 1.081l.01-.001c.174.946.88 1.913 1.689 2.426l.089.044.114.076c.831.491 3.311.962 3.894-.261.329-.073.641-.318.761-.566.363-.409.579-.887.646-1.434.305-.558.339-1.15.101-1.778zm-1.358 1.152c-.081.876-.849 1.823-1.783 1.914-.659.032-1.12-.014-1.663-.369-.461-.346-.809-.792-.929-1.37l-.041-.15-.016-.058-.01.001-.108-.254c.014-.103-.018-.208-.038-.352.082-.103.156-.207.192-.32.108-.241.326-.819.607-.958.266-.118 1.159-.423 1.336-.624.296.141.484.157.804.07.237.225.374.273.746.325.024.108.079.183.145.245.282.241.453.566.66.859l.033.08c-.015.228.05.421.169.628-.055.111-.105.219-.104.333zM40.323 143.044c-.342-1.062-1.021-1.855-2.018-2.38-.278-.159-.636-.248-.968-.299-.355-.069-.672-.033-.853.079-.447-.131-.881-.021-1.2.289-.479.035-.827.261-1.044.676-.907.313-.91 1.339-1.211 2.048-.11.338-.064.835-.01 1.081l.01-.001c.174.946.88 1.913 1.689 2.426l.089.044.114.076c.831.491 3.311.962 3.894-.261.329-.073.641-.318.761-.566.363-.409.579-.887.646-1.434.305-.558.338-1.15.101-1.778zm-1.358 1.152c-.081.876-.849 1.823-1.783 1.914-.659.032-1.12-.014-1.663-.369-.461-.346-.809-.792-.929-1.37l-.041-.15-.016-.058-.01.001-.108-.254c.014-.103-.018-.208-.038-.352.082-.103.156-.207.192-.32.108-.241.326-.819.607-.958.266-.118 1.159-.423 1.336-.624.296.141.484.157.804.07.237.225.374.273.746.325.024.108.079.183.145.245.282.241.453.566.66.859l.033.08c-.015.228.05.421.169.628-.055.111-.105.219-.104.333zM38.885 127.408c-.342-1.062-1.021-1.855-2.018-2.38-.278-.159-.636-.248-.968-.299-.355-.069-.672-.033-.853.079-.447-.131-.881-.021-1.2.289-.479.035-.827.261-1.044.676-.907.313-.91 1.339-1.211 2.048-.11.338-.064.835-.01 1.081l.01-.001c.174.946.88 1.913 1.689 2.426l.089.044.114.076c.831.491 3.311.962 3.894-.261.329-.073.641-.318.761-.566.363-.409.579-.887.646-1.434.305-.558.338-1.151.101-1.778zm-1.358 1.152c-.081.876-.849 1.823-1.783 1.914-.659.032-1.12-.014-1.663-.369-.461-.346-.809-.792-.929-1.37l-.041-.15-.016-.058-.01.001-.108-.254c.014-.103-.018-.208-.038-.353.082-.103.156-.207.192-.32.108-.241.326-.819.607-.958.266-.118 1.159-.423 1.336-.624.296.141.484.157.804.07.237.225.374.273.746.325.024.108.079.183.145.245.282.241.453.566.66.859l.033.08c-.015.228.05.421.169.628-.055.112-.105.22-.104.334z" fill="#fff"/></g><g><path d="M220.232 251.241c-.777 1.801-.436 3.491-.612 5.389-.2 2.159-1.677 3.26-2.061 4.973.244 1.048.549 1.782.9 2.213-1.192 1.877-1.027 7.006-1.354 9.378-.836.62-1.737 1.006-2.463 1.178-4.156.192.302.286-2.183 1.689.242-.137-3.202 1.528-2.674 1.071-1.113.963-1.009 3.573-3.907 2.817.388.153-3.656 4.175-4.576 4.782-2.557 1.687-4.641 3.548-7.126 5.358-.614-.105-1.225-.225-1.82-.355-.262-.067-.551-.138-.857-.198l-.433-.163c-4.902-1.85-11.403-1.264-16.569-2.33-2.863-.591-9.97-.124-11.352-3.206-2.135 2.123-2.54.272-4.685.075-2.267-.208-4.537-.129-6.934-.471-1.141-.69-1.624-1.281-1.435-1.787-2.312 1.987-3.475 1.828-4.913-.704-2.06 2.025-3.512 1.795-4.832-.86-1.904 2.595-5.852.898-8.499.532.327-2.194.667-4.179 1.595-6.196.921-1.072-.411-1.408-.159-2.519.142-.625 1.015-1.468 1.076-2.096.079-.807-.62-1.975-.478-2.835.663-1.474 1.231-2.12 1.658-1.916-2.09-2.566.141-2.081.383-4.318.201-1.86-1.941-2.622.694-4.259.497-.263.517-.4.087-.774-.23-.09-.447-.361-.625-.795-.246-2.358.54-4.037.827-6.22.166-1.263.11-2.261.254-3.536.294-1.849 1.46-4.339 1.627-5.931.061-.585-.503-2.452-.29-2.944 1.307-2.67.939-6.447 1.778-9.368l1.185-1.119c-.069-.631-.325-1.189-.769-1.675.314-1.096-.672-1.828 1.112-2.642.691-.287-1.503-3.075.378-4.551.01-.007.422-8.594.557-9.497.2-.574.37-1.041.532-1.367 1.96.657 2.732 1.137 2.777 1.509 2.444-2.615 4.016.931 5.626.136 2.4-1.047 4.717.099 7.048.474 1.041.689 1.506 1.306 1.399 1.838 1.452-1.975 3.729-2.001 4.873.684 1.842-2.099 3.413-1.894 4.807.744 1.9-2.758 9.685-.284 12.735.014 2.358.23 4.561.998 6.918 1.242 2.398.248 5.663-.052 6.749 2.579 3.055-2.504 2.387-.149 4.956.257 2.36.373 3.102-2.23 4.757 1.33 1.644-2.327 4.975-1.101 7.258-.646 2.873.572 5.742.724 8.66 1.262.194.043.299.101.309.13l3.215.198-.615 3.167c.001.183.023.326.053.415-.68 5.289-1.96 10.484-2.589 15.726-.282 2.355-.721 4.474-1.117 6.805-.419 2.456.195 4.943-.856 7.313z" fill="#F2C617"/><path d="M217.108 273.166l-.004.027c-.836.62-1.737 1.006-2.463 1.178-4.156.192.302.286-2.183 1.689.242-.137-3.202 1.528-2.674 1.071-1.113.963-1.009 3.573-3.907 2.817.018.007-2.791 3.684-3.941 4.427-2.621 1.693-5.227 3.926-7.761 5.713-.154-1.732.779-5.222 2.356-6.223-.43-.471-.594-1.1-.488-1.716.078-.62.462-1.181 1.119-1.659-1.289-1.207-.147-4.326.888-5.29-.568-1.538-.36-3.381-.037-4.936 6.327 1.056 12.726 2.189 19.095 2.902z" fill="#382D16"/><path d="M160.579 223.416c-.08-1.113-.551-2.044-1.395-2.791-.232-.221-.559-.391-.869-.52-.328-.151-.645-.192-.848-.126-.403-.233-.851-.23-1.234-.004-.474-.079-.865.057-1.174.409-.955.088-1.202 1.084-1.662 1.702-.187.303-.26.796-.267 1.047l.01.001c-.056.961.401 2.067 1.065 2.757l.076.064.092.101c.691.674 2.988 1.72 3.845.671.336.007.699-.157.874-.37.45-.311.773-.724.968-1.24.428-.468.601-1.035.519-1.701zm-1.592.796c-.287.832-1.257 1.569-2.187 1.436-.648-.125-1.084-.28-1.528-.753-.366-.445-.598-.961-.577-1.551l-.004-.155-.001-.06-.01-.002-.045-.273c.038-.096.031-.207.047-.351.104-.081.201-.164.263-.265.162-.209.511-.718.817-.786.287-.052 1.227-.136 1.446-.289.254.208.433.267.765.259.177.275.298.354.647.493-.002.111.033.196.083.273.217.301.306.657.437.991l.013.086c-.069.218-.051.42.015.65-.081.094-.155.187-.181.297zM153.661 270.011c-.08-1.113-.551-2.044-1.395-2.791-.232-.221-.559-.391-.869-.52-.328-.151-.645-.192-.848-.126-.403-.233-.851-.23-1.234-.004-.474-.079-.865.057-1.174.409-.955.088-1.202 1.084-1.662 1.702-.187.303-.26.796-.267 1.047l.01.001c-.056.961.401 2.067 1.065 2.757l.076.064.092.101c.691.674 2.988 1.72 3.845.671.336.007.699-.157.874-.37.45-.311.773-.724.968-1.24.428-.467.601-1.035.519-1.701zm-1.592.797c-.287.832-1.257 1.569-2.187 1.436-.648-.125-1.084-.28-1.528-.753-.366-.445-.598-.961-.577-1.551l-.004-.155-.001-.06-.01-.002-.045-.273c.038-.096.031-.207.047-.351.104-.081.201-.164.263-.265.162-.209.511-.718.817-.786.287-.052 1.227-.136 1.446-.289.254.208.433.267.765.259.177.275.298.354.647.493-.002.111.033.196.083.273.217.301.306.657.437.991l.013.086c-.069.218-.051.42.015.65-.081.093-.155.186-.181.297zM155.975 254.481c-.08-1.113-.551-2.044-1.395-2.791-.232-.221-.559-.391-.869-.52-.328-.151-.645-.192-.848-.126-.403-.233-.851-.23-1.234-.004-.474-.079-.865.057-1.174.409-.955.088-1.202 1.084-1.662 1.702-.187.303-.26.796-.267 1.047l.01.001c-.056.961.401 2.067 1.065 2.757l.076.064.092.101c.691.674 2.988 1.72 3.845.671.336.007.699-.157.874-.37.45-.311.773-.724.968-1.24.428-.468.601-1.035.519-1.701zm-1.592.796c-.287.832-1.257 1.569-2.187 1.436-.648-.125-1.084-.28-1.528-.753-.366-.445-.598-.961-.577-1.551l-.004-.155-.001-.06-.01-.002-.045-.273c.038-.096.031-.207.047-.351.104-.081.201-.164.263-.265.162-.209.511-.718.817-.786.287-.052 1.227-.136 1.446-.289.254.208.433.267.765.259.177.275.298.354.647.493-.002.111.033.196.083.273.217.301.306.657.437.991l.013.086c-.069.218-.051.42.015.65-.081.093-.155.186-.181.297zM158.289 238.95c-.08-1.113-.551-2.044-1.395-2.791-.232-.221-.559-.391-.869-.52-.328-.151-.645-.192-.848-.126-.403-.233-.851-.23-1.234-.004-.474-.079-.865.057-1.174.409-.955.088-1.202 1.084-1.662 1.702-.187.303-.26.796-.267 1.047l.01.001c-.056.961.401 2.067 1.065 2.757l.076.064.092.101c.691.674 2.988 1.72 3.845.671.336.007.699-.157.874-.37.45-.311.773-.724.968-1.24.427-.467.601-1.035.519-1.701zm-1.592.796c-.287.832-1.257 1.569-2.187 1.436-.648-.125-1.084-.28-1.528-.753-.366-.445-.598-.961-.577-1.551l-.004-.155-.001-.06-.01-.002-.045-.273c.038-.096.031-.207.047-.351.104-.081.201-.164.263-.265.162-.209.511-.718.817-.786.287-.052 1.227-.136 1.446-.289.254.208.433.267.765.259.177.275.298.354.647.493-.002.111.033.196.083.273.217.301.306.657.437.991l.013.086c-.069.218-.051.42.015.65-.082.094-.156.187-.181.297z" fill="#fff"/></g><g><path d="M220.232 135.126c-.777 1.801-.436 3.491-.612 5.389-.2 2.159-1.677 3.26-2.061 4.973.244 1.048.549 1.782.9 2.213-1.192 1.877-1.027 7.006-1.354 9.378-.836.62-1.737 1.006-2.463 1.178-4.156.192.302.286-2.183 1.689.242-.137-3.202 1.528-2.674 1.071-1.113.963-1.009 3.573-3.907 2.817.388.153-3.656 4.175-4.576 4.782-2.557 1.687-4.641 3.548-7.126 5.358-.614-.105-1.225-.225-1.82-.355-.262-.067-.551-.138-.857-.198l-.433-.163c-4.902-1.85-11.403-1.264-16.569-2.33-2.863-.591-9.97-.124-11.352-3.206-2.135 2.123-2.54.272-4.685.075-2.267-.208-4.537-.129-6.934-.471-1.141-.69-1.624-1.281-1.435-1.787-2.312 1.987-3.475 1.828-4.913-.704-2.06 2.025-3.512 1.795-4.832-.86-1.904 2.595-5.852.898-8.499.532.327-2.194.667-4.179 1.595-6.196.921-1.072-.411-1.408-.159-2.519.142-.625 1.015-1.468 1.076-2.096.079-.807-.62-1.975-.478-2.835.663-1.474 1.231-2.12 1.658-1.916-2.09-2.566.141-2.081.383-4.318.201-1.86-1.941-2.622.694-4.259.497-.263.517-.4.087-.774-.23-.09-.447-.361-.625-.795-.246-2.358.54-4.037.827-6.22.166-1.263.11-2.261.254-3.536.294-1.849 1.46-4.339 1.627-5.931.061-.585-.503-2.452-.29-2.944 1.307-2.67.939-6.447 1.778-9.368l1.185-1.119c-.069-.631-.325-1.189-.769-1.675.314-1.096-.672-1.828 1.112-2.642.691-.287-1.503-3.075.378-4.551.01-.007.422-8.594.557-9.497.2-.574.37-1.041.532-1.367 1.96.657 2.732 1.137 2.777 1.509 2.444-2.615 4.016.931 5.626.136 2.4-1.047 4.717.099 7.048.474 1.041.689 1.506 1.306 1.399 1.838 1.452-1.975 3.729-2.001 4.873.684 1.842-2.099 3.413-1.894 4.807.744 1.9-2.758 9.685-.284 12.735.014 2.358.23 4.561.998 6.918 1.242 2.398.248 5.663-.052 6.749 2.579 3.055-2.504 2.387-.149 4.956.257 2.36.373 3.102-2.23 4.757 1.33 1.644-2.327 4.975-1.101 7.258-.646 2.873.572 5.742.724 8.66 1.262.194.043.299.101.309.13l3.215.198-.615 3.167c.001.183.023.326.053.415-.68 5.289-1.96 10.484-2.589 15.726-.282 2.355-.721 4.474-1.117 6.805-.419 2.456.195 4.943-.856 7.313z" fill="#EA472C"/><path d="M217.108 157.051l-.004.027c-.836.62-1.737 1.006-2.463 1.178-4.156.192.302.286-2.183 1.689.242-.137-3.202 1.528-2.674 1.071-1.113.963-1.009 3.573-3.907 2.817.018.007-2.791 3.684-3.941 4.427-2.621 1.693-5.227 3.926-7.761 5.713-.154-1.732.779-5.222 2.356-6.223-.43-.471-.594-1.1-.488-1.716.078-.62.462-1.181 1.119-1.659-1.289-1.207-.147-4.326.888-5.29-.568-1.537-.36-3.381-.037-4.936 6.327 1.056 12.726 2.189 19.095 2.902z" fill="#382D16"/><path d="M160.579 107.301c-.08-1.113-.551-2.044-1.395-2.791-.232-.221-.559-.391-.869-.52-.328-.151-.645-.192-.848-.126-.403-.233-.851-.23-1.234-.004-.474-.079-.865.057-1.174.409-.955.088-1.202 1.084-1.662 1.702-.187.303-.26.796-.267 1.047l.01.001c-.056.961.401 2.067 1.065 2.757l.076.064.092.101c.691.674 2.988 1.72 3.845.671.336.007.699-.157.874-.37.45-.311.773-.724.968-1.24.428-.468.601-1.035.519-1.701zm-1.592.796c-.287.832-1.257 1.569-2.187 1.436-.648-.125-1.084-.28-1.528-.753-.366-.445-.598-.961-.577-1.551l-.004-.155-.001-.06-.01-.002-.045-.273c.038-.096.031-.207.047-.351.104-.081.201-.164.263-.265.162-.209.511-.718.817-.786.287-.052 1.227-.136 1.446-.289.254.208.433.267.765.259.177.275.298.354.647.493-.002.111.033.196.083.273.217.301.306.657.437.991l.013.086c-.069.218-.051.42.015.65-.081.094-.155.187-.181.297zM153.661 153.896c-.08-1.113-.551-2.044-1.395-2.791-.232-.221-.559-.391-.869-.52-.328-.151-.645-.192-.848-.126-.403-.233-.851-.23-1.234-.004-.474-.079-.865.057-1.174.409-.955.088-1.202 1.084-1.662 1.702-.187.303-.26.796-.267 1.047l.01.001c-.056.961.401 2.067 1.065 2.757l.076.064.092.101c.691.674 2.988 1.72 3.845.671.336.007.699-.157.874-.37.45-.311.773-.724.968-1.24.428-.467.601-1.035.519-1.701zm-1.592.797c-.287.832-1.257 1.569-2.187 1.436-.648-.125-1.084-.28-1.528-.753-.366-.445-.598-.961-.577-1.551l-.004-.155-.001-.06-.01-.002-.045-.273c.038-.096.031-.207.047-.351.104-.081.201-.164.263-.265.162-.209.511-.718.817-.786.287-.052 1.227-.136 1.446-.289.254.208.433.267.765.259.177.275.298.354.647.493-.002.111.033.196.083.273.217.301.306.657.437.991l.013.086c-.069.218-.051.42.015.65-.081.093-.155.186-.181.297zM155.975 138.366c-.08-1.113-.551-2.044-1.395-2.791-.232-.221-.559-.391-.869-.52-.328-.151-.645-.192-.848-.126-.403-.233-.851-.23-1.234-.004-.474-.079-.865.057-1.174.409-.955.088-1.202 1.084-1.662 1.702-.187.303-.26.796-.267 1.047l.01.001c-.056.961.401 2.067 1.065 2.757l.076.064.092.101c.691.674 2.988 1.72 3.845.671.336.007.699-.157.874-.37.45-.311.773-.724.968-1.24.428-.468.601-1.035.519-1.701zm-1.592.796c-.287.832-1.257 1.569-2.187 1.436-.648-.125-1.084-.28-1.528-.753-.366-.445-.598-.961-.577-1.551l-.004-.155-.001-.06-.01-.002-.045-.273c.038-.096.031-.207.047-.351.104-.081.201-.164.263-.265.162-.209.511-.718.817-.786.287-.052 1.227-.136 1.446-.289.254.208.433.267.765.259.177.275.298.354.647.493-.002.111.033.196.083.273.217.301.306.657.437.991l.013.086c-.069.218-.051.42.015.65-.081.093-.155.186-.181.297zM158.289 122.835c-.08-1.113-.551-2.044-1.395-2.791-.232-.221-.559-.391-.869-.52-.328-.151-.645-.192-.848-.126-.403-.233-.851-.23-1.234-.004-.474-.079-.865.057-1.174.409-.955.088-1.202 1.084-1.662 1.702-.187.303-.26.796-.267 1.047l.01.001c-.056.961.401 2.067 1.065 2.757l.076.064.092.101c.691.674 2.988 1.72 3.845.671.336.007.699-.157.874-.37.45-.311.773-.724.968-1.24.427-.467.601-1.035.519-1.701zm-1.592.797c-.287.832-1.257 1.569-2.187 1.436-.648-.125-1.084-.28-1.528-.753-.366-.445-.598-.961-.577-1.551l-.004-.155-.001-.06-.01-.002-.045-.273c.038-.096.031-.207.047-.351.104-.081.201-.164.263-.265.162-.209.511-.718.817-.786.287-.052 1.227-.136 1.446-.289.254.208.433.267.765.259.177.275.298.354.647.493-.002.111.033.196.083.273.217.301.306.657.437.991l.013.086c-.069.218-.051.42.015.65-.082.093-.156.186-.181.297z" fill="#fff"/></g><g><path d="M152.227 327.551c-1.183-.342-2.409-.019-3.602-.195l-1.354-.286c-.171-.478-.398-.592-.652-.275-.213.187-.454.305-.725.355-1.063-.134-1.596-.168-2.702-.138-.369.01-3.138-.132-2.856-.882-.354.311-.809.616-1.309.585-.467-.03-.858-.722-1.158-.741-.233-.015-.671.558-1.009.604-.606.062-1.048-.367-1.387-.822-.742 1.154-2.848.587-3.971.349-.231-.048-2.321-.347-2.258-.276-.8-.585.234-1.587.247-2.32.013-.199-.627-2.776.287-2.418-.772-1.017-.164-1.112-.003-2.069.111-.694-.485-1.332-.232-2.151.167-.523.278-.683.555-.833-.175.122 1.044-.101 1.044-.101 2.93-.282 5.7.361 8.529.607 1.331.118 2.986-.111 4.488-.05.8.051 1.473.527 2.171.605.565.069.892-.344 1.461-.341.602.005.904.524 1.371.554.367.023.73-.421 1.23-.389l.873.489.792-.35c.471-.037.935.026 1.402.055.233.015 2.471.09 2.231.709.671-.558 6.603-.683 6.525.547.913-1.21 1.946-.077 2.648-.066.333.021.7-.49 1.196-.392.296.085.519.266.737.514.243.382.481.331.715-.188 2.186-.162 4.627-.141 6.817.165 1.063.134 1.962.191 3.067.194.435-.006 1.34-.015 1.731.143.262.083 1.025.732 1.091.737.367.023.775-.618 1.275-.587.4.025.673.476 1.006.498 1.165.107 1.599-.933 2.583.431.957-1.374 3.502-.346 4.836-.261 1.435.057 2.094-.301 3.171.668.19.179-.129.459.16.644.352.256.775-.084 1.056.234.344.389-.208 2.223-.266 2.62-.149 1.292.005 2.57-.177 3.86-.054.33-.055 1.932-.27 2.152-.43.44-2.232.359-2.798.323-1.498-.128-2.967-.188-4.467-.283l-4.331-.308c-.633-.04-1.31-.45-1.844-.484-.631-.073-1.342.049-2.013.073-1.577.067-2.898-.217-4.356-.443-.629-.107-.988.271-1.619.198-.667-.042-.8-.585-1.337-.552-.471.037-.988.271-1.523.271-.223-.181-.446-.362-.635-.541-.173.089-.317.247-.461.405-1.635-.07-3.438-.151-5.111-.157-1.673-.006-3.335-.178-5.006-.217-.969-.028-1.852-.351-2.819-.412-1.071-.036-2.023.204-3.044-.061z" fill="#EA472C"/><path d="M206.092 328.892l.177-.156c.14-.091.202.513.692-.357-.238 1.12 1.419.323 1.825.249l1.242-.055s.677-.124.606-.062c.106-.093.58-.697.282-.75.054.204.144.376.231.582.092.139.207-.621.175-.656.129.075.064.571.298.586l.105-.594c.416.827.871.522 1.077-.099.131.042.104.474.271.484l.408-.108c.298.052.648-.193.95-.207.471-.037 1.135.039 1.613-.098 1.569-.468 1.537-2.072.139-2.728-.65-.308-1.139-.506-1.463.375-.015.233.124-.893-.047-.837-.11.16-.219.286-.296.448.013-.199-.01-.368-.066-.538-.177.156-.325.38-.409.642.119-.827-.383-.825-1.01-.965-.594-.138-.879-.389-1.167.46-.021.332.126-.926-.052-.771-.146.191-.261.417-.311.681.05-.264.065-.496.013-.733-.121-.208-.49.87-.409.642.092-.395-.116-1.342-.598-.605-.096-.073-.123-.175-.081-.306-.206.087-.317.247-.334.513.39-1.41-.55-.302-.717-.312l-.037-.47c-.027-.102-.434.507-.402.542-.094-.106.169-.557-.025-.669 0 0-.332.48-.334.513-.008-.935-.854-.788-1.554-.833.033.002.01.368-.052.297-.021-.202-.083-.272-.217-.281-.283.249-.825-.186-1.052-.3l.056.17c-1.1.464.174.945.207 1.482.002-.033-.621-.24-.631-.073-.05.264.408.426.498.599-.031-.035-1.081.165.029.603-.296-.085-.342.112-.584.23l.454.229c-.131-.042-.375.11-.511.135l.423.194c.033.002-1.345 1.684.264 1.118-.069.029-1.013.67-.821.816.233.015.504-.035.717-.222-.152.291-.875.612-.763.953.056.17.902-.51.761-.386-.179.189-.359.378-.507.602.336-.012.636.007.937.026z" fill="#382D16"/><path d="M192.363 330.059c.467.03.892-.344 1.423-.277.265.05.392.158.662.109.271-.05.381-.209.681-.19l1.308-.051c.2.013.563.102.74-.053.071-.062.167-.523.167-.523.1.006.133.542.369.524.236-.018.196-.455.271-.584-.035.031.268.518.404.493.169-.023.132-.492.267-.517.069-.029.341.422.539.468.363.09.73-.421 1.046-.134.077-.162.154-.324.263-.451l.344.389c.131.042.367.023.502-.002.304-.047.377-.143.711-.122.267.017.402-.008.673-.058.338-.045.433.027.769.015.269-.016.379-.176.617-.228l.796.117c.236-.018.413-.174.681-.19l1.969.091c-.122-.709-.234-1.583-.159-2.246.067-.53.394-.943-.466-1.097.679-.157.646-.159.534-.5-.029-.069-.264-.05-.289-.185l.211-.154c.19-.355.38-.71-.318-.788.483-.236.657-.859.949-1.241-.031-.035-.604.028-.704.022-.333-.021-.871.012-1.198-.109l-.358-.156c-.821-.252.465.063-.26-.117-.231-.048-.406.074-.606.062-.629-.107-1.027-.699-1.417.177-.054-.738-.316-.821-.66-.142-.018-.769-.383-.825-.66-.142.054-.33-.068-.505-.291-.686-.323-.187-.471.037-.702-.011-.075.129-.142.125-.202.021-.027-.102-.056-.17-.119-.241-.236.018-.275.116-.459.371.125-.393-.233-.549-.531-.601-.66-.142-.246.185-.686.257-.033-.002-.106-.441-.237-.482-.198-.046-.332.48-.432.473-.098-.04.029-.465-.135-.509l-.238.052c-.067-.004-.154.324-.252.284-.1-.006-.108-.407-.171-.478-.25-.283-.792-.184-1.094-.169-.1-.006-.123-.175-.26-.117-.135.025-.15.258-.254.318.242-.118-.535-.534-.602-.539-.331-.054-.508.101-.706.055l-.612-.372c-.198-.046-.558-.169-.731-.08-.375.11-.14.091-.294.415.002-.033-.85-.855-1.058-.734l.345.89c-.027-.102-.408.108-.448.205-.115.226.325.688.45.829-.192-.146-.479.17-.492.369-.013.199.375.424.371.491-.044.164-.408.108-.421.307-.008.133.323.187.383.291-.092-.139-.44.606-.415.741.041.403.137.476.6.572-.713.155-.827.381-.075.663-.748.186-.727.388-.044.698-.365-.056-.548.199-.634.494-.094.428.141.409.222.715.027.102-.308.114-.319.28.021.202.35.289.514.333-.644.126-.663.959-.63 1.495.021.202.008.935.037 1.003.079.273.652.209.821.187z" fill="#F2C617"/><path d="M125.874 325.649c-.544-.401-1.171.527-1.339-.519l-.263.451c.104-.06-1.165-.107-1.231-.111-.156-.177-.212-.347-.168-.511-.048.231-.161.424-.369.544-.192-.146-.314-.32-.298-.586-.344.679-.675.625-.658-.175-.375.644-.557.332-1.081.165.294.119-.72-.78-.741-.981-.171.056-.338.045-.502.002-.083-.272-.006-.434.1-.528-.169.023-.641-.975-.764-1.15-.069.029-.169.023-.267-.017-.381-.324-.368-1.058-.441-1.496-.027-.636-.087-.74.399-1.009.138-.058-.52-1.835.747-1.755l-.166-.544c.204-.054.404-.041.6.038-.087-.206-.11-.374-.131-.576.169-.023.369-.01.533.034-.056-.17-.048-.303.029-.465.211-.154.419-.274.661-.392.267.017.427.127.485.264l.1-.528c.108-.127 1.221-.256 1.49-.273.19.179.279.351.268.518.017-.266.161-.424.336-.546.194.112.314.32.298.586.248-.752.448-.739.6.038.259-.918 3.224-.697 3.369.18.11-.16.188-.322.3-.515.196.079.289.185.344.389.079-.195.219-.286.423-.34l.198.58c.305-1.115.679-.157 1.23-.389.135-.025.788-.284.838-.014l1.046-.134-.171 1.124.031.035c.012.868-.08 1.797-.133 2.628-.063.997-.351 1.847-.564 2.567.125.141.254.216.35.289-.494.403.376.925-.52 1.335 1.048-.167-.169 1.091-.088.862 0 0 .762 1.183.235 1.049l-.448-.329c.465.063-.43.44-.665.458l-.86-.155c-.791-.216-2.436.381-3.142-.098z" fill="#4F73B8"/></g><g><path d="M204.743 355.392c.032-1.378-.103-2.697-.208-4.065-.115-1.505.041-3.041-.018-4.554l-.04-.251.064-.944.201.082c1.45.039 1.729.119 2.326.553.767-.334 2.659.361 3.36.723.379.184.964.153 1.38.302.421.151.807.145 1.235.265.267.07.536.194.751.364.332-.009.575-.004.809.055.178.05 1.297.12 1.636.374.496.338.944.973.996 1.706.075.732-.272 1.432-.726 1.827-.375.354-.836.53-1.321.681-1.85.511-3.723 1.189-5.613 1.528-.506.101-1.001.234-1.482.422-1.09.393-2.238.607-3.35.932z" fill="#F2C617"/><path d="M122.113 356.125l.29-.026c-.016-.612.226-1.824-.132-2.351.136-.314.131-.588-.011-.882.135-.298.133-.594-.006-.886.249-.447.227-1.718.115-2.227l-.674.002v-.012h-.015l-.002-.653c-.958.017-1.911.302-2.648.92-.631.53-1.792 2.172-1.149 3.05-.158.562.381 1.581.845 1.87.423 1.181 2.357 1.276 3.387 1.195zM151.992 356.76c-1.908-.183-5.064.962-6.724-.246-.548.392-1.121.505-1.776.464-.889-.056-1.424.011-2.338.097-.348.033-4.179.112-3.977-.426-1.212.742-1.917.771-3.043.091-1.044.737-1.951.761-2.989.034-.677.78-1.985.598-2.907.623-.467.012-.952.062-1.419.025-.407-.032-1.047-.339-1.429-.253-.261-.053-.61.03-.884.012-.218.06-.53.036-.749.042-.231-1.006.281-1.857.181-2.792-.016-.145-.51-2.814.037-2.539-.788-1.377 0-2.575-.352-4.018.528-.167 1.19-.283 1.746-.235.432.037 1.269.611 1.615.313.467-.991 4.04-.313 4.885-.294 1.572.034 3.201-.498 4.822-.254.825.124.979.205 1.708.037.833-.192 1.658-.023 2.519-.093 1.585-.13 2.948-.199 4.51.052.72.115.871-.105 1.594-.266.684-.152 1.21.423 1.754.378.771-.064 1.179-.628 2.077-.461.816.152.954.072 1.773-.083.394-.074 4.735-.043 4.569.282 1.076-.659 1.877-.227 3.014-.356 1.368-.155 2.663-.192 4.048-.218.698.148 1.038.306 1.031.461.676-.683 2.061-.831 3.01-.079.898-.756 1.871-.792 2.976-.078.787-.885 2.811-.69 3.883-.653 1.551.053 3.03-.143 4.579-.152 1.414-.008 2.76.017 4.173-.081 1.109-.077 2.761-.314 3.677.436.476-.283 1.039-.579 1.611-.584l1.409.354c1.222-.025 1.772-.787 3.001.106 1.09-1.138 3.671-.602 5.063-.576.785.015 1.537-.128 2.315-.186.379-.028 2.202-.287 2.499-.007l.96-.103.091.042c-.186 3.271.292 6.542.212 9.813-1.53-.061-2.968.026-4.485.152-1.608.134-3.178-.099-4.791.082-1.679.188-3.336-.075-5.013.096-.77.078-1.534.11-2.309.104-.713-.005-1.349-.298-2.019-.323-.634.15-1.045.271-1.277.4-1.399-.247-2.872.119-4.284.135-.756.009-1.336-.108-2.065-.237-.665-.117-.707.034-1.385.209-.681.176-1.06-.12-1.674-.183-.583-.06-1.068.368-1.723.385-.672.018-1.137-.405-1.723-.295-.454.085-.724.341-1.289.378-3.174.207-6.369-.029-9.537.141-1.563.084-3.021.176-4.59.134-1.541-.043-3.038.342-4.591.193zM204.542 345.577l-.101-.041.099-.014.002.055z" fill="#4F73B8"/><path d="M123.021 357.227c-1.184-.163-1.732-1.012-1.883-2.105-.104-.747-.335-2.183.073-2.823-.218-.307-.161-.818-.019-1.139-.176-.379-.185-.73-.007-1.129-.764-.791.719-2.029 1.35-2.234.787-.255 1.772-.198 2.58-.17.023.889.352 2.388-.005 3.201.192.51.273 1.799.06 2.289.512.655.218 3.21.217 4.061-.287.008-.597.02-.885.001-.218.06-.533.036-.751.042-.215.046-.523.033-.73.006zM200.999 355.454l-.312.042c-.106-1.696-.42-3.883.034-5.537-.26-.765-.204-1.762-.055-2.539-.127-.585-.187-1.149-.146-1.727.398-.053 2.638-.364 2.966-.055l.96-.103.091.042c-.186 3.271.292 6.542.212 9.813-1.218-.05-2.548-.188-3.75.064z" fill="#382D16"/><path d="M139.548 361.005c1.157-.175 2.459-.052 3.629-.065 1.19-.013 2.462-.236 3.593-.258.692-.013 1.314-.001 1.995.04.974.059 2.228-.228 3.235-.039.095-.054.267-.109.514-.166 1.834.028 3.706.073 5.565.029.847-.02 5.585.352 4.864-1.651l-.382.019.002-.009.386-.01c-.015-.764-.507-1.215-1.204-1.397-.543-.142-2.174-.246-2.613.215-.494-.357-1.984-.253-2.496.048-.66-.52-2.359-.151-3.15-.144-.778.007-3.081-.257-3.625.334-.455-.296-.857-.282-1.232.029-.395-.309-.965-.246-1.247.037.003-.069-.14-.134-.428-.194-.786.015-2.25-.179-2.926.239.062-.138-2.938-.021-3.15-.027-.873-.021-1.702.018-2.616-.008-1.015-.028-1.987.13-2.971.085-.521-.024-1.326.267-1.73-.072-.424-.356-.12-1.017-.462-1.361-.108-.193.032-.494.062-.68-.515-.141-1.964-.073-2.392.171.139-.226-1.346.001-1.384.011.05.763-.589 3.553.539 3.741-.015.557.429.944.994.866.32.478.842.527 1.309.205-.024.068.121.131.432.188.642-.019 2.364.157 2.928-.246.474.321 1.244.153 1.775.128.724-.034 1.467.051 2.186-.058z" fill="#4F73B8"/></g><g><path d="M111.37 279.997c.017 1.638-1.017 2.724-1.051 3.723.345 1.741.672 2.948 1.017 3.585-.517 2.275-.362 4.551-.103 6.895.258 2.327-.035 5.378-.035 7.291-.017 1.913-.793 3.154-1.31 4.533-.293.758 1.189 2.948 1.103 4.206-.086 1.241-.362 2.448-1.068 3.292-.431.5-.517.724-.086 1.465 1.345 2.172 1.241 4.671-.224 6.826-.413.465-.482.776-.017 1.344.689.914.948 1.069.81 3.672-.121 2.586.017 5.051-.431 7.533-.121.672-.207 1.345-.293 1.982-.035.396-.069.741-.086 1.086l-.104 1.689v.069c-1.672 1.672-2.051 2.172-2.793 3.12-1.517 1.965-3.551 3.913-5.43 5.413-1.896 1.5-3.482 2.965-4.982 4.982-.655.879-1.43 1.775-2.241 2.62-.414.414-.827.827-1.258 1.224-.414.379-.845.758-1.31 1.189-.241.241-.5.465-.776.724-.586-.034-1.224-.086-1.913-.121-.776-.086-1.396-.138-1.931-.19-.569-.052-1.12-.069-1.672-.069-1.12 0-2.258.086-3.568.241-2.586.328-5.602.31-7.895.017-2.293-.276-4.137-.362-6.791-.017-2.672.362-6.792.069-8.326.069-1.551 0-2.655-.5-3.586-1.241-1.982 1.344-4.258 1.758-6.895.638-.362-.155-.655-.086-.982.017-3.827 1.172-7.86.483-11.842.483-2.086-.431-3.051-.896-2.862-1.344-3.395 1.999-5.395 1.999-8.463.017-2.965 2-5.481 2-8.36-.121-1.19 1.344-3.12 1.637-5.447 1.569l-2.671-.017c-1.224 0-2.448 0-3.637.017-1.448 0-2.758-.052-3.861-.172.276-1.775.638-3.413 1.051-4.861.086-.259.121-.5.155-.758.017-.207 0-.328-.017-.5-.035-.328-.155-.672-.258-1.034-.242-.707-.517-1.465-.431-2.293.207-1.655 1.327-2.723 1.276-3.913s-.845-2.258-.741-3.896c.551-2.655.999-3.896 1.379-3.62-1.362-2.879-1.362-4.361.069-7.153.327-.586.207-.81 0-1.31-1.069-2.551-.948-4.258.483-6.516.396-.534.414-.793.035-1.327-.207-.121-.414-.517-.603-1.224-.362-4.12-.431-8.308.5-12.394.224-.965.345-1.569.017-2.224s-.362-1.672-.362-2.379l.086-7.274c0-1.672.534-2.896.999-4.292.38-1.103-1.207-1.931-.931-3.947.362-2.258.414-4.516.035-6.757-.362-2.241-.086-5.257-.155-7.205-.069-1.965.551-3.223 1.155-4.792.258-.638-1.31-2.879-1.31-4.154.017-1.258.242-2.413.896-3.327.431-.534.465-.827 0-1.482-1.345-1.931-1.517-3.982-.483-6.395.345-.741.327-.982-.12-1.637-.431-.655-.672-1.689-.724-2.568-.121-2.741-.224-5.55-.345-8.326.276-2.637.62-3.896 1.034-3.723-1.552-2.362-1.724-3.568-.983-6.55.086-.379.155-.689 0-1.086-1.431-3.723-.965-7.929-1.224-11.928.172-1.017.362-1.62.552-2.293.172-.793.396-1.051.638-.965-.638-.948-1.172-2.534-1.552-4.361 1.448-.293 3.81-.362 5.706-.172 1.069.19 2.12.638 3.017 1.396 2.586-2.051 5.275-2.069 8.291.017 1.258-1.31 3.413-1.603 5.619-1.534 2.224.086 4.309-.241 6.619.121 2.31.362 3.706.345 6.412.017 2.723-.345 5.999-.31 8.309-.035 2.31.276 3.947.31 6.533 0 2.568-.31 6.309-.069 8.119-.086 1.81 0 2.93.621 3.895 1.431 2.569-1.431 4.672-1.948 6.361-1.069 1.689.862 2.448.896 4.206 0 1.758-.914 4.275-.31 6.223 1.189 1.293-1.31 3.154-1.62 5.412-1.551 2.258.052 4.309-.293 6.671.069s4.344.345 6.86.017c2.5-.328 5.326-.086 8.067-.052.327.035.534.052.551.086l.086 2.551h.086l2.534-.103c.035.293.069.534.121.69.121 2.448.431 4.637.258 7.291-.189 2.637-.172 5.24.259 7.653.431 2.396.465 5.068.258 7.464-.189 2.379-.276 4.671.19 7.05.465 2.379.414 5.757.189 8.067-.241 2.292-.241 3.999.138 6.654s.379 6.05.104 8.274c-.276 2.224-.293 3.74.052 6.447.328 2.689.086 6.688.103 8.343z" fill="#fff"/><path d="M109.492 339.121v.069c-1.672 1.672-2.051 2.172-2.793 3.12-1.517 1.965-3.551 3.913-5.43 5.413-1.896 1.5-3.482 2.965-4.982 4.982-.655.879-1.43 1.775-2.241 2.62-.414.414-.827.827-1.258 1.224-.414.379-1.621 1.482-2.086 1.913-.017-.569-.035-2.026 0-2.595.051-.983.897-1.956.948-2.921.035-.655.276-1.069.5-1.431-.31-.517-.465-1.258-.465-2.034-.017-.758.155-1.534.517-2.241-.327-.707-.483-1.396-.483-2.086 0-.19 0-.328.035-.534.017-.328.052-.638.086-.965.086-.621.207-1.224.379-1.758-.293-.914-.431-2.172-.483-3.585.569.017 1.207.052 1.862.086 1.034.034 2.086.086 3.12.138.5.017.965.035 1.465.069.276.017.552.034.81.086 1.086.155 2.189.207 3.275.138 1.413-.035 2.827.017 4.223.172 1.001.12 2.001.172 3.001.12z" fill="#F2C617"/></g><g><path d="M793.61 203.039c-.122-5.783 1.79-11.226 2.01-16.98.195-5.112.934-9.816 1.599-14.87.77-5.849.929-11.685 1.754-17.551.383-2.726 1.192-6.499.806-9.225-.137-.968-1.101-2.438-1.09-3.268.052-4.005 2.991-5.367-.103-9.879-.82-.647-1.646-1.286-2.478-1.918-.184-.9-.45-1.776-.796-2.628-1.634-2.153-2.899-2.835-5.496-3.17-1.883-.243-3.282-.033-5.103-.429-2.052-.447-3.823-1.387-6.016-1.692-5.395-.749-11.308.044-16.501-1.663-4.456 1.867-9.518-1.058-14.15-1.569-5.542-.611-10.929-.827-16.44-1.742-12.278-2.038-24.931-1.593-37.19-3.8-6.766-1.219-13.749-1.255-20.581-2.221-5.433-.769-12.268-1.794-17.198 1.213-4.138 2.525-5.863 7.042-6.941 11.535-1.091 4.55-3.381 13.388-.125 17.364-3.728 3.914-1.379 6.162-1.886 10.609-.54 4.74-2.749 5.615-.504 10.85-3.174 3.072-3.072 9.3-3.292 13.44-.275 5.189-1.163 10.079-1.704 15.229-.489 4.651-.28 9.13-1.143 13.74-.784 4.188-2.899 12.206.176 15.847-3.074 3.569-3.407 7.031-1.137 10.596-3.121 3.034-3.218 7.994-1.083 10.734-3.177-.616-4.76 25.785-3.384 28.808-1.46-.884-2.368 7.856-2.229 9.246.636 6.4 4.932 9.823 10.167 12.385 3.602 1.762 4.74.099 8.323.251 2.179.092 3.962 2.172 6.605 2.001 3.221-.208 3.258-.877 6.457.129 3.083.969 6.088 1.541 9.348 1.82 6.449.551 13.402.003 19.334 1.223 7.04 1.449 14.36 1.097 21.213 2.661 5.97 1.362 12.674-.043 17.818 1.219 1.349.331 2.435 1.247 3.945 1.313 1.513.066 2.987-1.013 4.399-.894 4.259.359 5.332 2.822 10.073.87-1.094 1.417 7.577 1.485 8.12 1.486 2.544.006 4.041 1.329 6.501 1.58 1.878.192 3.66-.723 5.467-1.02 4.809-.79 7.86-1.13 10.795-5.609 2.059-3.142 3.914-8.507.957-11.749 3.086-3.4 3.432-6.622 1.264-10.692 2.956-3.658 3.212-6.206 1.104-10.821 1.94 1.013 3.292-12.428 3.336-13.282.138-2.658-.154-5.07.261-7.623.494-3.034 1.305-4.95-.321-7.964 3.113-3.174 2.967-10.144 3.098-14.291.208-6.594 2.1-12.992 1.961-19.599z" fill="#4F73B6"/><path d="M785.851 189.05c-.127-4.779 1.543-9.247 1.666-14.001.116-4.496.925-8.639 1.412-13.09.516-4.711.765-9.326 1.392-14.04.45-3.388 1.121-6.744-.263-9.795-1.383-3.049-2.665-7.137-7.046-6.73-2.112.196-2.13.7-4.027.092-1.971-.632-2.915-1.06-5.07-.748-3.397.492-5.888-1.068-9.384-1.518-4.525-.583-9.461.007-13.822-1.383-3.811 1.515-7.606-.804-11.479-1.262-5.016-.593-9.894-.765-14.886-1.587-10.239-1.687-20.84-1.23-31.051-3.086-5.535-1.006-11.103-.832-16.657-1.744-4.154-.682-9.972-2.074-13.963-.079-5.196 2.598-4.053 7.424-4.757 12.156-.606 4.07-3.272 11.432-.165 15.06-3.275 3.294-1.256 5.154-1.503 8.757-.083 1.217-1.168 2.054-1.474 3.193-.523 1.949.204 3.982 1 5.745-2.489 2.306-2.481 6.794-2.71 9.963-.3 4.152-.708 8.048-1.307 12.166-.591 4.062-.139 8.136-.941 12.165-.704 3.538-2.688 10.652.045 13.748-2.634 2.933-2.908 5.788-.939 8.738-2.677 2.491-2.741 6.583-.892 8.852-2.321-.441-2.9 10.289-2.933 11.626-.059 2.385.052 4.14-.426 6.455-.444 2.151-.43 3.619.554 5.673-1.313-.765-.864 4.747-.711 5.135.907 2.298 3.234 3.933 5.508 4.641 1.864.581 4.358.882 6.282.653 1.782-.212 1.596-.589 3.204-.241 1.688.365 2.49 1.285 4.337 1.195 1.093-.053 2.23-.945 3.231-.878 1.057.071 1.729.849 2.795 1.238 2.462.899 3.747-.508 6.069-.353 2.212.147 4.557 1.68 6.918 2.004 2.613.358 5.13.497 7.76.594 2.943.108 5.813.983 8.704.723 2.483-.223 3.446.372 6.072.942 5.804 1.261 11.635.733 17.399 1.868 2.939.579 6.465 1.094 9.471.747 2.725-.315 2.567-.625 5.122.432 2.607 1.078 4.755-.201 7.249.218 3.322.557 4.374 1.887 7.927.499-1.221 1.517 8.102 1.045 8.309 1.061 1.785.141 3.107 1.453 4.963 1.503 1.8.049 4.464-.853 6.151-1.484 4.717-1.763 7.631-12.49 3.963-16.337 2.645-2.793 2.931-5.45 1.048-8.817 2.532-3.007 2.743-5.108.909-8.923 1.72.866 2.786-10.214 2.823-10.946.11-2.211-.262-4.173.196-6.288.535-2.474 1.067-4.146-.307-6.572 2.801-2.735 2.518-8.804 2.617-12.428.15-5.233 1.757-10.258 1.617-15.512zM716.066 284.423c-.196-1.761-.715-3.245-1.978-4.511-.974-.977-2.864-2.637-4.401-2.052-.809-.428-1.685-.38-2.419.105-.805-.147-1.824.202-2.266.923-1.761.249-2.711 2.461-3.291 3.888-.638 1.57-.123 3.417.505 4.91.683 1.626 2.154 3.132 3.806 3.783 1.407.554 4.583 1.282 5.692-.232 1.035-.025 1.43-.675 2.085-1.317.69-.675 1.232-1.011 1.389-2.057.886-.73 1.002-2.395.878-3.44z" fill="#fff"/></g></g>
      </g>
    </g>
</g>

              </svg>